<?xml version="1.0" encoding="utf-8" standalone="no"?>
<!DOCTYPE svg PUBLIC "-//W3C//DTD SVG 1.1//EN"
  "http://www.w3.org/Graphics/SVG/1.1/DTD/svg11.dtd">
<svg height="345.6pt" version="1.1" viewBox="0 0 460.8 345.6" width="460.8pt" xmlns="http://www.w3.org/2000/svg" xmlns:xlink="http://www.w3.org/1999/xlink">
 <metadata>
  <rdf:RDF xmlns:cc="http://creativecommons.org/ns#" xmlns:dc="http://purl.org/dc/elements/1.1/" xmlns:rdf="http://www.w3.org/1999/02/22-rdf-syntax-ns#">
   <cc:Work>
    <dc:type rdf:resource="http://purl.org/dc/dcmitype/StillImage"/>
    <dc:date>2021-09-02T14:14:20.150267</dc:date>
    <dc:format>image/svg+xml</dc:format>
    <dc:creator>
     <cc:Agent>
      <dc:title>Matplotlib v3.4.1, https://matplotlib.org/</dc:title>
     </cc:Agent>
    </dc:creator>
   </cc:Work>
  </rdf:RDF>
 </metadata>
 <defs>
  <style type="text/css">*{stroke-linecap:butt;stroke-linejoin:round;}</style>
 </defs>
 <g id="figure_1">
  <g id="patch_1">
   <path d="M 0 345.6 
L 460.8 345.6 
L 460.8 0 
L 0 0 
z
" style="fill:#ffffff;"/>
  </g>
  <g id="axes_1">
   <g id="patch_2">
    <path d="M 57.6 307.584 
L 414.72 307.584 
L 414.72 41.472 
L 57.6 41.472 
z
" style="fill:#ffffff;"/>
   </g>
   <g id="PolyCollection_1">
    <defs>
     <path d="M 73.832727 -342.392763 
L 73.832727 -342.392763 
L 75.472397 -276.208573 
L 77.112066 -240.792153 
L 78.751736 -219.911888 
L 80.391405 -201.988228 
L 82.031074 -193.038246 
L 83.670744 -183.383355 
L 85.310413 -176.316285 
L 86.950083 -168.625849 
L 88.589752 -162.496843 
L 90.229421 -156.961574 
L 91.869091 -153.510146 
L 93.50876 -150.033684 
L 95.14843 -147.124421 
L 96.788099 -142.695005 
L 98.427769 -139.94607 
L 100.067438 -138.098178 
L 101.707107 -137.069795 
L 103.346777 -135.574041 
L 104.986446 -130.905279 
L 106.626116 -127.171107 
L 108.265785 -124.962458 
L 109.905455 -123.57968 
L 111.545124 -120.970035 
L 113.184793 -119.197021 
L 114.824463 -118.649163 
L 116.464132 -116.528769 
L 118.103802 -114.926568 
L 119.743471 -112.923775 
L 121.38314 -111.337197 
L 123.02281 -110.625124 
L 124.662479 -109.553397 
L 126.302149 -108.211844 
L 127.941818 -106.140799 
L 129.581488 -105.280476 
L 131.221157 -104.792822 
L 132.860826 -103.927045 
L 134.500496 -102.036534 
L 136.140165 -101.546633 
L 137.779835 -100.242031 
L 139.419504 -99.591934 
L 141.059174 -98.568042 
L 142.698843 -97.509028 
L 144.338512 -96.740115 
L 145.978182 -95.851739 
L 147.617851 -95.112062 
L 149.257521 -94.291397 
L 150.89719 -94.527172 
L 152.53686 -93.39658 
L 154.176529 -92.490034 
L 155.816198 -91.712425 
L 157.455868 -90.267192 
L 159.095537 -89.185194 
L 160.735207 -88.104477 
L 162.374876 -87.480296 
L 164.014545 -86.792968 
L 165.654215 -86.407387 
L 167.293884 -86.410972 
L 168.933554 -85.771246 
L 170.573223 -85.974738 
L 172.212893 -85.138296 
L 173.852562 -84.87916 
L 175.492231 -84.26897 
L 177.131901 -83.517222 
L 178.77157 -82.424414 
L 180.41124 -81.786518 
L 182.050909 -81.207693 
L 183.690579 -80.619132 
L 185.330248 -79.954587 
L 186.969917 -79.839595 
L 188.609587 -79.459262 
L 190.249256 -79.092304 
L 191.888926 -78.728374 
L 193.528595 -78.146659 
L 195.168264 -77.512062 
L 196.807934 -77.150826 
L 198.447603 -77.000556 
L 200.087273 -76.292782 
L 201.726942 -76.331816 
L 203.366612 -75.965656 
L 205.006281 -75.790483 
L 206.64595 -75.653553 
L 208.28562 -75.108963 
L 209.925289 -75.004147 
L 211.564959 -74.796057 
L 213.204628 -74.336998 
L 214.844298 -74.236228 
L 216.483967 -73.766023 
L 218.123636 -73.398278 
L 219.763306 -72.924873 
L 221.402975 -72.81745 
L 223.042645 -72.523234 
L 224.682314 -72.01884 
L 226.321983 -71.706641 
L 227.961653 -71.296931 
L 229.601322 -71.034262 
L 231.240992 -70.704722 
L 232.880661 -70.652604 
L 234.520331 -70.480368 
L 236.16 -69.894018 
L 237.799669 -69.883606 
L 239.439339 -69.882035 
L 241.079008 -69.521951 
L 242.718678 -69.312888 
L 244.358347 -69.028758 
L 245.998017 -68.726963 
L 247.637686 -68.243859 
L 249.277355 -67.966392 
L 250.917025 -67.948925 
L 252.556694 -67.781964 
L 254.196364 -67.654746 
L 255.836033 -67.781941 
L 257.475702 -67.661832 
L 259.115372 -66.833855 
L 260.755041 -66.716223 
L 262.394711 -66.48685 
L 264.03438 -66.454256 
L 265.67405 -66.033666 
L 267.313719 -65.720758 
L 268.953388 -65.642182 
L 270.593058 -65.409782 
L 272.232727 -65.426063 
L 273.872397 -65.43358 
L 275.512066 -65.338161 
L 277.151736 -64.949784 
L 278.791405 -64.777418 
L 280.431074 -64.956689 
L 282.070744 -64.769957 
L 283.710413 -64.686515 
L 285.350083 -64.059362 
L 286.989752 -64.263173 
L 288.629421 -64.056102 
L 290.269091 -64.04016 
L 291.90876 -63.713856 
L 293.54843 -63.376448 
L 295.188099 -63.119244 
L 296.827769 -63.034634 
L 298.467438 -62.965775 
L 300.107107 -62.806966 
L 301.746777 -62.727425 
L 303.386446 -62.75632 
L 305.026116 -62.455327 
L 306.665785 -62.595277 
L 308.305455 -62.090056 
L 309.945124 -61.9282 
L 311.584793 -61.663819 
L 313.224463 -61.887547 
L 314.864132 -61.904441 
L 316.503802 -61.570626 
L 318.143471 -61.433579 
L 319.78314 -61.580664 
L 321.42281 -61.379779 
L 323.062479 -61.56792 
L 324.702149 -61.393955 
L 326.341818 -61.104464 
L 327.981488 -61.098223 
L 329.621157 -61.12519 
L 331.260826 -60.775024 
L 332.900496 -60.857387 
L 334.540165 -60.538896 
L 336.179835 -60.366614 
L 337.819504 -60.33835 
L 339.459174 -60.469902 
L 341.098843 -60.379788 
L 342.738512 -60.211609 
L 344.378182 -60.022903 
L 346.017851 -59.910334 
L 347.657521 -59.777096 
L 349.29719 -59.601797 
L 350.93686 -59.831327 
L 352.576529 -59.658554 
L 354.216198 -59.470869 
L 355.855868 -59.280349 
L 357.495537 -59.302542 
L 359.135207 -59.217305 
L 360.774876 -59.063675 
L 362.414545 -58.972734 
L 364.054215 -58.904596 
L 365.693884 -59.064094 
L 367.333554 -59.236605 
L 368.973223 -58.939455 
L 370.612893 -58.798302 
L 372.252562 -58.774687 
L 373.892231 -58.624788 
L 375.531901 -58.492175 
L 377.17157 -58.602366 
L 378.81124 -58.707167 
L 380.450909 -58.482993 
L 382.090579 -58.331196 
L 383.730248 -58.212713 
L 385.369917 -58.386606 
L 387.009587 -58.256174 
L 388.649256 -58.114341 
L 390.288926 -58.207722 
L 391.928595 -58.096389 
L 393.568264 -58.04511 
L 395.207934 -57.829288 
L 396.847603 -57.90126 
L 398.487273 -57.927147 
L 398.487273 -57.927147 
L 398.487273 -57.927147 
L 396.847603 -57.90126 
L 395.207934 -57.829288 
L 393.568264 -58.04511 
L 391.928595 -58.096389 
L 390.288926 -58.207722 
L 388.649256 -58.114341 
L 387.009587 -58.256174 
L 385.369917 -58.386606 
L 383.730248 -58.212713 
L 382.090579 -58.331196 
L 380.450909 -58.482993 
L 378.81124 -58.707167 
L 377.17157 -58.602366 
L 375.531901 -58.492175 
L 373.892231 -58.624788 
L 372.252562 -58.774687 
L 370.612893 -58.798302 
L 368.973223 -58.939455 
L 367.333554 -59.236605 
L 365.693884 -59.064094 
L 364.054215 -58.904596 
L 362.414545 -58.972734 
L 360.774876 -59.063675 
L 359.135207 -59.217305 
L 357.495537 -59.302542 
L 355.855868 -59.280349 
L 354.216198 -59.470869 
L 352.576529 -59.658554 
L 350.93686 -59.831327 
L 349.29719 -59.601797 
L 347.657521 -59.777096 
L 346.017851 -59.910334 
L 344.378182 -60.022903 
L 342.738512 -60.211609 
L 341.098843 -60.379788 
L 339.459174 -60.469902 
L 337.819504 -60.33835 
L 336.179835 -60.366614 
L 334.540165 -60.538896 
L 332.900496 -60.857387 
L 331.260826 -60.775024 
L 329.621157 -61.12519 
L 327.981488 -61.098223 
L 326.341818 -61.104464 
L 324.702149 -61.393955 
L 323.062479 -61.56792 
L 321.42281 -61.379779 
L 319.78314 -61.580664 
L 318.143471 -61.433579 
L 316.503802 -61.570626 
L 314.864132 -61.904441 
L 313.224463 -61.887547 
L 311.584793 -61.663819 
L 309.945124 -61.9282 
L 308.305455 -62.090056 
L 306.665785 -62.595277 
L 305.026116 -62.455327 
L 303.386446 -62.75632 
L 301.746777 -62.727425 
L 300.107107 -62.806966 
L 298.467438 -62.965775 
L 296.827769 -63.034634 
L 295.188099 -63.119244 
L 293.54843 -63.376448 
L 291.90876 -63.713856 
L 290.269091 -64.04016 
L 288.629421 -64.056102 
L 286.989752 -64.263173 
L 285.350083 -64.059362 
L 283.710413 -64.686515 
L 282.070744 -64.769957 
L 280.431074 -64.956689 
L 278.791405 -64.777418 
L 277.151736 -64.949784 
L 275.512066 -65.338161 
L 273.872397 -65.43358 
L 272.232727 -65.426063 
L 270.593058 -65.409782 
L 268.953388 -65.642182 
L 267.313719 -65.720758 
L 265.67405 -66.033666 
L 264.03438 -66.454256 
L 262.394711 -66.48685 
L 260.755041 -66.716223 
L 259.115372 -66.833855 
L 257.475702 -67.661832 
L 255.836033 -67.781941 
L 254.196364 -67.654746 
L 252.556694 -67.781964 
L 250.917025 -67.948925 
L 249.277355 -67.966392 
L 247.637686 -68.243859 
L 245.998017 -68.726963 
L 244.358347 -69.028758 
L 242.718678 -69.312888 
L 241.079008 -69.521951 
L 239.439339 -69.882035 
L 237.799669 -69.883606 
L 236.16 -69.894018 
L 234.520331 -70.480368 
L 232.880661 -70.652604 
L 231.240992 -70.704722 
L 229.601322 -71.034262 
L 227.961653 -71.296931 
L 226.321983 -71.706641 
L 224.682314 -72.01884 
L 223.042645 -72.523234 
L 221.402975 -72.81745 
L 219.763306 -72.924873 
L 218.123636 -73.398278 
L 216.483967 -73.766023 
L 214.844298 -74.236228 
L 213.204628 -74.336998 
L 211.564959 -74.796057 
L 209.925289 -75.004147 
L 208.28562 -75.108963 
L 206.64595 -75.653553 
L 205.006281 -75.790483 
L 203.366612 -75.965656 
L 201.726942 -76.331816 
L 200.087273 -76.292782 
L 198.447603 -77.000556 
L 196.807934 -77.150826 
L 195.168264 -77.512062 
L 193.528595 -78.146659 
L 191.888926 -78.728374 
L 190.249256 -79.092304 
L 188.609587 -79.459262 
L 186.969917 -79.839595 
L 185.330248 -79.954587 
L 183.690579 -80.619132 
L 182.050909 -81.207693 
L 180.41124 -81.786518 
L 178.77157 -82.424414 
L 177.131901 -83.517222 
L 175.492231 -84.26897 
L 173.852562 -84.87916 
L 172.212893 -85.138296 
L 170.573223 -85.974738 
L 168.933554 -85.771246 
L 167.293884 -86.410972 
L 165.654215 -86.407387 
L 164.014545 -86.792968 
L 162.374876 -87.480296 
L 160.735207 -88.104477 
L 159.095537 -89.185194 
L 157.455868 -90.267192 
L 155.816198 -91.712425 
L 154.176529 -92.490034 
L 152.53686 -93.39658 
L 150.89719 -94.527172 
L 149.257521 -94.291397 
L 147.617851 -95.112062 
L 145.978182 -95.851739 
L 144.338512 -96.740115 
L 142.698843 -97.509028 
L 141.059174 -98.568042 
L 139.419504 -99.591934 
L 137.779835 -100.242031 
L 136.140165 -101.546633 
L 134.500496 -102.036534 
L 132.860826 -103.927045 
L 131.221157 -104.792822 
L 129.581488 -105.280476 
L 127.941818 -106.140799 
L 126.302149 -108.211844 
L 124.662479 -109.553397 
L 123.02281 -110.625124 
L 121.38314 -111.337197 
L 119.743471 -112.923775 
L 118.103802 -114.926568 
L 116.464132 -116.528769 
L 114.824463 -118.649163 
L 113.184793 -119.197021 
L 111.545124 -120.970035 
L 109.905455 -123.57968 
L 108.265785 -124.962458 
L 106.626116 -127.171107 
L 104.986446 -130.905279 
L 103.346777 -135.574041 
L 101.707107 -137.069795 
L 100.067438 -138.098178 
L 98.427769 -139.94607 
L 96.788099 -142.695005 
L 95.14843 -147.124421 
L 93.50876 -150.033684 
L 91.869091 -153.510146 
L 90.229421 -156.961574 
L 88.589752 -162.496843 
L 86.950083 -168.625849 
L 85.310413 -176.316285 
L 83.670744 -183.383355 
L 82.031074 -193.038246 
L 80.391405 -201.988228 
L 78.751736 -219.911888 
L 77.112066 -240.792153 
L 75.472397 -276.208573 
L 73.832727 -342.392763 
z
" id="m659b47609b" style="stroke:#f97306;stroke-opacity:0.1;"/>
    </defs>
    <g clip-path="url(#p90ab126370)">
     <use style="fill:#f97306;fill-opacity:0.1;stroke:#f97306;stroke-opacity:0.1;" x="0" xlink:href="#m659b47609b" y="345.6"/>
    </g>
   </g>
   <g id="PolyCollection_2">
    <defs>
     <path d="M 73.832727 -374.830421 
L 73.832727 -374.830421 
L 75.472397 -287.923204 
L 77.112066 -263.7528 
L 78.751736 -237.864056 
L 80.391405 -217.441677 
L 82.031074 -206.63996 
L 83.670744 -195.144112 
L 85.310413 -189.937224 
L 86.950083 -181.936845 
L 88.589752 -175.980474 
L 90.229421 -170.727111 
L 91.869091 -165.410541 
L 93.50876 -161.356119 
L 95.14843 -156.388 
L 96.788099 -152.961975 
L 98.427769 -149.499331 
L 100.067438 -146.158182 
L 101.707107 -144.093543 
L 103.346777 -141.888732 
L 104.986446 -139.724531 
L 106.626116 -138.964632 
L 108.265785 -137.063594 
L 109.905455 -135.377561 
L 111.545124 -134.070972 
L 113.184793 -132.191018 
L 114.824463 -131.080991 
L 116.464132 -128.960477 
L 118.103802 -127.919506 
L 119.743471 -126.494755 
L 121.38314 -125.322799 
L 123.02281 -124.161628 
L 124.662479 -122.662504 
L 126.302149 -121.554787 
L 127.941818 -120.565801 
L 129.581488 -119.797542 
L 131.221157 -118.00532 
L 132.860826 -117.117359 
L 134.500496 -116.114697 
L 136.140165 -114.980576 
L 137.779835 -114.31074 
L 139.419504 -113.938388 
L 141.059174 -113.142063 
L 142.698843 -111.19815 
L 144.338512 -110.601125 
L 145.978182 -110.36308 
L 147.617851 -109.739838 
L 149.257521 -108.934379 
L 150.89719 -107.736654 
L 152.53686 -106.460768 
L 154.176529 -105.58192 
L 155.816198 -104.757866 
L 157.455868 -103.949975 
L 159.095537 -103.683399 
L 160.735207 -103.045167 
L 162.374876 -102.482881 
L 164.014545 -101.666574 
L 165.654215 -100.712343 
L 167.293884 -100.041736 
L 168.933554 -99.45362 
L 170.573223 -98.807171 
L 172.212893 -98.273242 
L 173.852562 -97.42092 
L 175.492231 -97.109598 
L 177.131901 -96.49832 
L 178.77157 -96.088307 
L 180.41124 -95.329475 
L 182.050909 -94.515303 
L 183.690579 -93.769198 
L 185.330248 -93.703495 
L 186.969917 -93.119925 
L 188.609587 -92.691846 
L 190.249256 -92.21675 
L 191.888926 -91.798385 
L 193.528595 -91.274316 
L 195.168264 -90.881049 
L 196.807934 -90.365901 
L 198.447603 -89.962341 
L 200.087273 -89.565782 
L 201.726942 -89.100629 
L 203.366612 -88.314102 
L 205.006281 -87.732758 
L 206.64595 -87.175789 
L 208.28562 -86.646137 
L 209.925289 -86.436413 
L 211.564959 -85.830381 
L 213.204628 -85.405954 
L 214.844298 -84.885421 
L 216.483967 -84.39159 
L 218.123636 -84.261156 
L 219.763306 -84.122593 
L 221.402975 -83.691043 
L 223.042645 -83.174247 
L 224.682314 -82.936265 
L 226.321983 -82.821486 
L 227.961653 -82.305563 
L 229.601322 -82.23074 
L 231.240992 -81.921377 
L 232.880661 -81.433315 
L 234.520331 -81.031434 
L 236.16 -80.690248 
L 237.799669 -80.478881 
L 239.439339 -80.213876 
L 241.079008 -79.671177 
L 242.718678 -79.522125 
L 244.358347 -79.450368 
L 245.998017 -79.222052 
L 247.637686 -78.908685 
L 249.277355 -78.493932 
L 250.917025 -78.237655 
L 252.556694 -78.041664 
L 254.196364 -77.757324 
L 255.836033 -77.550914 
L 257.475702 -77.343972 
L 259.115372 -77.040179 
L 260.755041 -76.743332 
L 262.394711 -76.422602 
L 264.03438 -76.338915 
L 265.67405 -76.165659 
L 267.313719 -76.040439 
L 268.953388 -76.010555 
L 270.593058 -75.757663 
L 272.232727 -75.457934 
L 273.872397 -75.303565 
L 275.512066 -75.24228 
L 277.151736 -75.098419 
L 278.791405 -74.789237 
L 280.431074 -74.603759 
L 282.070744 -74.504336 
L 283.710413 -74.414404 
L 285.350083 -74.173702 
L 286.989752 -74.05509 
L 288.629421 -73.947392 
L 290.269091 -73.819724 
L 291.90876 -73.772741 
L 293.54843 -73.483237 
L 295.188099 -73.26949 
L 296.827769 -72.987235 
L 298.467438 -72.801446 
L 300.107107 -72.739519 
L 301.746777 -72.459725 
L 303.386446 -72.455246 
L 305.026116 -72.218456 
L 306.665785 -71.941151 
L 308.305455 -71.791001 
L 309.945124 -71.487297 
L 311.584793 -71.361293 
L 313.224463 -71.256898 
L 314.864132 -71.068458 
L 316.503802 -71.032157 
L 318.143471 -70.779231 
L 319.78314 -70.692102 
L 321.42281 -70.582365 
L 323.062479 -70.493372 
L 324.702149 -70.207474 
L 326.341818 -69.97023 
L 327.981488 -69.940797 
L 329.621157 -69.680473 
L 331.260826 -69.547286 
L 332.900496 -69.399926 
L 334.540165 -69.17557 
L 336.179835 -69.199908 
L 337.819504 -69.172604 
L 339.459174 -69.270065 
L 341.098843 -69.166793 
L 342.738512 -69.111614 
L 344.378182 -69.020782 
L 346.017851 -68.863157 
L 347.657521 -68.772421 
L 349.29719 -68.500524 
L 350.93686 -68.35213 
L 352.576529 -68.225497 
L 354.216198 -68.208 
L 355.855868 -68.132331 
L 357.495537 -68.081599 
L 359.135207 -68.023517 
L 360.774876 -67.861458 
L 362.414545 -67.707117 
L 364.054215 -67.559265 
L 365.693884 -67.451659 
L 367.333554 -67.244964 
L 368.973223 -67.134023 
L 370.612893 -67.110934 
L 372.252562 -67.0926 
L 373.892231 -67.073865 
L 375.531901 -67.05593 
L 377.17157 -67.063018 
L 378.81124 -66.902527 
L 380.450909 -66.843381 
L 382.090579 -66.747569 
L 383.730248 -66.706256 
L 385.369917 -66.710296 
L 387.009587 -66.657504 
L 388.649256 -66.560158 
L 390.288926 -66.507226 
L 391.928595 -66.430857 
L 393.568264 -66.446303 
L 395.207934 -66.397004 
L 396.847603 -66.326284 
L 398.487273 -66.221787 
L 398.487273 -66.221787 
L 398.487273 -66.221787 
L 396.847603 -66.326284 
L 395.207934 -66.397004 
L 393.568264 -66.446303 
L 391.928595 -66.430857 
L 390.288926 -66.507226 
L 388.649256 -66.560158 
L 387.009587 -66.657504 
L 385.369917 -66.710296 
L 383.730248 -66.706256 
L 382.090579 -66.747569 
L 380.450909 -66.843381 
L 378.81124 -66.902527 
L 377.17157 -67.063018 
L 375.531901 -67.05593 
L 373.892231 -67.073865 
L 372.252562 -67.0926 
L 370.612893 -67.110934 
L 368.973223 -67.134023 
L 367.333554 -67.244964 
L 365.693884 -67.451659 
L 364.054215 -67.559265 
L 362.414545 -67.707117 
L 360.774876 -67.861458 
L 359.135207 -68.023517 
L 357.495537 -68.081599 
L 355.855868 -68.132331 
L 354.216198 -68.208 
L 352.576529 -68.225497 
L 350.93686 -68.35213 
L 349.29719 -68.500524 
L 347.657521 -68.772421 
L 346.017851 -68.863157 
L 344.378182 -69.020782 
L 342.738512 -69.111614 
L 341.098843 -69.166793 
L 339.459174 -69.270065 
L 337.819504 -69.172604 
L 336.179835 -69.199908 
L 334.540165 -69.17557 
L 332.900496 -69.399926 
L 331.260826 -69.547286 
L 329.621157 -69.680473 
L 327.981488 -69.940797 
L 326.341818 -69.97023 
L 324.702149 -70.207474 
L 323.062479 -70.493372 
L 321.42281 -70.582365 
L 319.78314 -70.692102 
L 318.143471 -70.779231 
L 316.503802 -71.032157 
L 314.864132 -71.068458 
L 313.224463 -71.256898 
L 311.584793 -71.361293 
L 309.945124 -71.487297 
L 308.305455 -71.791001 
L 306.665785 -71.941151 
L 305.026116 -72.218456 
L 303.386446 -72.455246 
L 301.746777 -72.459725 
L 300.107107 -72.739519 
L 298.467438 -72.801446 
L 296.827769 -72.987235 
L 295.188099 -73.26949 
L 293.54843 -73.483237 
L 291.90876 -73.772741 
L 290.269091 -73.819724 
L 288.629421 -73.947392 
L 286.989752 -74.05509 
L 285.350083 -74.173702 
L 283.710413 -74.414404 
L 282.070744 -74.504336 
L 280.431074 -74.603759 
L 278.791405 -74.789237 
L 277.151736 -75.098419 
L 275.512066 -75.24228 
L 273.872397 -75.303565 
L 272.232727 -75.457934 
L 270.593058 -75.757663 
L 268.953388 -76.010555 
L 267.313719 -76.040439 
L 265.67405 -76.165659 
L 264.03438 -76.338915 
L 262.394711 -76.422602 
L 260.755041 -76.743332 
L 259.115372 -77.040179 
L 257.475702 -77.343972 
L 255.836033 -77.550914 
L 254.196364 -77.757324 
L 252.556694 -78.041664 
L 250.917025 -78.237655 
L 249.277355 -78.493932 
L 247.637686 -78.908685 
L 245.998017 -79.222052 
L 244.358347 -79.450368 
L 242.718678 -79.522125 
L 241.079008 -79.671177 
L 239.439339 -80.213876 
L 237.799669 -80.478881 
L 236.16 -80.690248 
L 234.520331 -81.031434 
L 232.880661 -81.433315 
L 231.240992 -81.921377 
L 229.601322 -82.23074 
L 227.961653 -82.305563 
L 226.321983 -82.821486 
L 224.682314 -82.936265 
L 223.042645 -83.174247 
L 221.402975 -83.691043 
L 219.763306 -84.122593 
L 218.123636 -84.261156 
L 216.483967 -84.39159 
L 214.844298 -84.885421 
L 213.204628 -85.405954 
L 211.564959 -85.830381 
L 209.925289 -86.436413 
L 208.28562 -86.646137 
L 206.64595 -87.175789 
L 205.006281 -87.732758 
L 203.366612 -88.314102 
L 201.726942 -89.100629 
L 200.087273 -89.565782 
L 198.447603 -89.962341 
L 196.807934 -90.365901 
L 195.168264 -90.881049 
L 193.528595 -91.274316 
L 191.888926 -91.798385 
L 190.249256 -92.21675 
L 188.609587 -92.691846 
L 186.969917 -93.119925 
L 185.330248 -93.703495 
L 183.690579 -93.769198 
L 182.050909 -94.515303 
L 180.41124 -95.329475 
L 178.77157 -96.088307 
L 177.131901 -96.49832 
L 175.492231 -97.109598 
L 173.852562 -97.42092 
L 172.212893 -98.273242 
L 170.573223 -98.807171 
L 168.933554 -99.45362 
L 167.293884 -100.041736 
L 165.654215 -100.712343 
L 164.014545 -101.666574 
L 162.374876 -102.482881 
L 160.735207 -103.045167 
L 159.095537 -103.683399 
L 157.455868 -103.949975 
L 155.816198 -104.757866 
L 154.176529 -105.58192 
L 152.53686 -106.460768 
L 150.89719 -107.736654 
L 149.257521 -108.934379 
L 147.617851 -109.739838 
L 145.978182 -110.36308 
L 144.338512 -110.601125 
L 142.698843 -111.19815 
L 141.059174 -113.142063 
L 139.419504 -113.938388 
L 137.779835 -114.31074 
L 136.140165 -114.980576 
L 134.500496 -116.114697 
L 132.860826 -117.117359 
L 131.221157 -118.00532 
L 129.581488 -119.797542 
L 127.941818 -120.565801 
L 126.302149 -121.554787 
L 124.662479 -122.662504 
L 123.02281 -124.161628 
L 121.38314 -125.322799 
L 119.743471 -126.494755 
L 118.103802 -127.919506 
L 116.464132 -128.960477 
L 114.824463 -131.080991 
L 113.184793 -132.191018 
L 111.545124 -134.070972 
L 109.905455 -135.377561 
L 108.265785 -137.063594 
L 106.626116 -138.964632 
L 104.986446 -139.724531 
L 103.346777 -141.888732 
L 101.707107 -144.093543 
L 100.067438 -146.158182 
L 98.427769 -149.499331 
L 96.788099 -152.961975 
L 95.14843 -156.388 
L 93.50876 -161.356119 
L 91.869091 -165.410541 
L 90.229421 -170.727111 
L 88.589752 -175.980474 
L 86.950083 -181.936845 
L 85.310413 -189.937224 
L 83.670744 -195.144112 
L 82.031074 -206.63996 
L 80.391405 -217.441677 
L 78.751736 -237.864056 
L 77.112066 -263.7528 
L 75.472397 -287.923204 
L 73.832727 -374.830421 
z
" id="m22dde69aea" style="stroke:#5a7d9a;stroke-opacity:0.1;"/>
    </defs>
    <g clip-path="url(#p90ab126370)">
     <use style="fill:#5a7d9a;fill-opacity:0.1;stroke:#5a7d9a;stroke-opacity:0.1;" x="0" xlink:href="#m22dde69aea" y="345.6"/>
    </g>
   </g>
   <g id="PolyCollection_3">
    <defs>
     <path d="M 73.832727 -427.693252 
L 73.832727 -427.693252 
L 75.472397 -308.623239 
L 77.112066 -268.010953 
L 78.751736 -240.679436 
L 80.391405 -234.07585 
L 82.031074 -220.833356 
L 83.670744 -215.82998 
L 85.310413 -204.818356 
L 86.950083 -199.80628 
L 88.589752 -191.279243 
L 90.229421 -187.246988 
L 91.869091 -183.390204 
L 93.50876 -179.13226 
L 95.14843 -178.330623 
L 96.788099 -179.922479 
L 98.427769 -175.859094 
L 100.067438 -172.353893 
L 101.707107 -170.24145 
L 103.346777 -168.069628 
L 104.986446 -165.585535 
L 106.626116 -163.161744 
L 108.265785 -159.996242 
L 109.905455 -160.451498 
L 111.545124 -159.440143 
L 113.184793 -159.211452 
L 114.824463 -158.259296 
L 116.464132 -157.540365 
L 118.103802 -155.746396 
L 119.743471 -154.39827 
L 121.38314 -152.658555 
L 123.02281 -151.340753 
L 124.662479 -150.768011 
L 126.302149 -150.248062 
L 127.941818 -147.545464 
L 129.581488 -148.054404 
L 131.221157 -147.567299 
L 132.860826 -147.10532 
L 134.500496 -145.995423 
L 136.140165 -146.146844 
L 137.779835 -144.139968 
L 139.419504 -143.844726 
L 141.059174 -142.82227 
L 142.698843 -141.967656 
L 144.338512 -142.669864 
L 145.978182 -141.361249 
L 147.617851 -141.481918 
L 149.257521 -141.444313 
L 150.89719 -139.507712 
L 152.53686 -139.297448 
L 154.176529 -138.128877 
L 155.816198 -137.282114 
L 157.455868 -136.226846 
L 159.095537 -136.261178 
L 160.735207 -135.301799 
L 162.374876 -133.915237 
L 164.014545 -133.294753 
L 165.654215 -133.155429 
L 167.293884 -132.088565 
L 168.933554 -132.087342 
L 170.573223 -131.077239 
L 172.212893 -130.709133 
L 173.852562 -130.450023 
L 175.492231 -129.340788 
L 177.131901 -128.388727 
L 178.77157 -128.669225 
L 180.41124 -127.490936 
L 182.050909 -127.168034 
L 183.690579 -127.110513 
L 185.330248 -126.367438 
L 186.969917 -125.444158 
L 188.609587 -124.071233 
L 190.249256 -123.220308 
L 191.888926 -123.618192 
L 193.528595 -122.712704 
L 195.168264 -122.609833 
L 196.807934 -122.023545 
L 198.447603 -121.685534 
L 200.087273 -122.022616 
L 201.726942 -121.863921 
L 203.366612 -121.151413 
L 205.006281 -120.335574 
L 206.64595 -120.259954 
L 208.28562 -119.90688 
L 209.925289 -119.695638 
L 211.564959 -119.691355 
L 213.204628 -119.388398 
L 214.844298 -118.588577 
L 216.483967 -118.204086 
L 218.123636 -118.001232 
L 219.763306 -117.723532 
L 221.402975 -117.422885 
L 223.042645 -116.658845 
L 224.682314 -116.588798 
L 226.321983 -116.437458 
L 227.961653 -116.38731 
L 229.601322 -116.462302 
L 231.240992 -115.855555 
L 232.880661 -115.855751 
L 234.520331 -115.405188 
L 236.16 -114.961188 
L 237.799669 -114.622767 
L 239.439339 -115.122685 
L 241.079008 -114.631788 
L 242.718678 -114.67484 
L 244.358347 -114.598959 
L 245.998017 -114.532787 
L 247.637686 -114.191919 
L 249.277355 -114.184207 
L 250.917025 -113.774135 
L 252.556694 -113.381909 
L 254.196364 -113.263153 
L 255.836033 -113.276731 
L 257.475702 -112.80479 
L 259.115372 -112.404613 
L 260.755041 -111.639682 
L 262.394711 -111.236527 
L 264.03438 -110.554997 
L 265.67405 -110.053521 
L 267.313719 -109.902405 
L 268.953388 -109.909817 
L 270.593058 -109.322758 
L 272.232727 -109.403068 
L 273.872397 -109.339241 
L 275.512066 -109.35376 
L 277.151736 -109.627462 
L 278.791405 -109.368976 
L 280.431074 -109.11179 
L 282.070744 -108.750451 
L 283.710413 -108.479271 
L 285.350083 -108.062918 
L 286.989752 -107.746635 
L 288.629421 -107.115481 
L 290.269091 -106.68163 
L 291.90876 -106.887484 
L 293.54843 -106.898429 
L 295.188099 -107.033251 
L 296.827769 -106.772434 
L 298.467438 -106.522445 
L 300.107107 -106.056101 
L 301.746777 -105.487848 
L 303.386446 -105.41188 
L 305.026116 -105.703157 
L 306.665785 -105.444295 
L 308.305455 -105.462063 
L 309.945124 -104.89161 
L 311.584793 -105.045429 
L 313.224463 -105.293448 
L 314.864132 -105.020117 
L 316.503802 -104.416099 
L 318.143471 -103.797473 
L 319.78314 -103.336745 
L 321.42281 -103.065257 
L 323.062479 -102.956128 
L 324.702149 -102.705566 
L 326.341818 -102.597244 
L 327.981488 -102.792767 
L 329.621157 -102.494082 
L 331.260826 -102.373344 
L 332.900496 -102.090218 
L 334.540165 -102.090376 
L 336.179835 -102.005178 
L 337.819504 -101.592134 
L 339.459174 -101.37813 
L 341.098843 -101.244238 
L 342.738512 -101.223964 
L 344.378182 -100.997611 
L 346.017851 -100.948924 
L 347.657521 -100.592275 
L 349.29719 -100.394312 
L 350.93686 -100.196466 
L 352.576529 -100.074739 
L 354.216198 -100.154033 
L 355.855868 -100.459376 
L 357.495537 -100.273129 
L 359.135207 -100.392531 
L 360.774876 -100.365028 
L 362.414545 -100.31439 
L 364.054215 -100.085392 
L 365.693884 -100.066869 
L 367.333554 -99.761748 
L 368.973223 -99.87572 
L 370.612893 -99.795481 
L 372.252562 -99.691757 
L 373.892231 -99.34312 
L 375.531901 -99.380609 
L 377.17157 -98.88463 
L 378.81124 -98.979077 
L 380.450909 -99.076511 
L 382.090579 -98.816095 
L 383.730248 -98.878132 
L 385.369917 -98.680697 
L 387.009587 -98.407503 
L 388.649256 -98.433321 
L 390.288926 -98.407522 
L 391.928595 -98.131105 
L 393.568264 -98.18723 
L 395.207934 -98.061474 
L 396.847603 -97.798852 
L 398.487273 -97.760964 
L 398.487273 -97.760964 
L 398.487273 -97.760964 
L 396.847603 -97.798852 
L 395.207934 -98.061474 
L 393.568264 -98.18723 
L 391.928595 -98.131105 
L 390.288926 -98.407522 
L 388.649256 -98.433321 
L 387.009587 -98.407503 
L 385.369917 -98.680697 
L 383.730248 -98.878132 
L 382.090579 -98.816095 
L 380.450909 -99.076511 
L 378.81124 -98.979077 
L 377.17157 -98.88463 
L 375.531901 -99.380609 
L 373.892231 -99.34312 
L 372.252562 -99.691757 
L 370.612893 -99.795481 
L 368.973223 -99.87572 
L 367.333554 -99.761748 
L 365.693884 -100.066869 
L 364.054215 -100.085392 
L 362.414545 -100.31439 
L 360.774876 -100.365028 
L 359.135207 -100.392531 
L 357.495537 -100.273129 
L 355.855868 -100.459376 
L 354.216198 -100.154033 
L 352.576529 -100.074739 
L 350.93686 -100.196466 
L 349.29719 -100.394312 
L 347.657521 -100.592275 
L 346.017851 -100.948924 
L 344.378182 -100.997611 
L 342.738512 -101.223964 
L 341.098843 -101.244238 
L 339.459174 -101.37813 
L 337.819504 -101.592134 
L 336.179835 -102.005178 
L 334.540165 -102.090376 
L 332.900496 -102.090218 
L 331.260826 -102.373344 
L 329.621157 -102.494082 
L 327.981488 -102.792767 
L 326.341818 -102.597244 
L 324.702149 -102.705566 
L 323.062479 -102.956128 
L 321.42281 -103.065257 
L 319.78314 -103.336745 
L 318.143471 -103.797473 
L 316.503802 -104.416099 
L 314.864132 -105.020117 
L 313.224463 -105.293448 
L 311.584793 -105.045429 
L 309.945124 -104.89161 
L 308.305455 -105.462063 
L 306.665785 -105.444295 
L 305.026116 -105.703157 
L 303.386446 -105.41188 
L 301.746777 -105.487848 
L 300.107107 -106.056101 
L 298.467438 -106.522445 
L 296.827769 -106.772434 
L 295.188099 -107.033251 
L 293.54843 -106.898429 
L 291.90876 -106.887484 
L 290.269091 -106.68163 
L 288.629421 -107.115481 
L 286.989752 -107.746635 
L 285.350083 -108.062918 
L 283.710413 -108.479271 
L 282.070744 -108.750451 
L 280.431074 -109.11179 
L 278.791405 -109.368976 
L 277.151736 -109.627462 
L 275.512066 -109.35376 
L 273.872397 -109.339241 
L 272.232727 -109.403068 
L 270.593058 -109.322758 
L 268.953388 -109.909817 
L 267.313719 -109.902405 
L 265.67405 -110.053521 
L 264.03438 -110.554997 
L 262.394711 -111.236527 
L 260.755041 -111.639682 
L 259.115372 -112.404613 
L 257.475702 -112.80479 
L 255.836033 -113.276731 
L 254.196364 -113.263153 
L 252.556694 -113.381909 
L 250.917025 -113.774135 
L 249.277355 -114.184207 
L 247.637686 -114.191919 
L 245.998017 -114.532787 
L 244.358347 -114.598959 
L 242.718678 -114.67484 
L 241.079008 -114.631788 
L 239.439339 -115.122685 
L 237.799669 -114.622767 
L 236.16 -114.961188 
L 234.520331 -115.405188 
L 232.880661 -115.855751 
L 231.240992 -115.855555 
L 229.601322 -116.462302 
L 227.961653 -116.38731 
L 226.321983 -116.437458 
L 224.682314 -116.588798 
L 223.042645 -116.658845 
L 221.402975 -117.422885 
L 219.763306 -117.723532 
L 218.123636 -118.001232 
L 216.483967 -118.204086 
L 214.844298 -118.588577 
L 213.204628 -119.388398 
L 211.564959 -119.691355 
L 209.925289 -119.695638 
L 208.28562 -119.90688 
L 206.64595 -120.259954 
L 205.006281 -120.335574 
L 203.366612 -121.151413 
L 201.726942 -121.863921 
L 200.087273 -122.022616 
L 198.447603 -121.685534 
L 196.807934 -122.023545 
L 195.168264 -122.609833 
L 193.528595 -122.712704 
L 191.888926 -123.618192 
L 190.249256 -123.220308 
L 188.609587 -124.071233 
L 186.969917 -125.444158 
L 185.330248 -126.367438 
L 183.690579 -127.110513 
L 182.050909 -127.168034 
L 180.41124 -127.490936 
L 178.77157 -128.669225 
L 177.131901 -128.388727 
L 175.492231 -129.340788 
L 173.852562 -130.450023 
L 172.212893 -130.709133 
L 170.573223 -131.077239 
L 168.933554 -132.087342 
L 167.293884 -132.088565 
L 165.654215 -133.155429 
L 164.014545 -133.294753 
L 162.374876 -133.915237 
L 160.735207 -135.301799 
L 159.095537 -136.261178 
L 157.455868 -136.226846 
L 155.816198 -137.282114 
L 154.176529 -138.128877 
L 152.53686 -139.297448 
L 150.89719 -139.507712 
L 149.257521 -141.444313 
L 147.617851 -141.481918 
L 145.978182 -141.361249 
L 144.338512 -142.669864 
L 142.698843 -141.967656 
L 141.059174 -142.82227 
L 139.419504 -143.844726 
L 137.779835 -144.139968 
L 136.140165 -146.146844 
L 134.500496 -145.995423 
L 132.860826 -147.10532 
L 131.221157 -147.567299 
L 129.581488 -148.054404 
L 127.941818 -147.545464 
L 126.302149 -150.248062 
L 124.662479 -150.768011 
L 123.02281 -151.340753 
L 121.38314 -152.658555 
L 119.743471 -154.39827 
L 118.103802 -155.746396 
L 116.464132 -157.540365 
L 114.824463 -158.259296 
L 113.184793 -159.211452 
L 111.545124 -159.440143 
L 109.905455 -160.451498 
L 108.265785 -159.996242 
L 106.626116 -163.161744 
L 104.986446 -165.585535 
L 103.346777 -168.069628 
L 101.707107 -170.24145 
L 100.067438 -172.353893 
L 98.427769 -175.859094 
L 96.788099 -179.922479 
L 95.14843 -178.330623 
L 93.50876 -179.13226 
L 91.869091 -183.390204 
L 90.229421 -187.246988 
L 88.589752 -191.279243 
L 86.950083 -199.80628 
L 85.310413 -204.818356 
L 83.670744 -215.82998 
L 82.031074 -220.833356 
L 80.391405 -234.07585 
L 78.751736 -240.679436 
L 77.112066 -268.010953 
L 75.472397 -308.623239 
L 73.832727 -427.693252 
z
" id="m4797c17e19" style="stroke:#40a368;stroke-opacity:0.1;"/>
    </defs>
    <g clip-path="url(#p90ab126370)">
     <use style="fill:#40a368;fill-opacity:0.1;stroke:#40a368;stroke-opacity:0.1;" x="0" xlink:href="#m4797c17e19" y="345.6"/>
    </g>
   </g>
   <g id="matplotlib.axis_1">
    <g id="xtick_1">
     <g id="line2d_1">
      <defs>
       <path d="M 0 0 
L 0 3.5 
" id="m75e9618823" style="stroke:#000000;stroke-width:0.8;"/>
      </defs>
      <g>
       <use style="stroke:#000000;stroke-width:0.8;" x="73.832727" xlink:href="#m75e9618823" y="307.584"/>
      </g>
     </g>
     <g id="text_1">
      <!-- 0 -->
      <g transform="translate(68.742727 326.7415)scale(0.16 -0.16)">
       <defs>
        <path d="M 2034 4250 
Q 1547 4250 1301 3770 
Q 1056 3291 1056 2328 
Q 1056 1369 1301 889 
Q 1547 409 2034 409 
Q 2525 409 2770 889 
Q 3016 1369 3016 2328 
Q 3016 3291 2770 3770 
Q 2525 4250 2034 4250 
z
M 2034 4750 
Q 2819 4750 3233 4129 
Q 3647 3509 3647 2328 
Q 3647 1150 3233 529 
Q 2819 -91 2034 -91 
Q 1250 -91 836 529 
Q 422 1150 422 2328 
Q 422 3509 836 4129 
Q 1250 4750 2034 4750 
z
" id="DejaVuSans-30" transform="scale(0.015625)"/>
       </defs>
       <use xlink:href="#DejaVuSans-30"/>
      </g>
     </g>
    </g>
    <g id="xtick_2">
     <g id="line2d_2">
      <g>
       <use style="stroke:#000000;stroke-width:0.8;" x="139.419504" xlink:href="#m75e9618823" y="307.584"/>
      </g>
     </g>
     <g id="text_2">
      <!-- 200 -->
      <g transform="translate(124.149504 326.7415)scale(0.16 -0.16)">
       <defs>
        <path d="M 1228 531 
L 3431 531 
L 3431 0 
L 469 0 
L 469 531 
Q 828 903 1448 1529 
Q 2069 2156 2228 2338 
Q 2531 2678 2651 2914 
Q 2772 3150 2772 3378 
Q 2772 3750 2511 3984 
Q 2250 4219 1831 4219 
Q 1534 4219 1204 4116 
Q 875 4013 500 3803 
L 500 4441 
Q 881 4594 1212 4672 
Q 1544 4750 1819 4750 
Q 2544 4750 2975 4387 
Q 3406 4025 3406 3419 
Q 3406 3131 3298 2873 
Q 3191 2616 2906 2266 
Q 2828 2175 2409 1742 
Q 1991 1309 1228 531 
z
" id="DejaVuSans-32" transform="scale(0.015625)"/>
       </defs>
       <use xlink:href="#DejaVuSans-32"/>
       <use x="63.623047" xlink:href="#DejaVuSans-30"/>
       <use x="127.246094" xlink:href="#DejaVuSans-30"/>
      </g>
     </g>
    </g>
    <g id="xtick_3">
     <g id="line2d_3">
      <g>
       <use style="stroke:#000000;stroke-width:0.8;" x="205.006281" xlink:href="#m75e9618823" y="307.584"/>
      </g>
     </g>
     <g id="text_3">
      <!-- 400 -->
      <g transform="translate(189.736281 326.7415)scale(0.16 -0.16)">
       <defs>
        <path d="M 2419 4116 
L 825 1625 
L 2419 1625 
L 2419 4116 
z
M 2253 4666 
L 3047 4666 
L 3047 1625 
L 3713 1625 
L 3713 1100 
L 3047 1100 
L 3047 0 
L 2419 0 
L 2419 1100 
L 313 1100 
L 313 1709 
L 2253 4666 
z
" id="DejaVuSans-34" transform="scale(0.015625)"/>
       </defs>
       <use xlink:href="#DejaVuSans-34"/>
       <use x="63.623047" xlink:href="#DejaVuSans-30"/>
       <use x="127.246094" xlink:href="#DejaVuSans-30"/>
      </g>
     </g>
    </g>
    <g id="xtick_4">
     <g id="line2d_4">
      <g>
       <use style="stroke:#000000;stroke-width:0.8;" x="270.593058" xlink:href="#m75e9618823" y="307.584"/>
      </g>
     </g>
     <g id="text_4">
      <!-- 600 -->
      <g transform="translate(255.323058 326.7415)scale(0.16 -0.16)">
       <defs>
        <path d="M 2113 2584 
Q 1688 2584 1439 2293 
Q 1191 2003 1191 1497 
Q 1191 994 1439 701 
Q 1688 409 2113 409 
Q 2538 409 2786 701 
Q 3034 994 3034 1497 
Q 3034 2003 2786 2293 
Q 2538 2584 2113 2584 
z
M 3366 4563 
L 3366 3988 
Q 3128 4100 2886 4159 
Q 2644 4219 2406 4219 
Q 1781 4219 1451 3797 
Q 1122 3375 1075 2522 
Q 1259 2794 1537 2939 
Q 1816 3084 2150 3084 
Q 2853 3084 3261 2657 
Q 3669 2231 3669 1497 
Q 3669 778 3244 343 
Q 2819 -91 2113 -91 
Q 1303 -91 875 529 
Q 447 1150 447 2328 
Q 447 3434 972 4092 
Q 1497 4750 2381 4750 
Q 2619 4750 2861 4703 
Q 3103 4656 3366 4563 
z
" id="DejaVuSans-36" transform="scale(0.015625)"/>
       </defs>
       <use xlink:href="#DejaVuSans-36"/>
       <use x="63.623047" xlink:href="#DejaVuSans-30"/>
       <use x="127.246094" xlink:href="#DejaVuSans-30"/>
      </g>
     </g>
    </g>
    <g id="xtick_5">
     <g id="line2d_5">
      <g>
       <use style="stroke:#000000;stroke-width:0.8;" x="336.179835" xlink:href="#m75e9618823" y="307.584"/>
      </g>
     </g>
     <g id="text_5">
      <!-- 800 -->
      <g transform="translate(320.909835 326.7415)scale(0.16 -0.16)">
       <defs>
        <path d="M 2034 2216 
Q 1584 2216 1326 1975 
Q 1069 1734 1069 1313 
Q 1069 891 1326 650 
Q 1584 409 2034 409 
Q 2484 409 2743 651 
Q 3003 894 3003 1313 
Q 3003 1734 2745 1975 
Q 2488 2216 2034 2216 
z
M 1403 2484 
Q 997 2584 770 2862 
Q 544 3141 544 3541 
Q 544 4100 942 4425 
Q 1341 4750 2034 4750 
Q 2731 4750 3128 4425 
Q 3525 4100 3525 3541 
Q 3525 3141 3298 2862 
Q 3072 2584 2669 2484 
Q 3125 2378 3379 2068 
Q 3634 1759 3634 1313 
Q 3634 634 3220 271 
Q 2806 -91 2034 -91 
Q 1263 -91 848 271 
Q 434 634 434 1313 
Q 434 1759 690 2068 
Q 947 2378 1403 2484 
z
M 1172 3481 
Q 1172 3119 1398 2916 
Q 1625 2713 2034 2713 
Q 2441 2713 2670 2916 
Q 2900 3119 2900 3481 
Q 2900 3844 2670 4047 
Q 2441 4250 2034 4250 
Q 1625 4250 1398 4047 
Q 1172 3844 1172 3481 
z
" id="DejaVuSans-38" transform="scale(0.015625)"/>
       </defs>
       <use xlink:href="#DejaVuSans-38"/>
       <use x="63.623047" xlink:href="#DejaVuSans-30"/>
       <use x="127.246094" xlink:href="#DejaVuSans-30"/>
      </g>
     </g>
    </g>
    <g id="xtick_6">
     <g id="line2d_6">
      <g>
       <use style="stroke:#000000;stroke-width:0.8;" x="401.766612" xlink:href="#m75e9618823" y="307.584"/>
      </g>
     </g>
     <g id="text_6">
      <!-- 1000 -->
      <g transform="translate(381.406612 326.7415)scale(0.16 -0.16)">
       <defs>
        <path d="M 794 531 
L 1825 531 
L 1825 4091 
L 703 3866 
L 703 4441 
L 1819 4666 
L 2450 4666 
L 2450 531 
L 3481 531 
L 3481 0 
L 794 0 
L 794 531 
z
" id="DejaVuSans-31" transform="scale(0.015625)"/>
       </defs>
       <use xlink:href="#DejaVuSans-31"/>
       <use x="63.623047" xlink:href="#DejaVuSans-30"/>
       <use x="127.246094" xlink:href="#DejaVuSans-30"/>
       <use x="190.869141" xlink:href="#DejaVuSans-30"/>
      </g>
     </g>
    </g>
    <g id="text_7">
     <!-- Number of resamples -->
     <g transform="translate(149.94125 346.2265)scale(0.16 -0.16)">
      <defs>
       <path d="M 628 4666 
L 1478 4666 
L 3547 763 
L 3547 4666 
L 4159 4666 
L 4159 0 
L 3309 0 
L 1241 3903 
L 1241 0 
L 628 0 
L 628 4666 
z
" id="DejaVuSans-4e" transform="scale(0.015625)"/>
       <path d="M 544 1381 
L 544 3500 
L 1119 3500 
L 1119 1403 
Q 1119 906 1312 657 
Q 1506 409 1894 409 
Q 2359 409 2629 706 
Q 2900 1003 2900 1516 
L 2900 3500 
L 3475 3500 
L 3475 0 
L 2900 0 
L 2900 538 
Q 2691 219 2414 64 
Q 2138 -91 1772 -91 
Q 1169 -91 856 284 
Q 544 659 544 1381 
z
M 1991 3584 
L 1991 3584 
z
" id="DejaVuSans-75" transform="scale(0.015625)"/>
       <path d="M 3328 2828 
Q 3544 3216 3844 3400 
Q 4144 3584 4550 3584 
Q 5097 3584 5394 3201 
Q 5691 2819 5691 2113 
L 5691 0 
L 5113 0 
L 5113 2094 
Q 5113 2597 4934 2840 
Q 4756 3084 4391 3084 
Q 3944 3084 3684 2787 
Q 3425 2491 3425 1978 
L 3425 0 
L 2847 0 
L 2847 2094 
Q 2847 2600 2669 2842 
Q 2491 3084 2119 3084 
Q 1678 3084 1418 2786 
Q 1159 2488 1159 1978 
L 1159 0 
L 581 0 
L 581 3500 
L 1159 3500 
L 1159 2956 
Q 1356 3278 1631 3431 
Q 1906 3584 2284 3584 
Q 2666 3584 2933 3390 
Q 3200 3197 3328 2828 
z
" id="DejaVuSans-6d" transform="scale(0.015625)"/>
       <path d="M 3116 1747 
Q 3116 2381 2855 2742 
Q 2594 3103 2138 3103 
Q 1681 3103 1420 2742 
Q 1159 2381 1159 1747 
Q 1159 1113 1420 752 
Q 1681 391 2138 391 
Q 2594 391 2855 752 
Q 3116 1113 3116 1747 
z
M 1159 2969 
Q 1341 3281 1617 3432 
Q 1894 3584 2278 3584 
Q 2916 3584 3314 3078 
Q 3713 2572 3713 1747 
Q 3713 922 3314 415 
Q 2916 -91 2278 -91 
Q 1894 -91 1617 61 
Q 1341 213 1159 525 
L 1159 0 
L 581 0 
L 581 4863 
L 1159 4863 
L 1159 2969 
z
" id="DejaVuSans-62" transform="scale(0.015625)"/>
       <path d="M 3597 1894 
L 3597 1613 
L 953 1613 
Q 991 1019 1311 708 
Q 1631 397 2203 397 
Q 2534 397 2845 478 
Q 3156 559 3463 722 
L 3463 178 
Q 3153 47 2828 -22 
Q 2503 -91 2169 -91 
Q 1331 -91 842 396 
Q 353 884 353 1716 
Q 353 2575 817 3079 
Q 1281 3584 2069 3584 
Q 2775 3584 3186 3129 
Q 3597 2675 3597 1894 
z
M 3022 2063 
Q 3016 2534 2758 2815 
Q 2500 3097 2075 3097 
Q 1594 3097 1305 2825 
Q 1016 2553 972 2059 
L 3022 2063 
z
" id="DejaVuSans-65" transform="scale(0.015625)"/>
       <path d="M 2631 2963 
Q 2534 3019 2420 3045 
Q 2306 3072 2169 3072 
Q 1681 3072 1420 2755 
Q 1159 2438 1159 1844 
L 1159 0 
L 581 0 
L 581 3500 
L 1159 3500 
L 1159 2956 
Q 1341 3275 1631 3429 
Q 1922 3584 2338 3584 
Q 2397 3584 2469 3576 
Q 2541 3569 2628 3553 
L 2631 2963 
z
" id="DejaVuSans-72" transform="scale(0.015625)"/>
       <path id="DejaVuSans-20" transform="scale(0.015625)"/>
       <path d="M 1959 3097 
Q 1497 3097 1228 2736 
Q 959 2375 959 1747 
Q 959 1119 1226 758 
Q 1494 397 1959 397 
Q 2419 397 2687 759 
Q 2956 1122 2956 1747 
Q 2956 2369 2687 2733 
Q 2419 3097 1959 3097 
z
M 1959 3584 
Q 2709 3584 3137 3096 
Q 3566 2609 3566 1747 
Q 3566 888 3137 398 
Q 2709 -91 1959 -91 
Q 1206 -91 779 398 
Q 353 888 353 1747 
Q 353 2609 779 3096 
Q 1206 3584 1959 3584 
z
" id="DejaVuSans-6f" transform="scale(0.015625)"/>
       <path d="M 2375 4863 
L 2375 4384 
L 1825 4384 
Q 1516 4384 1395 4259 
Q 1275 4134 1275 3809 
L 1275 3500 
L 2222 3500 
L 2222 3053 
L 1275 3053 
L 1275 0 
L 697 0 
L 697 3053 
L 147 3053 
L 147 3500 
L 697 3500 
L 697 3744 
Q 697 4328 969 4595 
Q 1241 4863 1831 4863 
L 2375 4863 
z
" id="DejaVuSans-66" transform="scale(0.015625)"/>
       <path d="M 2834 3397 
L 2834 2853 
Q 2591 2978 2328 3040 
Q 2066 3103 1784 3103 
Q 1356 3103 1142 2972 
Q 928 2841 928 2578 
Q 928 2378 1081 2264 
Q 1234 2150 1697 2047 
L 1894 2003 
Q 2506 1872 2764 1633 
Q 3022 1394 3022 966 
Q 3022 478 2636 193 
Q 2250 -91 1575 -91 
Q 1294 -91 989 -36 
Q 684 19 347 128 
L 347 722 
Q 666 556 975 473 
Q 1284 391 1588 391 
Q 1994 391 2212 530 
Q 2431 669 2431 922 
Q 2431 1156 2273 1281 
Q 2116 1406 1581 1522 
L 1381 1569 
Q 847 1681 609 1914 
Q 372 2147 372 2553 
Q 372 3047 722 3315 
Q 1072 3584 1716 3584 
Q 2034 3584 2315 3537 
Q 2597 3491 2834 3397 
z
" id="DejaVuSans-73" transform="scale(0.015625)"/>
       <path d="M 2194 1759 
Q 1497 1759 1228 1600 
Q 959 1441 959 1056 
Q 959 750 1161 570 
Q 1363 391 1709 391 
Q 2188 391 2477 730 
Q 2766 1069 2766 1631 
L 2766 1759 
L 2194 1759 
z
M 3341 1997 
L 3341 0 
L 2766 0 
L 2766 531 
Q 2569 213 2275 61 
Q 1981 -91 1556 -91 
Q 1019 -91 701 211 
Q 384 513 384 1019 
Q 384 1609 779 1909 
Q 1175 2209 1959 2209 
L 2766 2209 
L 2766 2266 
Q 2766 2663 2505 2880 
Q 2244 3097 1772 3097 
Q 1472 3097 1187 3025 
Q 903 2953 641 2809 
L 641 3341 
Q 956 3463 1253 3523 
Q 1550 3584 1831 3584 
Q 2591 3584 2966 3190 
Q 3341 2797 3341 1997 
z
" id="DejaVuSans-61" transform="scale(0.015625)"/>
       <path d="M 1159 525 
L 1159 -1331 
L 581 -1331 
L 581 3500 
L 1159 3500 
L 1159 2969 
Q 1341 3281 1617 3432 
Q 1894 3584 2278 3584 
Q 2916 3584 3314 3078 
Q 3713 2572 3713 1747 
Q 3713 922 3314 415 
Q 2916 -91 2278 -91 
Q 1894 -91 1617 61 
Q 1341 213 1159 525 
z
M 3116 1747 
Q 3116 2381 2855 2742 
Q 2594 3103 2138 3103 
Q 1681 3103 1420 2742 
Q 1159 2381 1159 1747 
Q 1159 1113 1420 752 
Q 1681 391 2138 391 
Q 2594 391 2855 752 
Q 3116 1113 3116 1747 
z
" id="DejaVuSans-70" transform="scale(0.015625)"/>
       <path d="M 603 4863 
L 1178 4863 
L 1178 0 
L 603 0 
L 603 4863 
z
" id="DejaVuSans-6c" transform="scale(0.015625)"/>
      </defs>
      <use xlink:href="#DejaVuSans-4e"/>
      <use x="74.804688" xlink:href="#DejaVuSans-75"/>
      <use x="138.183594" xlink:href="#DejaVuSans-6d"/>
      <use x="235.595703" xlink:href="#DejaVuSans-62"/>
      <use x="299.072266" xlink:href="#DejaVuSans-65"/>
      <use x="360.595703" xlink:href="#DejaVuSans-72"/>
      <use x="401.708984" xlink:href="#DejaVuSans-20"/>
      <use x="433.496094" xlink:href="#DejaVuSans-6f"/>
      <use x="494.677734" xlink:href="#DejaVuSans-66"/>
      <use x="529.882812" xlink:href="#DejaVuSans-20"/>
      <use x="561.669922" xlink:href="#DejaVuSans-72"/>
      <use x="600.533203" xlink:href="#DejaVuSans-65"/>
      <use x="662.056641" xlink:href="#DejaVuSans-73"/>
      <use x="714.15625" xlink:href="#DejaVuSans-61"/>
      <use x="775.435547" xlink:href="#DejaVuSans-6d"/>
      <use x="872.847656" xlink:href="#DejaVuSans-70"/>
      <use x="936.324219" xlink:href="#DejaVuSans-6c"/>
      <use x="964.107422" xlink:href="#DejaVuSans-65"/>
      <use x="1025.630859" xlink:href="#DejaVuSans-73"/>
     </g>
    </g>
   </g>
   <g id="matplotlib.axis_2">
    <g id="ytick_1">
     <g id="line2d_7">
      <defs>
       <path d="M 0 0 
L -3.5 0 
" id="mf9998c6516" style="stroke:#000000;stroke-width:0.8;"/>
      </defs>
      <g>
       <use style="stroke:#000000;stroke-width:0.8;" x="57.6" xlink:href="#mf9998c6516" y="307.584"/>
      </g>
     </g>
     <g id="text_8">
      <!-- 0.00 -->
      <g transform="translate(14.975 313.66275)scale(0.16 -0.16)">
       <defs>
        <path d="M 684 794 
L 1344 794 
L 1344 0 
L 684 0 
L 684 794 
z
" id="DejaVuSans-2e" transform="scale(0.015625)"/>
       </defs>
       <use xlink:href="#DejaVuSans-30"/>
       <use x="63.623047" xlink:href="#DejaVuSans-2e"/>
       <use x="95.410156" xlink:href="#DejaVuSans-30"/>
       <use x="159.033203" xlink:href="#DejaVuSans-30"/>
      </g>
     </g>
    </g>
    <g id="ytick_2">
     <g id="line2d_8">
      <g>
       <use style="stroke:#000000;stroke-width:0.8;" x="57.6" xlink:href="#mf9998c6516" y="247.104"/>
      </g>
     </g>
     <g id="text_9">
      <!-- 0.05 -->
      <g transform="translate(14.975 253.18275)scale(0.16 -0.16)">
       <defs>
        <path d="M 691 4666 
L 3169 4666 
L 3169 4134 
L 1269 4134 
L 1269 2991 
Q 1406 3038 1543 3061 
Q 1681 3084 1819 3084 
Q 2600 3084 3056 2656 
Q 3513 2228 3513 1497 
Q 3513 744 3044 326 
Q 2575 -91 1722 -91 
Q 1428 -91 1123 -41 
Q 819 9 494 109 
L 494 744 
Q 775 591 1075 516 
Q 1375 441 1709 441 
Q 2250 441 2565 725 
Q 2881 1009 2881 1497 
Q 2881 1984 2565 2268 
Q 2250 2553 1709 2553 
Q 1456 2553 1204 2497 
Q 953 2441 691 2322 
L 691 4666 
z
" id="DejaVuSans-35" transform="scale(0.015625)"/>
       </defs>
       <use xlink:href="#DejaVuSans-30"/>
       <use x="63.623047" xlink:href="#DejaVuSans-2e"/>
       <use x="95.410156" xlink:href="#DejaVuSans-30"/>
       <use x="159.033203" xlink:href="#DejaVuSans-35"/>
      </g>
     </g>
    </g>
    <g id="ytick_3">
     <g id="line2d_9">
      <g>
       <use style="stroke:#000000;stroke-width:0.8;" x="57.6" xlink:href="#mf9998c6516" y="186.624"/>
      </g>
     </g>
     <g id="text_10">
      <!-- 0.10 -->
      <g transform="translate(14.975 192.70275)scale(0.16 -0.16)">
       <use xlink:href="#DejaVuSans-30"/>
       <use x="63.623047" xlink:href="#DejaVuSans-2e"/>
       <use x="95.410156" xlink:href="#DejaVuSans-31"/>
       <use x="159.033203" xlink:href="#DejaVuSans-30"/>
      </g>
     </g>
    </g>
    <g id="ytick_4">
     <g id="line2d_10">
      <g>
       <use style="stroke:#000000;stroke-width:0.8;" x="57.6" xlink:href="#mf9998c6516" y="126.144"/>
      </g>
     </g>
     <g id="text_11">
      <!-- 0.15 -->
      <g transform="translate(14.975 132.22275)scale(0.16 -0.16)">
       <use xlink:href="#DejaVuSans-30"/>
       <use x="63.623047" xlink:href="#DejaVuSans-2e"/>
       <use x="95.410156" xlink:href="#DejaVuSans-31"/>
       <use x="159.033203" xlink:href="#DejaVuSans-35"/>
      </g>
     </g>
    </g>
    <g id="ytick_5">
     <g id="line2d_11">
      <g>
       <use style="stroke:#000000;stroke-width:0.8;" x="57.6" xlink:href="#mf9998c6516" y="65.664"/>
      </g>
     </g>
     <g id="text_12">
      <!-- 0.20 -->
      <g transform="translate(14.975 71.74275)scale(0.16 -0.16)">
       <use xlink:href="#DejaVuSans-30"/>
       <use x="63.623047" xlink:href="#DejaVuSans-2e"/>
       <use x="95.410156" xlink:href="#DejaVuSans-32"/>
       <use x="159.033203" xlink:href="#DejaVuSans-30"/>
      </g>
     </g>
    </g>
    <g id="text_13">
     <!-- Sampling Errors -->
     <g transform="translate(7.6475 238.1805)rotate(-90)scale(0.16 -0.16)">
      <defs>
       <path d="M 3425 4513 
L 3425 3897 
Q 3066 4069 2747 4153 
Q 2428 4238 2131 4238 
Q 1616 4238 1336 4038 
Q 1056 3838 1056 3469 
Q 1056 3159 1242 3001 
Q 1428 2844 1947 2747 
L 2328 2669 
Q 3034 2534 3370 2195 
Q 3706 1856 3706 1288 
Q 3706 609 3251 259 
Q 2797 -91 1919 -91 
Q 1588 -91 1214 -16 
Q 841 59 441 206 
L 441 856 
Q 825 641 1194 531 
Q 1563 422 1919 422 
Q 2459 422 2753 634 
Q 3047 847 3047 1241 
Q 3047 1584 2836 1778 
Q 2625 1972 2144 2069 
L 1759 2144 
Q 1053 2284 737 2584 
Q 422 2884 422 3419 
Q 422 4038 858 4394 
Q 1294 4750 2059 4750 
Q 2388 4750 2728 4690 
Q 3069 4631 3425 4513 
z
" id="DejaVuSans-53" transform="scale(0.015625)"/>
       <path d="M 603 3500 
L 1178 3500 
L 1178 0 
L 603 0 
L 603 3500 
z
M 603 4863 
L 1178 4863 
L 1178 4134 
L 603 4134 
L 603 4863 
z
" id="DejaVuSans-69" transform="scale(0.015625)"/>
       <path d="M 3513 2113 
L 3513 0 
L 2938 0 
L 2938 2094 
Q 2938 2591 2744 2837 
Q 2550 3084 2163 3084 
Q 1697 3084 1428 2787 
Q 1159 2491 1159 1978 
L 1159 0 
L 581 0 
L 581 3500 
L 1159 3500 
L 1159 2956 
Q 1366 3272 1645 3428 
Q 1925 3584 2291 3584 
Q 2894 3584 3203 3211 
Q 3513 2838 3513 2113 
z
" id="DejaVuSans-6e" transform="scale(0.015625)"/>
       <path d="M 2906 1791 
Q 2906 2416 2648 2759 
Q 2391 3103 1925 3103 
Q 1463 3103 1205 2759 
Q 947 2416 947 1791 
Q 947 1169 1205 825 
Q 1463 481 1925 481 
Q 2391 481 2648 825 
Q 2906 1169 2906 1791 
z
M 3481 434 
Q 3481 -459 3084 -895 
Q 2688 -1331 1869 -1331 
Q 1566 -1331 1297 -1286 
Q 1028 -1241 775 -1147 
L 775 -588 
Q 1028 -725 1275 -790 
Q 1522 -856 1778 -856 
Q 2344 -856 2625 -561 
Q 2906 -266 2906 331 
L 2906 616 
Q 2728 306 2450 153 
Q 2172 0 1784 0 
Q 1141 0 747 490 
Q 353 981 353 1791 
Q 353 2603 747 3093 
Q 1141 3584 1784 3584 
Q 2172 3584 2450 3431 
Q 2728 3278 2906 2969 
L 2906 3500 
L 3481 3500 
L 3481 434 
z
" id="DejaVuSans-67" transform="scale(0.015625)"/>
       <path d="M 628 4666 
L 3578 4666 
L 3578 4134 
L 1259 4134 
L 1259 2753 
L 3481 2753 
L 3481 2222 
L 1259 2222 
L 1259 531 
L 3634 531 
L 3634 0 
L 628 0 
L 628 4666 
z
" id="DejaVuSans-45" transform="scale(0.015625)"/>
      </defs>
      <use xlink:href="#DejaVuSans-53"/>
      <use x="63.476562" xlink:href="#DejaVuSans-61"/>
      <use x="124.755859" xlink:href="#DejaVuSans-6d"/>
      <use x="222.167969" xlink:href="#DejaVuSans-70"/>
      <use x="285.644531" xlink:href="#DejaVuSans-6c"/>
      <use x="313.427734" xlink:href="#DejaVuSans-69"/>
      <use x="341.210938" xlink:href="#DejaVuSans-6e"/>
      <use x="404.589844" xlink:href="#DejaVuSans-67"/>
      <use x="468.066406" xlink:href="#DejaVuSans-20"/>
      <use x="499.853516" xlink:href="#DejaVuSans-45"/>
      <use x="563.037109" xlink:href="#DejaVuSans-72"/>
      <use x="602.400391" xlink:href="#DejaVuSans-72"/>
      <use x="641.263672" xlink:href="#DejaVuSans-6f"/>
      <use x="702.445312" xlink:href="#DejaVuSans-72"/>
      <use x="743.558594" xlink:href="#DejaVuSans-73"/>
     </g>
    </g>
   </g>
   <g id="line2d_12">
    <path clip-path="url(#p90ab126370)" d="M 73.832727 3.207237 
L 75.472397 69.391427 
L 77.112066 104.807847 
L 78.751736 125.688112 
L 80.391405 143.611772 
L 82.031074 152.561754 
L 83.670744 162.216645 
L 85.310413 169.283715 
L 86.950083 176.974151 
L 88.589752 183.103157 
L 90.229421 188.638426 
L 93.50876 195.566316 
L 95.14843 198.475579 
L 96.788099 202.904995 
L 98.427769 205.65393 
L 100.067438 207.501822 
L 101.707107 208.530205 
L 103.346777 210.025959 
L 104.986446 214.694721 
L 106.626116 218.428893 
L 108.265785 220.637542 
L 109.905455 222.02032 
L 111.545124 224.629965 
L 113.184793 226.402979 
L 114.824463 226.950837 
L 116.464132 229.071231 
L 118.103802 230.673432 
L 119.743471 232.676225 
L 121.38314 234.262803 
L 123.02281 234.974876 
L 124.662479 236.046603 
L 126.302149 237.388156 
L 127.941818 239.459201 
L 129.581488 240.319524 
L 131.221157 240.807178 
L 132.860826 241.672955 
L 134.500496 243.563466 
L 136.140165 244.053367 
L 137.779835 245.357969 
L 139.419504 246.008066 
L 142.698843 248.090972 
L 147.617851 250.487938 
L 149.257521 251.308603 
L 150.89719 251.072828 
L 152.53686 252.20342 
L 154.176529 253.109966 
L 155.816198 253.887575 
L 157.455868 255.332808 
L 160.735207 257.495523 
L 164.014545 258.807032 
L 165.654215 259.192613 
L 167.293884 259.189028 
L 168.933554 259.828754 
L 170.573223 259.625262 
L 172.212893 260.461704 
L 173.852562 260.72084 
L 175.492231 261.33103 
L 177.131901 262.082778 
L 178.77157 263.175586 
L 185.330248 265.645413 
L 186.969917 265.760405 
L 191.888926 266.871626 
L 195.168264 268.087938 
L 196.807934 268.449174 
L 198.447603 268.599444 
L 200.087273 269.307218 
L 201.726942 269.268184 
L 203.366612 269.634344 
L 206.64595 269.946447 
L 208.28562 270.491037 
L 211.564959 270.803943 
L 213.204628 271.263002 
L 214.844298 271.363772 
L 219.763306 272.675127 
L 221.402975 272.78255 
L 223.042645 273.076766 
L 224.682314 273.58116 
L 231.240992 274.895278 
L 232.880661 274.947396 
L 234.520331 275.119632 
L 236.16 275.705982 
L 239.439339 275.717965 
L 241.079008 276.078049 
L 244.358347 276.571242 
L 245.998017 276.873037 
L 247.637686 277.356141 
L 249.277355 277.633608 
L 250.917025 277.651075 
L 254.196364 277.945254 
L 255.836033 277.818059 
L 257.475702 277.938168 
L 259.115372 278.766145 
L 260.755041 278.883777 
L 262.394711 279.11315 
L 264.03438 279.145744 
L 267.313719 279.879242 
L 268.953388 279.957818 
L 270.593058 280.190218 
L 273.872397 280.16642 
L 275.512066 280.261839 
L 277.151736 280.650216 
L 278.791405 280.822582 
L 280.431074 280.643311 
L 283.710413 280.913485 
L 285.350083 281.540638 
L 286.989752 281.336827 
L 288.629421 281.543898 
L 290.269091 281.55984 
L 295.188099 282.480756 
L 303.386446 282.84368 
L 305.026116 283.144673 
L 306.665785 283.004723 
L 308.305455 283.509944 
L 311.584793 283.936181 
L 313.224463 283.712453 
L 314.864132 283.695559 
L 316.503802 284.029374 
L 318.143471 284.166421 
L 319.78314 284.019336 
L 321.42281 284.220221 
L 323.062479 284.03208 
L 324.702149 284.206045 
L 326.341818 284.495536 
L 329.621157 284.47481 
L 331.260826 284.824976 
L 332.900496 284.742613 
L 334.540165 285.061104 
L 336.179835 285.233386 
L 337.819504 285.26165 
L 339.459174 285.130098 
L 342.738512 285.388391 
L 346.017851 285.689666 
L 349.29719 285.998203 
L 350.93686 285.768673 
L 355.855868 286.319651 
L 359.135207 286.382695 
L 362.414545 286.627266 
L 364.054215 286.695404 
L 367.333554 286.363395 
L 368.973223 286.660545 
L 370.612893 286.801698 
L 372.252562 286.825313 
L 375.531901 287.107825 
L 378.81124 286.892833 
L 382.090579 287.268804 
L 383.730248 287.387287 
L 385.369917 287.213394 
L 388.649256 287.485659 
L 390.288926 287.392278 
L 395.207934 287.770712 
L 398.487273 287.672853 
L 398.487273 287.672853 
" style="fill:none;stroke:#f97306;stroke-linecap:square;stroke-width:1.5;"/>
   </g>
   <g id="line2d_13">
    <path clip-path="url(#p90ab126370)" d="M 74.365348 -1 
L 75.472397 57.676796 
L 77.112066 81.8472 
L 78.751736 107.735944 
L 80.391405 128.158323 
L 83.670744 150.455888 
L 85.310413 155.662776 
L 86.950083 163.663155 
L 88.589752 169.619526 
L 91.869091 180.189459 
L 93.50876 184.243881 
L 95.14843 189.212 
L 100.067438 199.441818 
L 103.346777 203.711268 
L 104.986446 205.875469 
L 106.626116 206.635368 
L 108.265785 208.536406 
L 109.905455 210.222439 
L 111.545124 211.529028 
L 113.184793 213.408982 
L 114.824463 214.519009 
L 116.464132 216.639523 
L 118.103802 217.680494 
L 119.743471 219.105245 
L 123.02281 221.438372 
L 124.662479 222.937496 
L 127.941818 225.034199 
L 129.581488 225.802458 
L 131.221157 227.59468 
L 134.500496 229.485303 
L 136.140165 230.619424 
L 137.779835 231.28926 
L 139.419504 231.661612 
L 141.059174 232.457937 
L 142.698843 234.40185 
L 144.338512 234.998875 
L 145.978182 235.23692 
L 147.617851 235.860162 
L 149.257521 236.665621 
L 152.53686 239.139232 
L 157.455868 241.650025 
L 159.095537 241.916601 
L 164.014545 243.933426 
L 165.654215 244.887657 
L 170.573223 246.792829 
L 172.212893 247.326758 
L 173.852562 248.17908 
L 175.492231 248.490402 
L 177.131901 249.10168 
L 178.77157 249.511693 
L 183.690579 251.830802 
L 185.330248 251.896505 
L 186.969917 252.480075 
L 191.888926 253.801615 
L 193.528595 254.325684 
L 195.168264 254.718951 
L 198.447603 255.637659 
L 201.726942 256.499371 
L 203.366612 257.285898 
L 208.28562 258.953863 
L 209.925289 259.163587 
L 211.564959 259.769619 
L 214.844298 260.714579 
L 216.483967 261.20841 
L 219.763306 261.477407 
L 224.682314 262.663735 
L 226.321983 262.778514 
L 227.961653 263.294437 
L 229.601322 263.36926 
L 231.240992 263.678623 
L 234.520331 264.568566 
L 236.16 264.909752 
L 239.439339 265.386124 
L 241.079008 265.928823 
L 245.998017 266.377948 
L 254.196364 267.842676 
L 259.115372 268.559821 
L 262.394711 269.177398 
L 265.67405 269.434341 
L 270.593058 269.842337 
L 272.232727 270.142066 
L 290.269091 271.780276 
L 291.90876 271.827259 
L 296.827769 272.612765 
L 298.467438 272.798554 
L 300.107107 272.860481 
L 301.746777 273.140275 
L 303.386446 273.144754 
L 311.584793 274.238707 
L 316.503802 274.567843 
L 318.143471 274.820769 
L 323.062479 275.106628 
L 326.341818 275.62977 
L 327.981488 275.659203 
L 329.621157 275.919527 
L 336.179835 276.400092 
L 337.819504 276.427396 
L 339.459174 276.329935 
L 347.657521 276.827579 
L 349.29719 277.099476 
L 352.576529 277.374503 
L 357.495537 277.518401 
L 360.774876 277.738542 
L 368.973223 278.465977 
L 378.81124 278.697473 
L 398.487273 279.378213 
L 398.487273 279.378213 
" style="fill:none;stroke:#5a7d9a;stroke-linecap:square;stroke-width:1.5;"/>
   </g>
   <g id="line2d_14">
    <path clip-path="url(#p90ab126370)" d="M 57.6 279.378213 
L 414.72 279.378213 
" style="fill:none;stroke:#5a7d9a;stroke-dasharray:5.55,2.4;stroke-dashoffset:0;stroke-opacity:0.4;stroke-width:1.5;"/>
   </g>
   <g id="line2d_15">
    <path clip-path="url(#p90ab126370)" d="M 74.949433 -1 
L 75.472397 36.976761 
L 77.112066 77.589047 
L 78.751736 104.920564 
L 80.391405 111.52415 
L 82.031074 124.766644 
L 83.670744 129.77002 
L 85.310413 140.781644 
L 86.950083 145.79372 
L 88.589752 154.320757 
L 93.50876 166.46774 
L 95.14843 167.269377 
L 96.788099 165.677521 
L 98.427769 169.740906 
L 100.067438 173.246107 
L 103.346777 177.530372 
L 106.626116 182.438256 
L 108.265785 185.603758 
L 109.905455 185.148502 
L 111.545124 186.159857 
L 113.184793 186.388548 
L 114.824463 187.340704 
L 116.464132 188.059635 
L 118.103802 189.853604 
L 119.743471 191.20173 
L 121.38314 192.941445 
L 123.02281 194.259247 
L 126.302149 195.351938 
L 127.941818 198.054536 
L 129.581488 197.545596 
L 132.860826 198.49468 
L 134.500496 199.604577 
L 136.140165 199.453156 
L 137.779835 201.460032 
L 139.419504 201.755274 
L 141.059174 202.77773 
L 142.698843 203.632344 
L 144.338512 202.930136 
L 145.978182 204.238751 
L 147.617851 204.118082 
L 149.257521 204.155687 
L 150.89719 206.092288 
L 152.53686 206.302552 
L 154.176529 207.471123 
L 155.816198 208.317886 
L 157.455868 209.373154 
L 159.095537 209.338822 
L 160.735207 210.298201 
L 162.374876 211.684763 
L 164.014545 212.305247 
L 165.654215 212.444571 
L 167.293884 213.511435 
L 168.933554 213.512658 
L 170.573223 214.522761 
L 173.852562 215.149977 
L 175.492231 216.259212 
L 177.131901 217.211273 
L 178.77157 216.930775 
L 180.41124 218.109064 
L 182.050909 218.431966 
L 183.690579 218.489487 
L 185.330248 219.232562 
L 186.969917 220.155842 
L 188.609587 221.528767 
L 190.249256 222.379692 
L 191.888926 221.981808 
L 193.528595 222.887296 
L 195.168264 222.990167 
L 196.807934 223.576455 
L 198.447603 223.914466 
L 200.087273 223.577384 
L 201.726942 223.736079 
L 205.006281 225.264426 
L 206.64595 225.340046 
L 208.28562 225.69312 
L 209.925289 225.904362 
L 211.564959 225.908645 
L 213.204628 226.211602 
L 214.844298 227.011423 
L 216.483967 227.395914 
L 219.763306 227.876468 
L 221.402975 228.177115 
L 223.042645 228.941155 
L 229.601322 229.137698 
L 231.240992 229.744445 
L 232.880661 229.744249 
L 236.16 230.638812 
L 237.799669 230.977233 
L 239.439339 230.477315 
L 241.079008 230.968212 
L 242.718678 230.92516 
L 245.998017 231.067213 
L 247.637686 231.408081 
L 249.277355 231.415793 
L 252.556694 232.218091 
L 254.196364 232.336847 
L 255.836033 232.323269 
L 259.115372 233.195387 
L 260.755041 233.960318 
L 262.394711 234.363473 
L 264.03438 235.045003 
L 265.67405 235.546479 
L 267.313719 235.697595 
L 268.953388 235.690183 
L 270.593058 236.277242 
L 272.232727 236.196932 
L 275.512066 236.24624 
L 277.151736 235.972538 
L 282.070744 236.849549 
L 283.710413 237.120729 
L 286.989752 237.853365 
L 288.629421 238.484519 
L 290.269091 238.91837 
L 291.90876 238.712516 
L 293.54843 238.701571 
L 295.188099 238.566749 
L 298.467438 239.077555 
L 301.746777 240.112152 
L 303.386446 240.18812 
L 305.026116 239.896843 
L 306.665785 240.155705 
L 308.305455 240.137937 
L 309.945124 240.70839 
L 313.224463 240.306552 
L 314.864132 240.579883 
L 318.143471 241.802527 
L 319.78314 242.263255 
L 321.42281 242.534743 
L 323.062479 242.643872 
L 324.702149 242.894434 
L 326.341818 243.002756 
L 327.981488 242.807233 
L 329.621157 243.105918 
L 331.260826 243.226656 
L 332.900496 243.509782 
L 336.179835 243.594822 
L 337.819504 244.007866 
L 341.098843 244.355762 
L 342.738512 244.376036 
L 344.378182 244.602389 
L 346.017851 244.651076 
L 347.657521 245.007725 
L 352.576529 245.525261 
L 354.216198 245.445967 
L 355.855868 245.140624 
L 357.495537 245.326871 
L 359.135207 245.207469 
L 362.414545 245.28561 
L 364.054215 245.514608 
L 365.693884 245.533131 
L 367.333554 245.838252 
L 368.973223 245.72428 
L 372.252562 245.908243 
L 373.892231 246.25688 
L 375.531901 246.219391 
L 377.17157 246.71537 
L 380.450909 246.523489 
L 382.090579 246.783905 
L 383.730248 246.721868 
L 387.009587 247.192497 
L 390.288926 247.192478 
L 391.928595 247.468895 
L 393.568264 247.41277 
L 395.207934 247.538526 
L 396.847603 247.801148 
L 398.487273 247.839036 
L 398.487273 247.839036 
" style="fill:none;stroke:#40a368;stroke-linecap:square;stroke-width:1.5;"/>
   </g>
   <g id="line2d_16">
    <path clip-path="url(#p90ab126370)" d="M 57.6 247.839036 
L 414.72 247.839036 
" style="fill:none;stroke:#40a368;stroke-dasharray:5.55,2.4;stroke-dashoffset:0;stroke-opacity:0.4;stroke-width:1.5;"/>
   </g>
   <g id="patch_3">
    <path d="M 57.6 307.584 
L 57.6 41.472 
" style="fill:none;stroke:#000000;stroke-linecap:square;stroke-linejoin:miter;stroke-width:0.8;"/>
   </g>
   <g id="patch_4">
    <path d="M 414.72 307.584 
L 414.72 41.472 
" style="fill:none;stroke:#000000;stroke-linecap:square;stroke-linejoin:miter;stroke-width:0.8;"/>
   </g>
   <g id="patch_5">
    <path d="M 57.6 307.584 
L 414.72 307.584 
" style="fill:none;stroke:#000000;stroke-linecap:square;stroke-linejoin:miter;stroke-width:0.8;"/>
   </g>
   <g id="patch_6">
    <path d="M 57.6 41.472 
L 414.72 41.472 
" style="fill:none;stroke:#000000;stroke-linecap:square;stroke-linejoin:miter;stroke-width:0.8;"/>
   </g>
   <g id="legend_1">
    <g id="line2d_17">
     <path d="M 191.8925 62.4295 
L 223.8925 62.4295 
" style="fill:none;stroke:#f97306;stroke-linecap:square;stroke-width:10;"/>
    </g>
    <g id="line2d_18"/>
    <g id="text_14">
     <!-- Riemannian Herding -->
     <g transform="translate(236.6925 68.0295)scale(0.16 -0.16)">
      <defs>
       <path d="M 2841 2188 
Q 3044 2119 3236 1894 
Q 3428 1669 3622 1275 
L 4263 0 
L 3584 0 
L 2988 1197 
Q 2756 1666 2539 1819 
Q 2322 1972 1947 1972 
L 1259 1972 
L 1259 0 
L 628 0 
L 628 4666 
L 2053 4666 
Q 2853 4666 3247 4331 
Q 3641 3997 3641 3322 
Q 3641 2881 3436 2590 
Q 3231 2300 2841 2188 
z
M 1259 4147 
L 1259 2491 
L 2053 2491 
Q 2509 2491 2742 2702 
Q 2975 2913 2975 3322 
Q 2975 3731 2742 3939 
Q 2509 4147 2053 4147 
L 1259 4147 
z
" id="DejaVuSans-52" transform="scale(0.015625)"/>
       <path d="M 628 4666 
L 1259 4666 
L 1259 2753 
L 3553 2753 
L 3553 4666 
L 4184 4666 
L 4184 0 
L 3553 0 
L 3553 2222 
L 1259 2222 
L 1259 0 
L 628 0 
L 628 4666 
z
" id="DejaVuSans-48" transform="scale(0.015625)"/>
       <path d="M 2906 2969 
L 2906 4863 
L 3481 4863 
L 3481 0 
L 2906 0 
L 2906 525 
Q 2725 213 2448 61 
Q 2172 -91 1784 -91 
Q 1150 -91 751 415 
Q 353 922 353 1747 
Q 353 2572 751 3078 
Q 1150 3584 1784 3584 
Q 2172 3584 2448 3432 
Q 2725 3281 2906 2969 
z
M 947 1747 
Q 947 1113 1208 752 
Q 1469 391 1925 391 
Q 2381 391 2643 752 
Q 2906 1113 2906 1747 
Q 2906 2381 2643 2742 
Q 2381 3103 1925 3103 
Q 1469 3103 1208 2742 
Q 947 2381 947 1747 
z
" id="DejaVuSans-64" transform="scale(0.015625)"/>
      </defs>
      <use xlink:href="#DejaVuSans-52"/>
      <use x="69.482422" xlink:href="#DejaVuSans-69"/>
      <use x="97.265625" xlink:href="#DejaVuSans-65"/>
      <use x="158.789062" xlink:href="#DejaVuSans-6d"/>
      <use x="256.201172" xlink:href="#DejaVuSans-61"/>
      <use x="317.480469" xlink:href="#DejaVuSans-6e"/>
      <use x="380.859375" xlink:href="#DejaVuSans-6e"/>
      <use x="444.238281" xlink:href="#DejaVuSans-69"/>
      <use x="472.021484" xlink:href="#DejaVuSans-61"/>
      <use x="533.300781" xlink:href="#DejaVuSans-6e"/>
      <use x="596.679688" xlink:href="#DejaVuSans-20"/>
      <use x="628.466797" xlink:href="#DejaVuSans-48"/>
      <use x="703.662109" xlink:href="#DejaVuSans-65"/>
      <use x="765.185547" xlink:href="#DejaVuSans-72"/>
      <use x="804.548828" xlink:href="#DejaVuSans-64"/>
      <use x="868.025391" xlink:href="#DejaVuSans-69"/>
      <use x="895.808594" xlink:href="#DejaVuSans-6e"/>
      <use x="959.1875" xlink:href="#DejaVuSans-67"/>
     </g>
    </g>
    <g id="line2d_19">
     <path d="M 191.8925 85.9145 
L 223.8925 85.9145 
" style="fill:none;stroke:#5a7d9a;stroke-linecap:square;stroke-width:10;"/>
    </g>
    <g id="line2d_20"/>
    <g id="text_15">
     <!-- Euclidean Herding -->
     <g transform="translate(236.6925 91.5145)scale(0.16 -0.16)">
      <defs>
       <path d="M 3122 3366 
L 3122 2828 
Q 2878 2963 2633 3030 
Q 2388 3097 2138 3097 
Q 1578 3097 1268 2742 
Q 959 2388 959 1747 
Q 959 1106 1268 751 
Q 1578 397 2138 397 
Q 2388 397 2633 464 
Q 2878 531 3122 666 
L 3122 134 
Q 2881 22 2623 -34 
Q 2366 -91 2075 -91 
Q 1284 -91 818 406 
Q 353 903 353 1747 
Q 353 2603 823 3093 
Q 1294 3584 2113 3584 
Q 2378 3584 2631 3529 
Q 2884 3475 3122 3366 
z
" id="DejaVuSans-63" transform="scale(0.015625)"/>
      </defs>
      <use xlink:href="#DejaVuSans-45"/>
      <use x="63.183594" xlink:href="#DejaVuSans-75"/>
      <use x="126.5625" xlink:href="#DejaVuSans-63"/>
      <use x="181.542969" xlink:href="#DejaVuSans-6c"/>
      <use x="209.326172" xlink:href="#DejaVuSans-69"/>
      <use x="237.109375" xlink:href="#DejaVuSans-64"/>
      <use x="300.585938" xlink:href="#DejaVuSans-65"/>
      <use x="362.109375" xlink:href="#DejaVuSans-61"/>
      <use x="423.388672" xlink:href="#DejaVuSans-6e"/>
      <use x="486.767578" xlink:href="#DejaVuSans-20"/>
      <use x="518.554688" xlink:href="#DejaVuSans-48"/>
      <use x="593.75" xlink:href="#DejaVuSans-65"/>
      <use x="655.273438" xlink:href="#DejaVuSans-72"/>
      <use x="694.636719" xlink:href="#DejaVuSans-64"/>
      <use x="758.113281" xlink:href="#DejaVuSans-69"/>
      <use x="785.896484" xlink:href="#DejaVuSans-6e"/>
      <use x="849.275391" xlink:href="#DejaVuSans-67"/>
     </g>
    </g>
    <g id="line2d_21">
     <path d="M 191.8925 109.3995 
L 223.8925 109.3995 
" style="fill:none;stroke:#40a368;stroke-linecap:square;stroke-width:10;"/>
    </g>
    <g id="line2d_22"/>
    <g id="text_16">
     <!-- OT -->
     <g transform="translate(236.6925 114.9995)scale(0.16 -0.16)">
      <defs>
       <path d="M 2522 4238 
Q 1834 4238 1429 3725 
Q 1025 3213 1025 2328 
Q 1025 1447 1429 934 
Q 1834 422 2522 422 
Q 3209 422 3611 934 
Q 4013 1447 4013 2328 
Q 4013 3213 3611 3725 
Q 3209 4238 2522 4238 
z
M 2522 4750 
Q 3503 4750 4090 4092 
Q 4678 3434 4678 2328 
Q 4678 1225 4090 567 
Q 3503 -91 2522 -91 
Q 1538 -91 948 565 
Q 359 1222 359 2328 
Q 359 3434 948 4092 
Q 1538 4750 2522 4750 
z
" id="DejaVuSans-4f" transform="scale(0.015625)"/>
       <path d="M -19 4666 
L 3928 4666 
L 3928 4134 
L 2272 4134 
L 2272 0 
L 1638 0 
L 1638 4134 
L -19 4134 
L -19 4666 
z
" id="DejaVuSans-54" transform="scale(0.015625)"/>
      </defs>
      <use xlink:href="#DejaVuSans-4f"/>
      <use x="78.710938" xlink:href="#DejaVuSans-54"/>
     </g>
    </g>
   </g>
  </g>
 </g>
 <defs>
  <clipPath id="p90ab126370">
   <rect height="266.112" width="357.12" x="57.6" y="41.472"/>
  </clipPath>
 </defs>
</svg>
