<?xml version="1.0" encoding="utf-8" standalone="no"?>
<!DOCTYPE svg PUBLIC "-//W3C//DTD SVG 1.1//EN"
  "http://www.w3.org/Graphics/SVG/1.1/DTD/svg11.dtd">
<svg height="345.6pt" version="1.1" viewBox="0 0 460.8 345.6" width="460.8pt" xmlns="http://www.w3.org/2000/svg" xmlns:xlink="http://www.w3.org/1999/xlink">
 <metadata>
  <rdf:RDF xmlns:cc="http://creativecommons.org/ns#" xmlns:dc="http://purl.org/dc/elements/1.1/" xmlns:rdf="http://www.w3.org/1999/02/22-rdf-syntax-ns#">
   <cc:Work>
    <dc:type rdf:resource="http://purl.org/dc/dcmitype/StillImage"/>
    <dc:date>2021-06-20T06:10:36.835348</dc:date>
    <dc:format>image/svg+xml</dc:format>
    <dc:creator>
     <cc:Agent>
      <dc:title>Matplotlib v3.4.1, https://matplotlib.org/</dc:title>
     </cc:Agent>
    </dc:creator>
   </cc:Work>
  </rdf:RDF>
 </metadata>
 <defs>
  <style type="text/css">*{stroke-linecap:butt;stroke-linejoin:round;}</style>
 </defs>
 <g id="figure_1">
  <g id="patch_1">
   <path d="M 0 345.6 
L 460.8 345.6 
L 460.8 0 
L 0 0 
z
" style="fill:#ffffff;"/>
  </g>
  <g id="axes_1">
   <g id="patch_2">
    <path d="M 57.6 307.584 
L 414.72 307.584 
L 414.72 41.472 
L 57.6 41.472 
z
" style="fill:#ffffff;"/>
   </g>
   <g id="PolyCollection_1">
    <defs>
     <path d="M 73.832727 -175.939879 
L 73.832727 -173.373246 
L 74.922172 -144.486442 
L 76.011617 -130.364301 
L 77.101062 -122.500742 
L 78.190506 -116.308276 
L 79.279951 -110.37416 
L 80.369396 -106.557495 
L 81.458841 -103.783583 
L 82.548286 -100.627785 
L 83.63773 -98.542216 
L 84.727175 -96.010382 
L 85.81662 -94.298288 
L 86.906065 -93.058178 
L 87.995509 -91.431865 
L 89.084954 -89.99522 
L 90.174399 -89.369095 
L 91.263844 -87.935664 
L 92.353289 -87.228923 
L 93.442733 -85.984102 
L 94.532178 -85.214457 
L 95.621623 -84.011013 
L 96.711068 -82.877382 
L 97.800513 -82.436795 
L 98.889957 -81.663088 
L 99.979402 -81.16054 
L 101.068847 -80.513 
L 102.158292 -80.203539 
L 103.247736 -79.168745 
L 104.337181 -78.624958 
L 105.426626 -77.799584 
L 106.516071 -77.388748 
L 107.605516 -76.622051 
L 108.69496 -76.132914 
L 109.784405 -75.544772 
L 110.87385 -75.020072 
L 111.963295 -74.680794 
L 113.052739 -74.12042 
L 114.142184 -73.532602 
L 115.231629 -73.067556 
L 116.321074 -72.651487 
L 117.410519 -72.64344 
L 118.499963 -72.147063 
L 119.589408 -71.956423 
L 120.678853 -71.587696 
L 121.768298 -71.15087 
L 122.857743 -70.705712 
L 123.947187 -70.186661 
L 125.036632 -69.886391 
L 126.126077 -69.361779 
L 127.215522 -69.129869 
L 128.304966 -68.872725 
L 129.394411 -68.584677 
L 130.483856 -68.386172 
L 131.573301 -68.127901 
L 132.662746 -67.911878 
L 133.75219 -67.624761 
L 134.841635 -67.265538 
L 135.93108 -67.083795 
L 137.020525 -66.816712 
L 138.109969 -66.490263 
L 139.199414 -66.224005 
L 140.288859 -66.03569 
L 141.378304 -65.915125 
L 142.467749 -65.750323 
L 143.557193 -65.492908 
L 144.646638 -65.364659 
L 145.736083 -65.226413 
L 146.825528 -64.927769 
L 147.914973 -64.575234 
L 149.004417 -64.281494 
L 150.093862 -64.117815 
L 151.183307 -63.893392 
L 152.272752 -63.739883 
L 153.362196 -63.576531 
L 154.451641 -63.422035 
L 155.541086 -63.258312 
L 156.630531 -63.024094 
L 157.719976 -62.768544 
L 158.80942 -62.50003 
L 159.898865 -62.4887 
L 160.98831 -62.362176 
L 162.077755 -62.280663 
L 163.1672 -61.989654 
L 164.256644 -61.774561 
L 165.346089 -61.673578 
L 166.435534 -61.502217 
L 167.524979 -61.278478 
L 168.614423 -61.238412 
L 169.703868 -61.036855 
L 170.793313 -60.850364 
L 171.882758 -60.704022 
L 172.972203 -60.633688 
L 174.061647 -60.528075 
L 175.151092 -60.325327 
L 176.240537 -60.141505 
L 177.329982 -59.92904 
L 178.419426 -59.802009 
L 179.508871 -59.67305 
L 180.598316 -59.478066 
L 181.687761 -59.397576 
L 182.777206 -59.325471 
L 183.86665 -59.329609 
L 184.956095 -59.206736 
L 186.04554 -59.042347 
L 187.134985 -58.879837 
L 188.22443 -58.72638 
L 189.313874 -58.709549 
L 190.403319 -58.603094 
L 191.492764 -58.421977 
L 192.582209 -58.161061 
L 193.671653 -57.955654 
L 194.761098 -57.862654 
L 195.850543 -57.696146 
L 196.939988 -57.712599 
L 198.029433 -57.679356 
L 199.118877 -57.561871 
L 200.208322 -57.441194 
L 201.297767 -57.320334 
L 202.387212 -57.309202 
L 203.476656 -57.253903 
L 204.566101 -57.18443 
L 205.655546 -57.102386 
L 206.744991 -56.972878 
L 207.834436 -56.806363 
L 208.92388 -56.667548 
L 210.013325 -56.510468 
L 211.10277 -56.448517 
L 212.192215 -56.309684 
L 213.28166 -56.275793 
L 214.371104 -56.236596 
L 215.460549 -56.159791 
L 216.549994 -56.100529 
L 217.639439 -56.096329 
L 218.728883 -56.00086 
L 219.818328 -55.992379 
L 220.907773 -55.891654 
L 221.997218 -55.818149 
L 223.086663 -55.686187 
L 224.176107 -55.54031 
L 225.265552 -55.545424 
L 226.354997 -55.520785 
L 227.444442 -55.420489 
L 228.533887 -55.304454 
L 229.623331 -55.207605 
L 230.712776 -55.123192 
L 231.802221 -55.100084 
L 232.891666 -54.96744 
L 233.98111 -54.877261 
L 235.070555 -54.796129 
L 236.16 -54.729969 
L 237.249445 -54.662771 
L 238.33889 -54.626142 
L 239.428334 -54.543595 
L 240.517779 -54.399347 
L 241.607224 -54.283672 
L 242.696669 -54.305329 
L 243.786113 -54.261833 
L 244.875558 -54.160194 
L 245.965003 -54.162709 
L 247.054448 -54.143041 
L 248.143893 -54.073885 
L 249.233337 -54.01019 
L 250.322782 -53.974451 
L 251.412227 -53.972377 
L 252.501672 -53.901383 
L 253.591117 -53.880182 
L 254.680561 -53.846312 
L 255.770006 -53.801814 
L 256.859451 -53.694407 
L 257.948896 -53.611789 
L 259.03834 -53.507744 
L 260.127785 -53.439084 
L 261.21723 -53.461909 
L 262.306675 -53.41222 
L 263.39612 -53.417612 
L 264.485564 -53.408156 
L 265.575009 -53.411205 
L 266.664454 -53.316264 
L 267.753899 -53.314013 
L 268.843344 -53.229161 
L 269.932788 -53.173145 
L 271.022233 -53.135324 
L 272.111678 -53.085848 
L 273.201123 -53.056242 
L 274.290567 -52.982714 
L 275.380012 -52.928 
L 276.469457 -52.850057 
L 277.558902 -52.882666 
L 278.648347 -52.880918 
L 279.737791 -52.822293 
L 280.827236 -52.833417 
L 281.916681 -52.795842 
L 283.006126 -52.74993 
L 284.09557 -52.694525 
L 285.185015 -52.700428 
L 286.27446 -52.678498 
L 287.363905 -52.669992 
L 288.45335 -52.65116 
L 289.542794 -52.62734 
L 290.632239 -52.638016 
L 291.721684 -52.613102 
L 292.811129 -52.584236 
L 293.900574 -52.567357 
L 294.990018 -52.54203 
L 296.079463 -52.482595 
L 297.168908 -52.436224 
L 298.258353 -52.419416 
L 299.347797 -52.410342 
L 300.437242 -52.425505 
L 301.526687 -52.433626 
L 302.616132 -52.399503 
L 303.705577 -52.364386 
L 304.795021 -52.256055 
L 305.884466 -52.145109 
L 306.973911 -52.201075 
L 308.063356 -52.104383 
L 309.1528 -52.060155 
L 310.242245 -51.997369 
L 311.33169 -52.077156 
L 312.421135 -52.067693 
L 313.51058 -52.061927 
L 314.600024 -52.003729 
L 315.689469 -51.99395 
L 316.778914 -51.877039 
L 317.868359 -51.8501 
L 318.957804 -51.860131 
L 320.047248 -51.79701 
L 321.136693 -51.825705 
L 322.226138 -51.780778 
L 323.315583 -51.727234 
L 324.405027 -51.719592 
L 325.494472 -51.736017 
L 326.583917 -51.649807 
L 327.673362 -51.671083 
L 328.762807 -51.633546 
L 329.852251 -51.61607 
L 330.941696 -51.565484 
L 332.031141 -51.550814 
L 333.120586 -51.534958 
L 334.210031 -51.414496 
L 335.299475 -51.404563 
L 336.38892 -51.373307 
L 337.478365 -51.394571 
L 338.56781 -51.354258 
L 339.657254 -51.375498 
L 340.746699 -51.394901 
L 341.836144 -51.32938 
L 342.925589 -51.342438 
L 344.015034 -51.312254 
L 345.104478 -51.272675 
L 346.193923 -51.18319 
L 347.283368 -51.157679 
L 348.372813 -51.111493 
L 349.462257 -51.022423 
L 350.551702 -50.934354 
L 351.641147 -50.900912 
L 352.730592 -50.862816 
L 353.820037 -50.868695 
L 354.909481 -50.796679 
L 355.998926 -50.746948 
L 357.088371 -50.748741 
L 358.177816 -50.745077 
L 359.267261 -50.701209 
L 360.356705 -50.714938 
L 361.44615 -50.710673 
L 362.535595 -50.666429 
L 363.62504 -50.642594 
L 364.714484 -50.604908 
L 365.803929 -50.57553 
L 366.893374 -50.550265 
L 367.982819 -50.530033 
L 369.072264 -50.527288 
L 370.161708 -50.47469 
L 371.251153 -50.480698 
L 372.340598 -50.519199 
L 373.430043 -50.490281 
L 374.519487 -50.509185 
L 375.608932 -50.455354 
L 376.698377 -50.393929 
L 377.787822 -50.404837 
L 378.877267 -50.392656 
L 379.966711 -50.412058 
L 381.056156 -50.395214 
L 382.145601 -50.374325 
L 383.235046 -50.326795 
L 384.324491 -50.2829 
L 385.413935 -50.268638 
L 386.50338 -50.243473 
L 387.592825 -50.286261 
L 388.68227 -50.289676 
L 389.771714 -50.229265 
L 390.861159 -50.267422 
L 391.950604 -50.273288 
L 393.040049 -50.227158 
L 394.129494 -50.181227 
L 395.218938 -50.154541 
L 396.308383 -50.151884 
L 397.397828 -50.151755 
L 398.487273 -50.112 
L 398.487273 -50.362583 
L 398.487273 -50.362583 
L 397.397828 -50.393946 
L 396.308383 -50.370378 
L 395.218938 -50.408633 
L 394.129494 -50.407077 
L 393.040049 -50.448795 
L 391.950604 -50.536295 
L 390.861159 -50.556433 
L 389.771714 -50.513799 
L 388.68227 -50.573169 
L 387.592825 -50.548138 
L 386.50338 -50.564361 
L 385.413935 -50.591974 
L 384.324491 -50.619423 
L 383.235046 -50.673725 
L 382.145601 -50.75674 
L 381.056156 -50.777865 
L 379.966711 -50.86419 
L 378.877267 -50.876886 
L 377.787822 -50.876064 
L 376.698377 -50.855444 
L 375.608932 -50.906486 
L 374.519487 -50.936863 
L 373.430043 -50.947053 
L 372.340598 -50.931918 
L 371.251153 -50.8945 
L 370.161708 -50.940456 
L 369.072264 -50.946921 
L 367.982819 -50.950295 
L 366.893374 -50.952199 
L 365.803929 -50.948515 
L 364.714484 -50.991896 
L 363.62504 -51.022221 
L 362.535595 -51.062796 
L 361.44615 -51.12571 
L 360.356705 -51.129759 
L 359.267261 -51.118028 
L 358.177816 -51.139283 
L 357.088371 -51.157162 
L 355.998926 -51.155714 
L 354.909481 -51.199302 
L 353.820037 -51.191858 
L 352.730592 -51.20738 
L 351.641147 -51.219591 
L 350.551702 -51.210497 
L 349.462257 -51.297277 
L 348.372813 -51.36523 
L 347.283368 -51.386431 
L 346.193923 -51.398595 
L 345.104478 -51.454694 
L 344.015034 -51.458095 
L 342.925589 -51.440837 
L 341.836144 -51.462969 
L 340.746699 -51.530226 
L 339.657254 -51.537721 
L 338.56781 -51.613507 
L 337.478365 -51.638988 
L 336.38892 -51.619225 
L 335.299475 -51.640931 
L 334.210031 -51.650623 
L 333.120586 -51.702273 
L 332.031141 -51.738391 
L 330.941696 -51.795681 
L 329.852251 -51.860128 
L 328.762807 -51.915418 
L 327.673362 -51.943773 
L 326.583917 -51.967498 
L 325.494472 -51.981192 
L 324.405027 -52.030589 
L 323.315583 -52.074561 
L 322.226138 -52.091097 
L 321.136693 -52.107582 
L 320.047248 -52.013532 
L 318.957804 -52.06436 
L 317.868359 -52.088655 
L 316.778914 -52.107595 
L 315.689469 -52.177887 
L 314.600024 -52.191506 
L 313.51058 -52.323765 
L 312.421135 -52.375137 
L 311.33169 -52.484708 
L 310.242245 -52.456041 
L 309.1528 -52.485125 
L 308.063356 -52.523127 
L 306.973911 -52.511892 
L 305.884466 -52.51907 
L 304.795021 -52.618669 
L 303.705577 -52.734054 
L 302.616132 -52.818108 
L 301.526687 -52.845211 
L 300.437242 -52.683442 
L 299.347797 -52.622086 
L 298.258353 -52.695288 
L 297.168908 -52.681404 
L 296.079463 -52.682023 
L 294.990018 -52.776596 
L 293.900574 -52.775513 
L 292.811129 -52.820411 
L 291.721684 -52.898701 
L 290.632239 -52.903814 
L 289.542794 -52.91676 
L 288.45335 -52.980236 
L 287.363905 -52.982943 
L 286.27446 -53.00943 
L 285.185015 -53.007884 
L 284.09557 -53.030544 
L 283.006126 -53.120152 
L 281.916681 -53.179038 
L 280.827236 -53.163936 
L 279.737791 -53.137436 
L 278.648347 -53.216109 
L 277.558902 -53.232715 
L 276.469457 -53.263545 
L 275.380012 -53.356084 
L 274.290567 -53.431328 
L 273.201123 -53.552549 
L 272.111678 -53.576849 
L 271.022233 -53.627322 
L 269.932788 -53.568147 
L 268.843344 -53.630121 
L 267.753899 -53.658831 
L 266.664454 -53.656763 
L 265.575009 -53.720269 
L 264.485564 -53.734066 
L 263.39612 -53.821057 
L 262.306675 -53.770357 
L 261.21723 -53.836073 
L 260.127785 -53.970898 
L 259.03834 -54.062182 
L 257.948896 -54.126478 
L 256.859451 -54.186115 
L 255.770006 -54.30383 
L 254.680561 -54.346167 
L 253.591117 -54.380853 
L 252.501672 -54.447226 
L 251.412227 -54.549876 
L 250.322782 -54.642655 
L 249.233337 -54.741577 
L 248.143893 -54.815155 
L 247.054448 -54.843562 
L 245.965003 -54.915802 
L 244.875558 -54.941799 
L 243.786113 -55.007938 
L 242.696669 -54.961237 
L 241.607224 -54.964565 
L 240.517779 -55.143417 
L 239.428334 -55.259601 
L 238.33889 -55.244712 
L 237.249445 -55.368217 
L 236.16 -55.4228 
L 235.070555 -55.437064 
L 233.98111 -55.429058 
L 232.891666 -55.520291 
L 231.802221 -55.611676 
L 230.712776 -55.663724 
L 229.623331 -55.720738 
L 228.533887 -55.841094 
L 227.444442 -55.921931 
L 226.354997 -56.027031 
L 225.265552 -56.06094 
L 224.176107 -56.130067 
L 223.086663 -56.289004 
L 221.997218 -56.356589 
L 220.907773 -56.384014 
L 219.818328 -56.523406 
L 218.728883 -56.551728 
L 217.639439 -56.658114 
L 216.549994 -56.724521 
L 215.460549 -56.778548 
L 214.371104 -56.851734 
L 213.28166 -57.015877 
L 212.192215 -57.005245 
L 211.10277 -57.189992 
L 210.013325 -57.208404 
L 208.92388 -57.323043 
L 207.834436 -57.475865 
L 206.744991 -57.433575 
L 205.655546 -57.451678 
L 204.566101 -57.557729 
L 203.476656 -57.590231 
L 202.387212 -57.673821 
L 201.297767 -57.665026 
L 200.208322 -57.79672 
L 199.118877 -57.97086 
L 198.029433 -58.140741 
L 196.939988 -58.335829 
L 195.850543 -58.322739 
L 194.761098 -58.380962 
L 193.671653 -58.447135 
L 192.582209 -58.704606 
L 191.492764 -59.011748 
L 190.403319 -59.020838 
L 189.313874 -59.152419 
L 188.22443 -59.20354 
L 187.134985 -59.290579 
L 186.04554 -59.42136 
L 184.956095 -59.657567 
L 183.86665 -59.859723 
L 182.777206 -59.876731 
L 181.687761 -60.063098 
L 180.598316 -60.233307 
L 179.508871 -60.333717 
L 178.419426 -60.415447 
L 177.329982 -60.551545 
L 176.240537 -60.718044 
L 175.151092 -61.019416 
L 174.061647 -61.267996 
L 172.972203 -61.453455 
L 171.882758 -61.554078 
L 170.793313 -61.656454 
L 169.703868 -61.746141 
L 168.614423 -61.914432 
L 167.524979 -62.069812 
L 166.435534 -62.185233 
L 165.346089 -62.265913 
L 164.256644 -62.478932 
L 163.1672 -62.581873 
L 162.077755 -62.64509 
L 160.98831 -62.790926 
L 159.898865 -62.829507 
L 158.80942 -62.955769 
L 157.719976 -63.371259 
L 156.630531 -63.574123 
L 155.541086 -63.884256 
L 154.451641 -64.136307 
L 153.362196 -64.324028 
L 152.272752 -64.378507 
L 151.183307 -64.534055 
L 150.093862 -64.548542 
L 149.004417 -64.711293 
L 147.914973 -64.901832 
L 146.825528 -65.167829 
L 145.736083 -65.476452 
L 144.646638 -65.660458 
L 143.557193 -66.045544 
L 142.467749 -66.152384 
L 141.378304 -66.238585 
L 140.288859 -66.383121 
L 139.199414 -66.696683 
L 138.109969 -66.95487 
L 137.020525 -67.378038 
L 135.93108 -67.60207 
L 134.841635 -67.853084 
L 133.75219 -68.227522 
L 132.662746 -68.468217 
L 131.573301 -68.69094 
L 130.483856 -68.805957 
L 129.394411 -69.188391 
L 128.304966 -69.563478 
L 127.215522 -69.925333 
L 126.126077 -70.349383 
L 125.036632 -70.780509 
L 123.947187 -70.862067 
L 122.857743 -71.407442 
L 121.768298 -71.810959 
L 120.678853 -72.209053 
L 119.589408 -72.585869 
L 118.499963 -73.119561 
L 117.410519 -73.466678 
L 116.321074 -73.439508 
L 115.231629 -73.755546 
L 114.142184 -74.229092 
L 113.052739 -74.743159 
L 111.963295 -75.253438 
L 110.87385 -75.692766 
L 109.784405 -76.068068 
L 108.69496 -76.601104 
L 107.605516 -77.298112 
L 106.516071 -78.093725 
L 105.426626 -78.633735 
L 104.337181 -79.667865 
L 103.247736 -80.349208 
L 102.158292 -81.257194 
L 101.068847 -81.896674 
L 99.979402 -82.333641 
L 98.889957 -83.103183 
L 97.800513 -84.015958 
L 96.711068 -84.435439 
L 95.621623 -84.927114 
L 94.532178 -86.287391 
L 93.442733 -86.8456 
L 92.353289 -88.162635 
L 91.263844 -89.277252 
L 90.174399 -90.131801 
L 89.084954 -91.22666 
L 87.995509 -93.775098 
L 86.906065 -95.423098 
L 85.81662 -96.280584 
L 84.727175 -97.681181 
L 83.63773 -99.541138 
L 82.548286 -101.713068 
L 81.458841 -104.745076 
L 80.369396 -108.193392 
L 79.279951 -113.099872 
L 78.190506 -120.257007 
L 77.101062 -127.4806 
L 76.011617 -135.596599 
L 74.922172 -146.463392 
L 73.832727 -175.939879 
z
" id="mb1a48f087a" style="stroke:#f97306;stroke-opacity:0.3;"/>
    </defs>
    <g clip-path="url(#pfe719cf9e4)">
     <use style="fill:#f97306;fill-opacity:0.3;stroke:#f97306;stroke-opacity:0.3;" x="0" xlink:href="#mb1a48f087a" y="345.6"/>
    </g>
   </g>
   <g id="PolyCollection_2">
    <defs>
     <path d="M 73.832727 -229.146611 
L 73.832727 -196.889456 
L 74.922172 -176.629173 
L 76.011617 -167.76791 
L 77.101062 -163.504628 
L 78.190506 -159.613891 
L 79.279951 -156.34812 
L 80.369396 -154.530713 
L 81.458841 -152.448424 
L 82.548286 -151.008138 
L 83.63773 -149.848528 
L 84.727175 -148.749764 
L 85.81662 -147.546163 
L 86.906065 -146.647076 
L 87.995509 -145.61274 
L 89.084954 -145.020274 
L 90.174399 -144.464508 
L 91.263844 -143.786402 
L 92.353289 -143.179565 
L 93.442733 -142.768573 
L 93.442733 -292.032 
L 93.442733 -292.032 
L 92.353289 -291.636494 
L 91.263844 -291.158537 
L 90.174399 -290.623518 
L 89.084954 -290.07727 
L 87.995509 -289.468463 
L 86.906065 -288.676003 
L 85.81662 -287.839783 
L 84.727175 -286.822004 
L 83.63773 -285.707013 
L 82.548286 -284.412861 
L 81.458841 -282.824904 
L 80.369396 -280.751909 
L 79.279951 -278.308919 
L 78.190506 -274.794802 
L 77.101062 -269.990483 
L 76.011617 -263.237007 
L 74.922172 -251.514807 
L 73.832727 -229.146611 
z
" id="m28835a161f" style="stroke:#5a7d9a;stroke-opacity:0.3;"/>
    </defs>
    <g clip-path="url(#pfe719cf9e4)">
     <use style="fill:#5a7d9a;fill-opacity:0.3;stroke:#5a7d9a;stroke-opacity:0.3;" x="0" xlink:href="#m28835a161f" y="345.6"/>
    </g>
   </g>
   <g id="PolyCollection_3">
    <defs>
     <path d="M 73.832727 -180.21828 
L 73.832727 -171.578933 
L 74.922172 -148.84544 
L 76.011617 -137.911863 
L 77.101062 -132.071462 
L 78.190506 -129.792991 
L 79.279951 -124.844902 
L 80.369396 -118.195597 
L 81.458841 -113.86203 
L 82.548286 -112.121499 
L 83.63773 -109.449703 
L 84.727175 -108.335404 
L 85.81662 -106.797555 
L 86.906065 -105.421501 
L 87.995509 -104.360849 
L 89.084954 -102.293536 
L 90.174399 -100.266661 
L 91.263844 -99.67966 
L 92.353289 -98.828785 
L 93.442733 -97.721257 
L 94.532178 -97.321833 
L 95.621623 -96.235484 
L 96.711068 -95.303748 
L 97.800513 -94.651148 
L 98.889957 -93.742102 
L 99.979402 -93.164636 
L 101.068847 -92.692032 
L 102.158292 -91.792949 
L 103.247736 -90.975869 
L 104.337181 -90.603578 
L 105.426626 -89.906863 
L 106.516071 -88.966978 
L 107.605516 -88.315619 
L 108.69496 -88.079518 
L 109.784405 -87.775668 
L 110.87385 -87.402989 
L 111.963295 -86.76509 
L 113.052739 -86.26649 
L 114.142184 -86.077822 
L 115.231629 -85.724308 
L 116.321074 -85.314134 
L 117.410519 -84.884936 
L 118.499963 -84.488966 
L 119.589408 -84.048881 
L 120.678853 -83.561606 
L 121.768298 -83.123264 
L 122.857743 -83.064191 
L 123.947187 -82.677703 
L 125.036632 -82.562237 
L 126.126077 -82.45074 
L 127.215522 -82.076793 
L 128.304966 -81.73144 
L 129.394411 -81.622742 
L 130.483856 -81.405512 
L 131.573301 -81.265812 
L 132.662746 -80.908049 
L 133.75219 -80.415281 
L 134.841635 -80.269394 
L 135.93108 -79.978246 
L 137.020525 -79.793985 
L 138.109969 -79.666194 
L 139.199414 -79.512261 
L 140.288859 -79.385866 
L 141.378304 -79.156411 
L 142.467749 -78.858646 
L 143.557193 -78.706245 
L 144.646638 -78.353256 
L 145.736083 -78.12743 
L 146.825528 -78.011484 
L 147.914973 -77.877166 
L 149.004417 -77.65748 
L 150.093862 -77.49819 
L 151.183307 -77.271133 
L 152.272752 -77.104298 
L 153.362196 -76.969489 
L 154.451641 -76.732763 
L 155.541086 -76.614332 
L 156.630531 -76.433779 
L 157.719976 -76.198952 
L 158.80942 -76.020135 
L 159.898865 -75.840886 
L 160.98831 -75.572846 
L 162.077755 -75.45032 
L 163.1672 -75.264497 
L 164.256644 -75.283909 
L 165.346089 -75.081055 
L 166.435534 -74.864077 
L 167.524979 -74.673639 
L 168.614423 -74.529262 
L 169.703868 -74.597836 
L 170.793313 -74.483072 
L 171.882758 -74.289583 
L 172.972203 -74.081828 
L 174.061647 -73.913094 
L 175.151092 -73.855755 
L 176.240537 -73.662853 
L 177.329982 -73.458335 
L 178.419426 -73.136235 
L 179.508871 -73.062614 
L 180.598316 -72.805204 
L 181.687761 -72.641807 
L 182.777206 -72.443918 
L 183.86665 -72.287861 
L 184.956095 -72.145252 
L 186.04554 -72.133912 
L 187.134985 -72.167275 
L 188.22443 -72.071233 
L 189.313874 -71.948959 
L 190.403319 -71.785481 
L 191.492764 -71.635697 
L 192.582209 -71.586068 
L 193.671653 -71.360439 
L 194.761098 -71.09768 
L 195.850543 -70.930524 
L 196.939988 -70.894487 
L 198.029433 -70.713758 
L 199.118877 -70.606186 
L 200.208322 -70.471707 
L 201.297767 -70.377771 
L 202.387212 -70.289339 
L 203.476656 -70.169566 
L 204.566101 -70.030878 
L 205.655546 -69.832741 
L 206.744991 -69.656085 
L 207.834436 -69.604075 
L 208.92388 -69.523837 
L 210.013325 -69.459653 
L 211.10277 -69.378039 
L 212.192215 -69.309043 
L 213.28166 -69.208515 
L 214.371104 -69.039208 
L 215.460549 -69.021645 
L 216.549994 -68.972501 
L 217.639439 -68.922736 
L 218.728883 -68.888658 
L 219.818328 -68.849895 
L 220.907773 -68.742073 
L 221.997218 -68.62128 
L 223.086663 -68.543208 
L 224.176107 -68.460159 
L 225.265552 -68.370558 
L 226.354997 -68.259858 
L 227.444442 -68.186095 
L 228.533887 -67.956915 
L 229.623331 -67.829548 
L 230.712776 -67.821638 
L 231.802221 -67.823607 
L 232.891666 -67.760619 
L 233.98111 -67.633437 
L 235.070555 -67.540332 
L 236.16 -67.419378 
L 237.249445 -67.315003 
L 238.33889 -67.341123 
L 239.428334 -67.243516 
L 240.517779 -67.219517 
L 241.607224 -67.209814 
L 242.696669 -67.241542 
L 243.786113 -67.21187 
L 244.875558 -67.126215 
L 245.965003 -66.986804 
L 247.054448 -66.940936 
L 248.143893 -66.737344 
L 249.233337 -66.678991 
L 250.322782 -66.569822 
L 251.412227 -66.489844 
L 252.501672 -66.393168 
L 253.591117 -66.399991 
L 254.680561 -66.337192 
L 255.770006 -66.227253 
L 256.859451 -66.201981 
L 257.948896 -66.162484 
L 259.03834 -66.151812 
L 260.127785 -66.084336 
L 261.21723 -65.981801 
L 262.306675 -65.925233 
L 263.39612 -65.806208 
L 264.485564 -65.639577 
L 265.575009 -65.610189 
L 266.664454 -65.479138 
L 267.753899 -65.431445 
L 268.843344 -65.364096 
L 269.932788 -65.246983 
L 271.022233 -65.227643 
L 272.111678 -65.210233 
L 273.201123 -65.136239 
L 274.290567 -65.134518 
L 275.380012 -65.131091 
L 276.469457 -65.057541 
L 277.558902 -65.068282 
L 278.648347 -65.075502 
L 279.737791 -65.043655 
L 280.827236 -65.047895 
L 281.916681 -65.067497 
L 283.006126 -65.056725 
L 284.09557 -64.984558 
L 285.185015 -64.964175 
L 286.27446 -64.939416 
L 287.363905 -64.897508 
L 288.45335 -64.854999 
L 289.542794 -64.768346 
L 290.632239 -64.743389 
L 291.721684 -64.712357 
L 292.811129 -64.627086 
L 293.900574 -64.636839 
L 294.990018 -64.636122 
L 296.079463 -64.562454 
L 297.168908 -64.569903 
L 298.258353 -64.462342 
L 299.347797 -64.378299 
L 300.437242 -64.315431 
L 301.526687 -64.325775 
L 302.616132 -64.233754 
L 303.705577 -64.193869 
L 304.795021 -64.062768 
L 305.884466 -63.975358 
L 306.973911 -63.984778 
L 308.063356 -63.9904 
L 309.1528 -63.923904 
L 310.242245 -63.88712 
L 311.33169 -63.899932 
L 312.421135 -63.846065 
L 313.51058 -63.775878 
L 314.600024 -63.787377 
L 315.689469 -63.777517 
L 316.778914 -63.678508 
L 317.868359 -63.592877 
L 318.957804 -63.576204 
L 320.047248 -63.558825 
L 321.136693 -63.456124 
L 322.226138 -63.39584 
L 323.315583 -63.316727 
L 324.405027 -63.230779 
L 325.494472 -63.198386 
L 326.583917 -63.193461 
L 327.673362 -63.116247 
L 328.762807 -63.055569 
L 329.852251 -63.022738 
L 330.941696 -63.030483 
L 332.031141 -63.017782 
L 333.120586 -62.961107 
L 334.210031 -62.929518 
L 335.299475 -62.869417 
L 336.38892 -62.911516 
L 337.478365 -62.846257 
L 338.56781 -62.817724 
L 339.657254 -62.773018 
L 340.746699 -62.795744 
L 341.836144 -62.755303 
L 342.925589 -62.73051 
L 344.015034 -62.650525 
L 345.104478 -62.590441 
L 346.193923 -62.548675 
L 347.283368 -62.498696 
L 348.372813 -62.494623 
L 349.462257 -62.512905 
L 350.551702 -62.484552 
L 351.641147 -62.450013 
L 352.730592 -62.412824 
L 353.820037 -62.387637 
L 354.909481 -62.317018 
L 355.998926 -62.281982 
L 357.088371 -62.250627 
L 358.177816 -62.241773 
L 359.267261 -62.240642 
L 360.356705 -62.199383 
L 361.44615 -62.178009 
L 362.535595 -62.184042 
L 363.62504 -62.177386 
L 364.714484 -62.142623 
L 365.803929 -62.090375 
L 366.893374 -62.103267 
L 367.982819 -62.052861 
L 369.072264 -62.015079 
L 370.161708 -61.987641 
L 371.251153 -61.978987 
L 372.340598 -61.938597 
L 373.430043 -61.886952 
L 374.519487 -61.859076 
L 375.608932 -61.779078 
L 376.698377 -61.782292 
L 377.787822 -61.749633 
L 378.877267 -61.687238 
L 379.966711 -61.682261 
L 381.056156 -61.651623 
L 382.145601 -61.628661 
L 383.235046 -61.599396 
L 384.324491 -61.554455 
L 385.413935 -61.492638 
L 386.50338 -61.446071 
L 387.592825 -61.430305 
L 388.68227 -61.433891 
L 389.771714 -61.407007 
L 390.861159 -61.366368 
L 391.950604 -61.386692 
L 393.040049 -61.355274 
L 394.129494 -61.312045 
L 395.218938 -61.307356 
L 396.308383 -61.27989 
L 397.397828 -61.245864 
L 398.487273 -61.200378 
L 398.487273 -62.706988 
L 398.487273 -62.706988 
L 397.397828 -62.710444 
L 396.308383 -62.759063 
L 395.218938 -62.788122 
L 394.129494 -62.794094 
L 393.040049 -62.852666 
L 391.950604 -62.873346 
L 390.861159 -62.917206 
L 389.771714 -63.001494 
L 388.68227 -63.037247 
L 387.592825 -63.032388 
L 386.50338 -63.05924 
L 385.413935 -63.17413 
L 384.324491 -63.184388 
L 383.235046 -63.226571 
L 382.145601 -63.254115 
L 381.056156 -63.293422 
L 379.966711 -63.275675 
L 378.877267 -63.266929 
L 377.787822 -63.332366 
L 376.698377 -63.335618 
L 375.608932 -63.327554 
L 374.519487 -63.36898 
L 373.430043 -63.372517 
L 372.340598 -63.450948 
L 371.251153 -63.465907 
L 370.161708 -63.522527 
L 369.072264 -63.611345 
L 367.982819 -63.691073 
L 366.893374 -63.777462 
L 365.803929 -63.762373 
L 364.714484 -63.86087 
L 363.62504 -63.825907 
L 362.535595 -63.845389 
L 361.44615 -63.88394 
L 360.356705 -63.919314 
L 359.267261 -63.854341 
L 358.177816 -63.933385 
L 357.088371 -63.985397 
L 355.998926 -64.026752 
L 354.909481 -64.032142 
L 353.820037 -64.06345 
L 352.730592 -64.052975 
L 351.641147 -64.126724 
L 350.551702 -64.230222 
L 349.462257 -64.250843 
L 348.372813 -64.326216 
L 347.283368 -64.32676 
L 346.193923 -64.439028 
L 345.104478 -64.47039 
L 344.015034 -64.524609 
L 342.925589 -64.592886 
L 341.836144 -64.643536 
L 340.746699 -64.639881 
L 339.657254 -64.676956 
L 338.56781 -64.656555 
L 337.478365 -64.808664 
L 336.38892 -64.822709 
L 335.299475 -64.918419 
L 334.210031 -64.995832 
L 333.120586 -65.034834 
L 332.031141 -65.067544 
L 330.941696 -65.066671 
L 329.852251 -65.079792 
L 328.762807 -65.087252 
L 327.673362 -65.17736 
L 326.583917 -65.175276 
L 325.494472 -65.22363 
L 324.405027 -65.351797 
L 323.315583 -65.362376 
L 322.226138 -65.453745 
L 321.136693 -65.538816 
L 320.047248 -65.522393 
L 318.957804 -65.525812 
L 317.868359 -65.576675 
L 316.778914 -65.618314 
L 315.689469 -65.611354 
L 314.600024 -65.604917 
L 313.51058 -65.670088 
L 312.421135 -65.666392 
L 311.33169 -65.657542 
L 310.242245 -65.758272 
L 309.1528 -65.787603 
L 308.063356 -65.889084 
L 306.973911 -65.96633 
L 305.884466 -65.931281 
L 304.795021 -65.968641 
L 303.705577 -66.034071 
L 302.616132 -66.029265 
L 301.526687 -66.122723 
L 300.437242 -66.09588 
L 299.347797 -66.163096 
L 298.258353 -66.137574 
L 297.168908 -66.222194 
L 296.079463 -66.304846 
L 294.990018 -66.366146 
L 293.900574 -66.433217 
L 292.811129 -66.420852 
L 291.721684 -66.491242 
L 290.632239 -66.570341 
L 289.542794 -66.66139 
L 288.45335 -66.76611 
L 287.363905 -66.794518 
L 286.27446 -66.797673 
L 285.185015 -66.831368 
L 284.09557 -66.939272 
L 283.006126 -66.982257 
L 281.916681 -67.08696 
L 280.827236 -67.155977 
L 279.737791 -67.20971 
L 278.648347 -67.220233 
L 277.558902 -67.267532 
L 276.469457 -67.329489 
L 275.380012 -67.458108 
L 274.290567 -67.549874 
L 273.201123 -67.666586 
L 272.111678 -67.742476 
L 271.022233 -67.765926 
L 269.932788 -67.798389 
L 268.843344 -67.83065 
L 267.753899 -67.99005 
L 266.664454 -68.15628 
L 265.575009 -68.238485 
L 264.485564 -68.263649 
L 263.39612 -68.337672 
L 262.306675 -68.401727 
L 261.21723 -68.406789 
L 260.127785 -68.468364 
L 259.03834 -68.51536 
L 257.948896 -68.635924 
L 256.859451 -68.721627 
L 255.770006 -68.769512 
L 254.680561 -68.812516 
L 253.591117 -68.869906 
L 252.501672 -68.995863 
L 251.412227 -69.155169 
L 250.322782 -69.276731 
L 249.233337 -69.347599 
L 248.143893 -69.533684 
L 247.054448 -69.570906 
L 245.965003 -69.584835 
L 244.875558 -69.619592 
L 243.786113 -69.69676 
L 242.696669 -69.787742 
L 241.607224 -69.975296 
L 240.517779 -69.962407 
L 239.428334 -70.083218 
L 238.33889 -70.128455 
L 237.249445 -70.133757 
L 236.16 -70.220916 
L 235.070555 -70.368543 
L 233.98111 -70.434073 
L 232.891666 -70.638788 
L 231.802221 -70.613463 
L 230.712776 -70.636548 
L 229.623331 -70.581632 
L 228.533887 -70.65711 
L 227.444442 -70.713381 
L 226.354997 -70.6886 
L 225.265552 -70.715217 
L 224.176107 -70.789105 
L 223.086663 -70.812979 
L 221.997218 -70.938003 
L 220.907773 -71.077229 
L 219.818328 -70.9772 
L 218.728883 -70.991028 
L 217.639439 -71.095814 
L 216.549994 -71.18546 
L 215.460549 -71.254894 
L 214.371104 -71.158361 
L 213.28166 -71.218679 
L 212.192215 -71.366928 
L 211.10277 -71.479656 
L 210.013325 -71.487404 
L 208.92388 -71.622504 
L 207.834436 -71.815791 
L 206.744991 -71.999295 
L 205.655546 -72.106839 
L 204.566101 -72.219432 
L 203.476656 -72.20022 
L 202.387212 -72.337137 
L 201.297767 -72.447709 
L 200.208322 -72.491502 
L 199.118877 -72.630331 
L 198.029433 -72.738384 
L 196.939988 -72.879219 
L 195.850543 -72.89733 
L 194.761098 -72.979217 
L 193.671653 -72.96393 
L 192.582209 -73.044449 
L 191.492764 -73.02989 
L 190.403319 -73.218787 
L 189.313874 -73.226465 
L 188.22443 -73.261667 
L 187.134985 -73.349671 
L 186.04554 -73.516337 
L 184.956095 -73.551909 
L 183.86665 -73.676397 
L 182.777206 -73.75997 
L 181.687761 -73.872094 
L 180.598316 -73.94687 
L 179.508871 -74.061813 
L 178.419426 -74.198267 
L 177.329982 -74.33604 
L 176.240537 -74.542797 
L 175.151092 -74.705378 
L 174.061647 -74.846345 
L 172.972203 -75.086895 
L 171.882758 -75.384833 
L 170.793313 -75.459689 
L 169.703868 -75.660361 
L 168.614423 -75.765185 
L 167.524979 -75.934674 
L 166.435534 -76.193326 
L 165.346089 -76.306819 
L 164.256644 -76.344894 
L 163.1672 -76.478174 
L 162.077755 -76.581462 
L 160.98831 -76.755792 
L 159.898865 -77.004624 
L 158.80942 -76.993322 
L 157.719976 -77.087083 
L 156.630531 -77.247266 
L 155.541086 -77.318171 
L 154.451641 -77.473413 
L 153.362196 -77.51613 
L 152.272752 -77.690587 
L 151.183307 -77.809204 
L 150.093862 -78.212901 
L 149.004417 -78.737627 
L 147.914973 -79.049376 
L 146.825528 -79.296819 
L 145.736083 -79.343993 
L 144.646638 -79.302011 
L 143.557193 -79.445561 
L 142.467749 -79.767195 
L 141.378304 -79.987739 
L 140.288859 -80.364439 
L 139.199414 -80.413932 
L 138.109969 -80.549746 
L 137.020525 -80.694966 
L 135.93108 -80.831764 
L 134.841635 -81.066205 
L 133.75219 -81.166254 
L 132.662746 -81.333542 
L 131.573301 -81.377393 
L 130.483856 -81.703051 
L 129.394411 -82.129417 
L 128.304966 -82.536826 
L 127.215522 -82.721746 
L 126.126077 -83.127905 
L 125.036632 -83.635781 
L 123.947187 -83.983624 
L 122.857743 -84.241695 
L 121.768298 -84.523589 
L 120.678853 -84.880885 
L 119.589408 -85.181896 
L 118.499963 -85.187688 
L 117.410519 -85.522537 
L 116.321074 -85.962928 
L 115.231629 -86.446216 
L 114.142184 -87.103291 
L 113.052739 -87.347849 
L 111.963295 -87.937973 
L 110.87385 -88.266975 
L 109.784405 -89.076718 
L 108.69496 -89.183464 
L 107.605516 -89.651679 
L 106.516071 -90.344892 
L 105.426626 -91.027921 
L 104.337181 -91.756635 
L 103.247736 -92.747906 
L 102.158292 -93.763216 
L 101.068847 -94.662269 
L 99.979402 -95.709373 
L 98.889957 -96.54004 
L 97.800513 -97.840022 
L 96.711068 -99.167935 
L 95.621623 -100.096497 
L 94.532178 -100.086777 
L 93.442733 -100.997584 
L 92.353289 -101.858506 
L 91.263844 -102.705273 
L 90.174399 -104.053757 
L 89.084954 -105.525072 
L 87.995509 -107.857067 
L 86.906065 -109.654357 
L 85.81662 -110.971363 
L 84.727175 -114.607825 
L 83.63773 -117.413342 
L 82.548286 -120.142481 
L 81.458841 -122.649745 
L 80.369396 -126.066385 
L 79.279951 -130.48451 
L 78.190506 -135.70651 
L 77.101062 -140.498981 
L 76.011617 -147.942248 
L 74.922172 -159.361686 
L 73.832727 -180.21828 
z
" id="m1a2220bdc0" style="stroke:#40a368;stroke-opacity:0.3;"/>
    </defs>
    <g clip-path="url(#pfe719cf9e4)">
     <use style="fill:#40a368;fill-opacity:0.3;stroke:#40a368;stroke-opacity:0.3;" x="0" xlink:href="#m1a2220bdc0" y="345.6"/>
    </g>
   </g>
   <g id="PolyCollection_4">
    <defs>
     <path d="M 73.832727 -184.814682 
L 73.832727 -173.536594 
L 74.922172 -152.595157 
L 76.011617 -139.494426 
L 77.101062 -129.909769 
L 78.190506 -123.286655 
L 79.279951 -119.710134 
L 80.369396 -116.835287 
L 81.458841 -114.177005 
L 82.548286 -112.0328 
L 83.63773 -110.129771 
L 84.727175 -107.590695 
L 85.81662 -105.147259 
L 86.906065 -104.508909 
L 87.995509 -102.233208 
L 89.084954 -100.476609 
L 90.174399 -99.14577 
L 91.263844 -97.698761 
L 92.353289 -96.783445 
L 93.442733 -95.886891 
L 94.532178 -94.790998 
L 95.621623 -93.474192 
L 96.711068 -92.730106 
L 97.800513 -92.11068 
L 98.889957 -91.636913 
L 99.979402 -91.2185 
L 101.068847 -90.500334 
L 102.158292 -90.254601 
L 103.247736 -89.637556 
L 104.337181 -89.227522 
L 105.426626 -88.326119 
L 106.516071 -87.819297 
L 107.605516 -86.892615 
L 108.69496 -87.038615 
L 109.784405 -86.161215 
L 110.87385 -86.073599 
L 111.963295 -85.757863 
L 113.052739 -84.928248 
L 114.142184 -84.679856 
L 115.231629 -84.16988 
L 116.321074 -83.59426 
L 117.410519 -83.42195 
L 118.499963 -83.008869 
L 119.589408 -83.306072 
L 120.678853 -82.968805 
L 121.768298 -82.796525 
L 122.857743 -82.608961 
L 123.947187 -82.408972 
L 125.036632 -81.767756 
L 126.126077 -81.570525 
L 127.215522 -80.949469 
L 128.304966 -80.451229 
L 129.394411 -80.337678 
L 130.483856 -80.24648 
L 131.573301 -80.367191 
L 132.662746 -80.127706 
L 133.75219 -80.111403 
L 134.841635 -79.799881 
L 135.93108 -79.70284 
L 137.020525 -79.718882 
L 138.109969 -79.46609 
L 139.199414 -79.387336 
L 140.288859 -79.271884 
L 141.378304 -78.946979 
L 142.467749 -78.712031 
L 143.557193 -78.400702 
L 144.646638 -78.246948 
L 145.736083 -77.890436 
L 146.825528 -77.661828 
L 147.914973 -77.395812 
L 149.004417 -77.149977 
L 150.093862 -76.919431 
L 151.183307 -76.64407 
L 152.272752 -76.337485 
L 153.362196 -75.911815 
L 154.451641 -75.784161 
L 155.541086 -75.59497 
L 156.630531 -75.297699 
L 157.719976 -75.026582 
L 158.80942 -74.892432 
L 159.898865 -74.764051 
L 160.98831 -74.835977 
L 162.077755 -74.721019 
L 163.1672 -74.538445 
L 164.256644 -74.362609 
L 165.346089 -74.154966 
L 166.435534 -74.048598 
L 167.524979 -73.808675 
L 168.614423 -73.626735 
L 169.703868 -73.543601 
L 170.793313 -73.420808 
L 171.882758 -73.231464 
L 172.972203 -72.913772 
L 174.061647 -72.889684 
L 175.151092 -72.833294 
L 176.240537 -72.854845 
L 177.329982 -72.801088 
L 178.419426 -72.810161 
L 179.508871 -72.854255 
L 180.598316 -72.755696 
L 181.687761 -72.68666 
L 182.777206 -72.601475 
L 183.86665 -72.524716 
L 184.956095 -72.367022 
L 186.04554 -72.203571 
L 187.134985 -72.10416 
L 188.22443 -71.963312 
L 189.313874 -71.837835 
L 190.403319 -71.958043 
L 191.492764 -71.887396 
L 192.582209 -71.914326 
L 193.671653 -71.789017 
L 194.761098 -71.820287 
L 195.850543 -71.619616 
L 196.939988 -71.570623 
L 198.029433 -71.414093 
L 199.118877 -71.297703 
L 200.208322 -71.392567 
L 201.297767 -71.240263 
L 202.387212 -71.142208 
L 203.476656 -71.123199 
L 204.566101 -71.13154 
L 205.655546 -71.077659 
L 206.744991 -70.897415 
L 207.834436 -70.725337 
L 208.92388 -70.685126 
L 210.013325 -70.506428 
L 211.10277 -70.514073 
L 212.192215 -70.374111 
L 213.28166 -70.173302 
L 214.371104 -70.068689 
L 215.460549 -69.887675 
L 216.549994 -69.845338 
L 217.639439 -69.789028 
L 218.728883 -69.751886 
L 219.818328 -69.68436 
L 220.907773 -69.670868 
L 221.997218 -69.586313 
L 223.086663 -69.4564 
L 224.176107 -69.400532 
L 225.265552 -69.315029 
L 226.354997 -69.227494 
L 227.444442 -69.326236 
L 228.533887 -69.392591 
L 229.623331 -69.261403 
L 230.712776 -69.183421 
L 231.802221 -69.076743 
L 232.891666 -68.991281 
L 233.98111 -69.00997 
L 235.070555 -68.855229 
L 236.16 -68.920372 
L 237.249445 -68.831887 
L 238.33889 -68.812515 
L 239.428334 -68.705109 
L 240.517779 -68.55932 
L 241.607224 -68.435556 
L 242.696669 -68.560535 
L 243.786113 -68.521548 
L 244.875558 -68.521807 
L 245.965003 -68.491692 
L 247.054448 -68.4865 
L 248.143893 -68.437843 
L 249.233337 -68.431808 
L 250.322782 -68.443791 
L 251.412227 -68.369789 
L 252.501672 -68.373654 
L 253.591117 -68.331205 
L 254.680561 -68.293607 
L 255.770006 -68.300827 
L 256.859451 -68.249864 
L 257.948896 -68.234875 
L 259.03834 -68.24295 
L 260.127785 -68.285 
L 261.21723 -68.285073 
L 262.306675 -68.202744 
L 263.39612 -68.186951 
L 264.485564 -68.110337 
L 265.575009 -68.073609 
L 266.664454 -68.028132 
L 267.753899 -68.067252 
L 268.843344 -68.03025 
L 269.932788 -68.077537 
L 271.022233 -68.027654 
L 272.111678 -68.03451 
L 273.201123 -67.975898 
L 274.290567 -67.963585 
L 275.380012 -67.907463 
L 276.469457 -67.98606 
L 277.558902 -67.928455 
L 278.648347 -67.888876 
L 279.737791 -67.956294 
L 280.827236 -67.902274 
L 281.916681 -67.816398 
L 283.006126 -67.788454 
L 284.09557 -67.715636 
L 285.185015 -67.680603 
L 286.27446 -67.614334 
L 287.363905 -67.692485 
L 288.45335 -67.658719 
L 289.542794 -67.630196 
L 290.632239 -67.562558 
L 291.721684 -67.529881 
L 292.811129 -67.540907 
L 293.900574 -67.517027 
L 294.990018 -67.504441 
L 296.079463 -67.450623 
L 297.168908 -67.41187 
L 298.258353 -67.459646 
L 299.347797 -67.429393 
L 300.437242 -67.37909 
L 301.526687 -67.39329 
L 302.616132 -67.331865 
L 303.705577 -67.294901 
L 304.795021 -67.241283 
L 305.884466 -67.203717 
L 306.973911 -67.141034 
L 308.063356 -67.144602 
L 309.1528 -67.118291 
L 310.242245 -67.08071 
L 311.33169 -67.131549 
L 312.421135 -67.129674 
L 313.51058 -67.077472 
L 314.600024 -67.144628 
L 315.689469 -67.149737 
L 316.778914 -67.145421 
L 317.868359 -67.155084 
L 318.957804 -67.195587 
L 320.047248 -67.222158 
L 321.136693 -67.207503 
L 322.226138 -67.165054 
L 323.315583 -67.040485 
L 324.405027 -67.011566 
L 325.494472 -66.979355 
L 326.583917 -66.939956 
L 327.673362 -67.056901 
L 328.762807 -67.051771 
L 329.852251 -67.037305 
L 330.941696 -67.036601 
L 332.031141 -67.005102 
L 333.120586 -66.920953 
L 334.210031 -66.932452 
L 335.299475 -66.954709 
L 336.38892 -66.90086 
L 337.478365 -66.873806 
L 338.56781 -66.790934 
L 339.657254 -66.769254 
L 340.746699 -66.736928 
L 341.836144 -66.780244 
L 342.925589 -66.676623 
L 344.015034 -66.577752 
L 345.104478 -66.626445 
L 346.193923 -66.689387 
L 347.283368 -66.692498 
L 348.372813 -66.648999 
L 349.462257 -66.602251 
L 350.551702 -66.531761 
L 351.641147 -66.460083 
L 352.730592 -66.461618 
L 353.820037 -66.426733 
L 354.909481 -66.379677 
L 355.998926 -66.333213 
L 357.088371 -66.322397 
L 358.177816 -66.309917 
L 359.267261 -66.26593 
L 360.356705 -66.270512 
L 361.44615 -66.267152 
L 362.535595 -66.22219 
L 363.62504 -66.193666 
L 364.714484 -66.180711 
L 365.803929 -66.176857 
L 366.893374 -66.157335 
L 367.982819 -66.17657 
L 369.072264 -66.128615 
L 370.161708 -66.090868 
L 371.251153 -66.057449 
L 372.340598 -66.058875 
L 373.430043 -65.96088 
L 374.519487 -65.92539 
L 375.608932 -65.95333 
L 376.698377 -65.944034 
L 377.787822 -65.864747 
L 378.877267 -65.833522 
L 379.966711 -65.80642 
L 381.056156 -65.785378 
L 382.145601 -65.825491 
L 383.235046 -65.730904 
L 384.324491 -65.7366 
L 385.413935 -65.730248 
L 386.50338 -65.697697 
L 387.592825 -65.635412 
L 388.68227 -65.595348 
L 389.771714 -65.618276 
L 390.861159 -65.608905 
L 391.950604 -65.619405 
L 393.040049 -65.619218 
L 394.129494 -65.663114 
L 395.218938 -65.710783 
L 396.308383 -65.716016 
L 397.397828 -65.660393 
L 398.487273 -65.633239 
L 398.487273 -67.037421 
L 398.487273 -67.037421 
L 397.397828 -67.073744 
L 396.308383 -67.148864 
L 395.218938 -67.153323 
L 394.129494 -67.158727 
L 393.040049 -67.115389 
L 391.950604 -67.07039 
L 390.861159 -67.048823 
L 389.771714 -67.071094 
L 388.68227 -67.044439 
L 387.592825 -67.086038 
L 386.50338 -67.108203 
L 385.413935 -67.174321 
L 384.324491 -67.164006 
L 383.235046 -67.155016 
L 382.145601 -67.230629 
L 381.056156 -67.258079 
L 379.966711 -67.304611 
L 378.877267 -67.282349 
L 377.787822 -67.327394 
L 376.698377 -67.405 
L 375.608932 -67.391708 
L 374.519487 -67.376159 
L 373.430043 -67.40585 
L 372.340598 -67.467378 
L 371.251153 -67.50695 
L 370.161708 -67.574516 
L 369.072264 -67.553157 
L 367.982819 -67.542798 
L 366.893374 -67.535111 
L 365.803929 -67.516454 
L 364.714484 -67.528903 
L 363.62504 -67.553837 
L 362.535595 -67.664128 
L 361.44615 -67.656842 
L 360.356705 -67.686088 
L 359.267261 -67.719347 
L 358.177816 -67.750606 
L 357.088371 -67.774471 
L 355.998926 -67.776195 
L 354.909481 -67.820528 
L 353.820037 -67.855177 
L 352.730592 -67.870995 
L 351.641147 -67.822581 
L 350.551702 -67.83627 
L 349.462257 -67.846514 
L 348.372813 -67.926859 
L 347.283368 -67.944689 
L 346.193923 -67.934939 
L 345.104478 -67.927972 
L 344.015034 -67.906101 
L 342.925589 -67.900676 
L 341.836144 -68.034567 
L 340.746699 -68.068372 
L 339.657254 -68.135917 
L 338.56781 -68.113175 
L 337.478365 -68.158589 
L 336.38892 -68.235653 
L 335.299475 -68.224302 
L 334.210031 -68.224915 
L 333.120586 -68.226092 
L 332.031141 -68.30111 
L 330.941696 -68.349396 
L 329.852251 -68.351434 
L 328.762807 -68.342197 
L 327.673362 -68.368333 
L 326.583917 -68.316301 
L 325.494472 -68.419263 
L 324.405027 -68.47886 
L 323.315583 -68.450244 
L 322.226138 -68.459801 
L 321.136693 -68.465634 
L 320.047248 -68.470792 
L 318.957804 -68.477668 
L 317.868359 -68.430267 
L 316.778914 -68.515443 
L 315.689469 -68.598595 
L 314.600024 -68.618823 
L 313.51058 -68.62376 
L 312.421135 -68.649963 
L 311.33169 -68.698114 
L 310.242245 -68.620177 
L 309.1528 -68.635974 
L 308.063356 -68.705286 
L 306.973911 -68.757856 
L 305.884466 -68.777559 
L 304.795021 -68.793283 
L 303.705577 -68.813988 
L 302.616132 -68.846656 
L 301.526687 -68.901344 
L 300.437242 -68.92804 
L 299.347797 -69.013208 
L 298.258353 -69.022198 
L 297.168908 -69.04134 
L 296.079463 -69.035432 
L 294.990018 -69.087183 
L 293.900574 -69.032915 
L 292.811129 -69.062758 
L 291.721684 -69.088318 
L 290.632239 -69.163365 
L 289.542794 -69.211886 
L 288.45335 -69.258756 
L 287.363905 -69.291219 
L 286.27446 -69.284065 
L 285.185015 -69.315839 
L 284.09557 -69.250988 
L 283.006126 -69.305982 
L 281.916681 -69.432728 
L 280.827236 -69.553383 
L 279.737791 -69.582127 
L 278.648347 -69.662396 
L 277.558902 -69.665852 
L 276.469457 -69.649682 
L 275.380012 -69.706305 
L 274.290567 -69.725963 
L 273.201123 -69.749944 
L 272.111678 -69.893328 
L 271.022233 -69.907833 
L 269.932788 -69.918388 
L 268.843344 -69.887323 
L 267.753899 -69.917957 
L 266.664454 -69.821177 
L 265.575009 -69.865175 
L 264.485564 -70.025627 
L 263.39612 -70.020323 
L 262.306675 -70.024124 
L 261.21723 -70.114229 
L 260.127785 -70.112133 
L 259.03834 -70.160352 
L 257.948896 -70.16286 
L 256.859451 -70.229813 
L 255.770006 -70.294092 
L 254.680561 -70.247556 
L 253.591117 -70.337286 
L 252.501672 -70.333095 
L 251.412227 -70.415825 
L 250.322782 -70.35829 
L 249.233337 -70.341437 
L 248.143893 -70.400184 
L 247.054448 -70.484957 
L 245.965003 -70.484763 
L 244.875558 -70.447673 
L 243.786113 -70.44913 
L 242.696669 -70.59507 
L 241.607224 -70.657965 
L 240.517779 -70.80225 
L 239.428334 -70.954541 
L 238.33889 -71.160551 
L 237.249445 -71.16532 
L 236.16 -71.29079 
L 235.070555 -71.407068 
L 233.98111 -71.528194 
L 232.891666 -71.517096 
L 231.802221 -71.598619 
L 230.712776 -71.621005 
L 229.623331 -71.616371 
L 228.533887 -71.592714 
L 227.444442 -71.569592 
L 226.354997 -71.691517 
L 225.265552 -71.805663 
L 224.176107 -71.988657 
L 223.086663 -71.8823 
L 221.997218 -72.05723 
L 220.907773 -72.165773 
L 219.818328 -72.239176 
L 218.728883 -72.19016 
L 217.639439 -72.387572 
L 216.549994 -72.457262 
L 215.460549 -72.520392 
L 214.371104 -72.631846 
L 213.28166 -72.90163 
L 212.192215 -72.954204 
L 211.10277 -73.188567 
L 210.013325 -73.252597 
L 208.92388 -73.284293 
L 207.834436 -73.146305 
L 206.744991 -73.223781 
L 205.655546 -73.333902 
L 204.566101 -73.401912 
L 203.476656 -73.320177 
L 202.387212 -73.41815 
L 201.297767 -73.512191 
L 200.208322 -73.589846 
L 199.118877 -73.488815 
L 198.029433 -73.585213 
L 196.939988 -73.614033 
L 195.850543 -73.732414 
L 194.761098 -73.878048 
L 193.671653 -73.976524 
L 192.582209 -73.9637 
L 191.492764 -73.977372 
L 190.403319 -73.817992 
L 189.313874 -73.82411 
L 188.22443 -73.906873 
L 187.134985 -73.995788 
L 186.04554 -74.182771 
L 184.956095 -74.373344 
L 183.86665 -74.481189 
L 182.777206 -74.494718 
L 181.687761 -74.453806 
L 180.598316 -74.447511 
L 179.508871 -74.647988 
L 178.419426 -74.851625 
L 177.329982 -75.037743 
L 176.240537 -75.144919 
L 175.151092 -75.317952 
L 174.061647 -75.394923 
L 172.972203 -75.503481 
L 171.882758 -75.72261 
L 170.793313 -75.910782 
L 169.703868 -75.859908 
L 168.614423 -75.906392 
L 167.524979 -76.027365 
L 166.435534 -76.171718 
L 165.346089 -76.244608 
L 164.256644 -76.536258 
L 163.1672 -76.678097 
L 162.077755 -76.93496 
L 160.98831 -77.104497 
L 159.898865 -76.930624 
L 158.80942 -77.206963 
L 157.719976 -77.286203 
L 156.630531 -77.484243 
L 155.541086 -77.519696 
L 154.451641 -77.641137 
L 153.362196 -77.919145 
L 152.272752 -77.966484 
L 151.183307 -78.061106 
L 150.093862 -78.321007 
L 149.004417 -78.263067 
L 147.914973 -78.616597 
L 146.825528 -78.806091 
L 145.736083 -78.972387 
L 144.646638 -79.466126 
L 143.557193 -79.754939 
L 142.467749 -79.980877 
L 141.378304 -80.201024 
L 140.288859 -80.585713 
L 139.199414 -80.869372 
L 138.109969 -81.295526 
L 137.020525 -81.49749 
L 135.93108 -81.480847 
L 134.841635 -81.572488 
L 133.75219 -81.659219 
L 132.662746 -81.596398 
L 131.573301 -81.759069 
L 130.483856 -81.567245 
L 129.394411 -81.676152 
L 128.304966 -81.832683 
L 127.215522 -82.050594 
L 126.126077 -82.533213 
L 125.036632 -82.795737 
L 123.947187 -82.99461 
L 122.857743 -83.279971 
L 121.768298 -83.568926 
L 120.678853 -84.166418 
L 119.589408 -84.658508 
L 118.499963 -84.588801 
L 117.410519 -85.091304 
L 116.321074 -85.26629 
L 115.231629 -86.017729 
L 114.142184 -86.51419 
L 113.052739 -87.173817 
L 111.963295 -87.569663 
L 110.87385 -87.742567 
L 109.784405 -88.020069 
L 108.69496 -88.839679 
L 107.605516 -89.221734 
L 106.516071 -90.005046 
L 105.426626 -91.076617 
L 104.337181 -91.803927 
L 103.247736 -91.831286 
L 102.158292 -92.714022 
L 101.068847 -93.772437 
L 99.979402 -94.169164 
L 98.889957 -95.129917 
L 97.800513 -96.485524 
L 96.711068 -97.343119 
L 95.621623 -97.871089 
L 94.532178 -99.042634 
L 93.442733 -99.651623 
L 92.353289 -100.859872 
L 91.263844 -102.105376 
L 90.174399 -102.703684 
L 89.084954 -104.589164 
L 87.995509 -105.988287 
L 86.906065 -106.735433 
L 85.81662 -107.852921 
L 84.727175 -110.398863 
L 83.63773 -112.643939 
L 82.548286 -113.156422 
L 81.458841 -115.8625 
L 80.369396 -118.955037 
L 79.279951 -125.962769 
L 78.190506 -130.260592 
L 77.101062 -134.858957 
L 76.011617 -143.668635 
L 74.922172 -159.311664 
L 73.832727 -184.814682 
z
" id="m49add3bcfd" style="stroke:#653700;stroke-opacity:0.3;"/>
    </defs>
    <g clip-path="url(#pfe719cf9e4)">
     <use style="fill:#653700;fill-opacity:0.3;stroke:#653700;stroke-opacity:0.3;" x="0" xlink:href="#m49add3bcfd" y="345.6"/>
    </g>
   </g>
   <g id="matplotlib.axis_1">
    <g id="xtick_1">
     <g id="line2d_1">
      <defs>
       <path d="M 0 0 
L 0 3.5 
" id="mc439099c02" style="stroke:#000000;stroke-width:0.8;"/>
      </defs>
      <g>
       <use style="stroke:#000000;stroke-width:0.8;" x="73.832727" xlink:href="#mc439099c02" y="307.584"/>
      </g>
     </g>
     <g id="text_1">
      <!-- 0 -->
      <g transform="translate(68.742727 326.7415)scale(0.16 -0.16)">
       <defs>
        <path d="M 2034 4250 
Q 1547 4250 1301 3770 
Q 1056 3291 1056 2328 
Q 1056 1369 1301 889 
Q 1547 409 2034 409 
Q 2525 409 2770 889 
Q 3016 1369 3016 2328 
Q 3016 3291 2770 3770 
Q 2525 4250 2034 4250 
z
M 2034 4750 
Q 2819 4750 3233 4129 
Q 3647 3509 3647 2328 
Q 3647 1150 3233 529 
Q 2819 -91 2034 -91 
Q 1250 -91 836 529 
Q 422 1150 422 2328 
Q 422 3509 836 4129 
Q 1250 4750 2034 4750 
z
" id="DejaVuSans-30" transform="scale(0.015625)"/>
       </defs>
       <use xlink:href="#DejaVuSans-30"/>
      </g>
     </g>
    </g>
    <g id="xtick_2">
     <g id="line2d_2">
      <g>
       <use style="stroke:#000000;stroke-width:0.8;" x="95.621623" xlink:href="#mc439099c02" y="307.584"/>
      </g>
     </g>
     <g id="text_2">
      <!-- 100 -->
      <g transform="translate(80.351623 326.7415)scale(0.16 -0.16)">
       <defs>
        <path d="M 794 531 
L 1825 531 
L 1825 4091 
L 703 3866 
L 703 4441 
L 1819 4666 
L 2450 4666 
L 2450 531 
L 3481 531 
L 3481 0 
L 794 0 
L 794 531 
z
" id="DejaVuSans-31" transform="scale(0.015625)"/>
       </defs>
       <use xlink:href="#DejaVuSans-31"/>
       <use x="63.623047" xlink:href="#DejaVuSans-30"/>
       <use x="127.246094" xlink:href="#DejaVuSans-30"/>
      </g>
     </g>
    </g>
    <g id="xtick_3">
     <g id="line2d_3">
      <g>
       <use style="stroke:#000000;stroke-width:0.8;" x="117.410519" xlink:href="#mc439099c02" y="307.584"/>
      </g>
     </g>
     <g id="text_3">
      <!-- 200 -->
      <g transform="translate(102.140519 326.7415)scale(0.16 -0.16)">
       <defs>
        <path d="M 1228 531 
L 3431 531 
L 3431 0 
L 469 0 
L 469 531 
Q 828 903 1448 1529 
Q 2069 2156 2228 2338 
Q 2531 2678 2651 2914 
Q 2772 3150 2772 3378 
Q 2772 3750 2511 3984 
Q 2250 4219 1831 4219 
Q 1534 4219 1204 4116 
Q 875 4013 500 3803 
L 500 4441 
Q 881 4594 1212 4672 
Q 1544 4750 1819 4750 
Q 2544 4750 2975 4387 
Q 3406 4025 3406 3419 
Q 3406 3131 3298 2873 
Q 3191 2616 2906 2266 
Q 2828 2175 2409 1742 
Q 1991 1309 1228 531 
z
" id="DejaVuSans-32" transform="scale(0.015625)"/>
       </defs>
       <use xlink:href="#DejaVuSans-32"/>
       <use x="63.623047" xlink:href="#DejaVuSans-30"/>
       <use x="127.246094" xlink:href="#DejaVuSans-30"/>
      </g>
     </g>
    </g>
    <g id="xtick_4">
     <g id="line2d_4">
      <g>
       <use style="stroke:#000000;stroke-width:0.8;" x="139.199414" xlink:href="#mc439099c02" y="307.584"/>
      </g>
     </g>
     <g id="text_4">
      <!-- 300 -->
      <g transform="translate(123.929414 326.7415)scale(0.16 -0.16)">
       <defs>
        <path d="M 2597 2516 
Q 3050 2419 3304 2112 
Q 3559 1806 3559 1356 
Q 3559 666 3084 287 
Q 2609 -91 1734 -91 
Q 1441 -91 1130 -33 
Q 819 25 488 141 
L 488 750 
Q 750 597 1062 519 
Q 1375 441 1716 441 
Q 2309 441 2620 675 
Q 2931 909 2931 1356 
Q 2931 1769 2642 2001 
Q 2353 2234 1838 2234 
L 1294 2234 
L 1294 2753 
L 1863 2753 
Q 2328 2753 2575 2939 
Q 2822 3125 2822 3475 
Q 2822 3834 2567 4026 
Q 2313 4219 1838 4219 
Q 1578 4219 1281 4162 
Q 984 4106 628 3988 
L 628 4550 
Q 988 4650 1302 4700 
Q 1616 4750 1894 4750 
Q 2613 4750 3031 4423 
Q 3450 4097 3450 3541 
Q 3450 3153 3228 2886 
Q 3006 2619 2597 2516 
z
" id="DejaVuSans-33" transform="scale(0.015625)"/>
       </defs>
       <use xlink:href="#DejaVuSans-33"/>
       <use x="63.623047" xlink:href="#DejaVuSans-30"/>
       <use x="127.246094" xlink:href="#DejaVuSans-30"/>
      </g>
     </g>
    </g>
    <g id="xtick_5">
     <g id="line2d_5">
      <g>
       <use style="stroke:#000000;stroke-width:0.8;" x="160.98831" xlink:href="#mc439099c02" y="307.584"/>
      </g>
     </g>
     <g id="text_5">
      <!-- 400 -->
      <g transform="translate(145.71831 326.7415)scale(0.16 -0.16)">
       <defs>
        <path d="M 2419 4116 
L 825 1625 
L 2419 1625 
L 2419 4116 
z
M 2253 4666 
L 3047 4666 
L 3047 1625 
L 3713 1625 
L 3713 1100 
L 3047 1100 
L 3047 0 
L 2419 0 
L 2419 1100 
L 313 1100 
L 313 1709 
L 2253 4666 
z
" id="DejaVuSans-34" transform="scale(0.015625)"/>
       </defs>
       <use xlink:href="#DejaVuSans-34"/>
       <use x="63.623047" xlink:href="#DejaVuSans-30"/>
       <use x="127.246094" xlink:href="#DejaVuSans-30"/>
      </g>
     </g>
    </g>
    <g id="xtick_6">
     <g id="line2d_6">
      <g>
       <use style="stroke:#000000;stroke-width:0.8;" x="182.777206" xlink:href="#mc439099c02" y="307.584"/>
      </g>
     </g>
     <g id="text_6">
      <!-- 500 -->
      <g transform="translate(167.507206 326.7415)scale(0.16 -0.16)">
       <defs>
        <path d="M 691 4666 
L 3169 4666 
L 3169 4134 
L 1269 4134 
L 1269 2991 
Q 1406 3038 1543 3061 
Q 1681 3084 1819 3084 
Q 2600 3084 3056 2656 
Q 3513 2228 3513 1497 
Q 3513 744 3044 326 
Q 2575 -91 1722 -91 
Q 1428 -91 1123 -41 
Q 819 9 494 109 
L 494 744 
Q 775 591 1075 516 
Q 1375 441 1709 441 
Q 2250 441 2565 725 
Q 2881 1009 2881 1497 
Q 2881 1984 2565 2268 
Q 2250 2553 1709 2553 
Q 1456 2553 1204 2497 
Q 953 2441 691 2322 
L 691 4666 
z
" id="DejaVuSans-35" transform="scale(0.015625)"/>
       </defs>
       <use xlink:href="#DejaVuSans-35"/>
       <use x="63.623047" xlink:href="#DejaVuSans-30"/>
       <use x="127.246094" xlink:href="#DejaVuSans-30"/>
      </g>
     </g>
    </g>
    <g id="xtick_7">
     <g id="line2d_7">
      <g>
       <use style="stroke:#000000;stroke-width:0.8;" x="204.566101" xlink:href="#mc439099c02" y="307.584"/>
      </g>
     </g>
     <g id="text_7">
      <!-- 600 -->
      <g transform="translate(189.296101 326.7415)scale(0.16 -0.16)">
       <defs>
        <path d="M 2113 2584 
Q 1688 2584 1439 2293 
Q 1191 2003 1191 1497 
Q 1191 994 1439 701 
Q 1688 409 2113 409 
Q 2538 409 2786 701 
Q 3034 994 3034 1497 
Q 3034 2003 2786 2293 
Q 2538 2584 2113 2584 
z
M 3366 4563 
L 3366 3988 
Q 3128 4100 2886 4159 
Q 2644 4219 2406 4219 
Q 1781 4219 1451 3797 
Q 1122 3375 1075 2522 
Q 1259 2794 1537 2939 
Q 1816 3084 2150 3084 
Q 2853 3084 3261 2657 
Q 3669 2231 3669 1497 
Q 3669 778 3244 343 
Q 2819 -91 2113 -91 
Q 1303 -91 875 529 
Q 447 1150 447 2328 
Q 447 3434 972 4092 
Q 1497 4750 2381 4750 
Q 2619 4750 2861 4703 
Q 3103 4656 3366 4563 
z
" id="DejaVuSans-36" transform="scale(0.015625)"/>
       </defs>
       <use xlink:href="#DejaVuSans-36"/>
       <use x="63.623047" xlink:href="#DejaVuSans-30"/>
       <use x="127.246094" xlink:href="#DejaVuSans-30"/>
      </g>
     </g>
    </g>
    <g id="xtick_8">
     <g id="line2d_8">
      <g>
       <use style="stroke:#000000;stroke-width:0.8;" x="226.354997" xlink:href="#mc439099c02" y="307.584"/>
      </g>
     </g>
     <g id="text_8">
      <!-- 700 -->
      <g transform="translate(211.084997 326.7415)scale(0.16 -0.16)">
       <defs>
        <path d="M 525 4666 
L 3525 4666 
L 3525 4397 
L 1831 0 
L 1172 0 
L 2766 4134 
L 525 4134 
L 525 4666 
z
" id="DejaVuSans-37" transform="scale(0.015625)"/>
       </defs>
       <use xlink:href="#DejaVuSans-37"/>
       <use x="63.623047" xlink:href="#DejaVuSans-30"/>
       <use x="127.246094" xlink:href="#DejaVuSans-30"/>
      </g>
     </g>
    </g>
    <g id="text_9">
     <!-- Number of resamples -->
     <g transform="translate(149.94125 346.2265)scale(0.16 -0.16)">
      <defs>
       <path d="M 628 4666 
L 1478 4666 
L 3547 763 
L 3547 4666 
L 4159 4666 
L 4159 0 
L 3309 0 
L 1241 3903 
L 1241 0 
L 628 0 
L 628 4666 
z
" id="DejaVuSans-4e" transform="scale(0.015625)"/>
       <path d="M 544 1381 
L 544 3500 
L 1119 3500 
L 1119 1403 
Q 1119 906 1312 657 
Q 1506 409 1894 409 
Q 2359 409 2629 706 
Q 2900 1003 2900 1516 
L 2900 3500 
L 3475 3500 
L 3475 0 
L 2900 0 
L 2900 538 
Q 2691 219 2414 64 
Q 2138 -91 1772 -91 
Q 1169 -91 856 284 
Q 544 659 544 1381 
z
M 1991 3584 
L 1991 3584 
z
" id="DejaVuSans-75" transform="scale(0.015625)"/>
       <path d="M 3328 2828 
Q 3544 3216 3844 3400 
Q 4144 3584 4550 3584 
Q 5097 3584 5394 3201 
Q 5691 2819 5691 2113 
L 5691 0 
L 5113 0 
L 5113 2094 
Q 5113 2597 4934 2840 
Q 4756 3084 4391 3084 
Q 3944 3084 3684 2787 
Q 3425 2491 3425 1978 
L 3425 0 
L 2847 0 
L 2847 2094 
Q 2847 2600 2669 2842 
Q 2491 3084 2119 3084 
Q 1678 3084 1418 2786 
Q 1159 2488 1159 1978 
L 1159 0 
L 581 0 
L 581 3500 
L 1159 3500 
L 1159 2956 
Q 1356 3278 1631 3431 
Q 1906 3584 2284 3584 
Q 2666 3584 2933 3390 
Q 3200 3197 3328 2828 
z
" id="DejaVuSans-6d" transform="scale(0.015625)"/>
       <path d="M 3116 1747 
Q 3116 2381 2855 2742 
Q 2594 3103 2138 3103 
Q 1681 3103 1420 2742 
Q 1159 2381 1159 1747 
Q 1159 1113 1420 752 
Q 1681 391 2138 391 
Q 2594 391 2855 752 
Q 3116 1113 3116 1747 
z
M 1159 2969 
Q 1341 3281 1617 3432 
Q 1894 3584 2278 3584 
Q 2916 3584 3314 3078 
Q 3713 2572 3713 1747 
Q 3713 922 3314 415 
Q 2916 -91 2278 -91 
Q 1894 -91 1617 61 
Q 1341 213 1159 525 
L 1159 0 
L 581 0 
L 581 4863 
L 1159 4863 
L 1159 2969 
z
" id="DejaVuSans-62" transform="scale(0.015625)"/>
       <path d="M 3597 1894 
L 3597 1613 
L 953 1613 
Q 991 1019 1311 708 
Q 1631 397 2203 397 
Q 2534 397 2845 478 
Q 3156 559 3463 722 
L 3463 178 
Q 3153 47 2828 -22 
Q 2503 -91 2169 -91 
Q 1331 -91 842 396 
Q 353 884 353 1716 
Q 353 2575 817 3079 
Q 1281 3584 2069 3584 
Q 2775 3584 3186 3129 
Q 3597 2675 3597 1894 
z
M 3022 2063 
Q 3016 2534 2758 2815 
Q 2500 3097 2075 3097 
Q 1594 3097 1305 2825 
Q 1016 2553 972 2059 
L 3022 2063 
z
" id="DejaVuSans-65" transform="scale(0.015625)"/>
       <path d="M 2631 2963 
Q 2534 3019 2420 3045 
Q 2306 3072 2169 3072 
Q 1681 3072 1420 2755 
Q 1159 2438 1159 1844 
L 1159 0 
L 581 0 
L 581 3500 
L 1159 3500 
L 1159 2956 
Q 1341 3275 1631 3429 
Q 1922 3584 2338 3584 
Q 2397 3584 2469 3576 
Q 2541 3569 2628 3553 
L 2631 2963 
z
" id="DejaVuSans-72" transform="scale(0.015625)"/>
       <path id="DejaVuSans-20" transform="scale(0.015625)"/>
       <path d="M 1959 3097 
Q 1497 3097 1228 2736 
Q 959 2375 959 1747 
Q 959 1119 1226 758 
Q 1494 397 1959 397 
Q 2419 397 2687 759 
Q 2956 1122 2956 1747 
Q 2956 2369 2687 2733 
Q 2419 3097 1959 3097 
z
M 1959 3584 
Q 2709 3584 3137 3096 
Q 3566 2609 3566 1747 
Q 3566 888 3137 398 
Q 2709 -91 1959 -91 
Q 1206 -91 779 398 
Q 353 888 353 1747 
Q 353 2609 779 3096 
Q 1206 3584 1959 3584 
z
" id="DejaVuSans-6f" transform="scale(0.015625)"/>
       <path d="M 2375 4863 
L 2375 4384 
L 1825 4384 
Q 1516 4384 1395 4259 
Q 1275 4134 1275 3809 
L 1275 3500 
L 2222 3500 
L 2222 3053 
L 1275 3053 
L 1275 0 
L 697 0 
L 697 3053 
L 147 3053 
L 147 3500 
L 697 3500 
L 697 3744 
Q 697 4328 969 4595 
Q 1241 4863 1831 4863 
L 2375 4863 
z
" id="DejaVuSans-66" transform="scale(0.015625)"/>
       <path d="M 2834 3397 
L 2834 2853 
Q 2591 2978 2328 3040 
Q 2066 3103 1784 3103 
Q 1356 3103 1142 2972 
Q 928 2841 928 2578 
Q 928 2378 1081 2264 
Q 1234 2150 1697 2047 
L 1894 2003 
Q 2506 1872 2764 1633 
Q 3022 1394 3022 966 
Q 3022 478 2636 193 
Q 2250 -91 1575 -91 
Q 1294 -91 989 -36 
Q 684 19 347 128 
L 347 722 
Q 666 556 975 473 
Q 1284 391 1588 391 
Q 1994 391 2212 530 
Q 2431 669 2431 922 
Q 2431 1156 2273 1281 
Q 2116 1406 1581 1522 
L 1381 1569 
Q 847 1681 609 1914 
Q 372 2147 372 2553 
Q 372 3047 722 3315 
Q 1072 3584 1716 3584 
Q 2034 3584 2315 3537 
Q 2597 3491 2834 3397 
z
" id="DejaVuSans-73" transform="scale(0.015625)"/>
       <path d="M 2194 1759 
Q 1497 1759 1228 1600 
Q 959 1441 959 1056 
Q 959 750 1161 570 
Q 1363 391 1709 391 
Q 2188 391 2477 730 
Q 2766 1069 2766 1631 
L 2766 1759 
L 2194 1759 
z
M 3341 1997 
L 3341 0 
L 2766 0 
L 2766 531 
Q 2569 213 2275 61 
Q 1981 -91 1556 -91 
Q 1019 -91 701 211 
Q 384 513 384 1019 
Q 384 1609 779 1909 
Q 1175 2209 1959 2209 
L 2766 2209 
L 2766 2266 
Q 2766 2663 2505 2880 
Q 2244 3097 1772 3097 
Q 1472 3097 1187 3025 
Q 903 2953 641 2809 
L 641 3341 
Q 956 3463 1253 3523 
Q 1550 3584 1831 3584 
Q 2591 3584 2966 3190 
Q 3341 2797 3341 1997 
z
" id="DejaVuSans-61" transform="scale(0.015625)"/>
       <path d="M 1159 525 
L 1159 -1331 
L 581 -1331 
L 581 3500 
L 1159 3500 
L 1159 2969 
Q 1341 3281 1617 3432 
Q 1894 3584 2278 3584 
Q 2916 3584 3314 3078 
Q 3713 2572 3713 1747 
Q 3713 922 3314 415 
Q 2916 -91 2278 -91 
Q 1894 -91 1617 61 
Q 1341 213 1159 525 
z
M 3116 1747 
Q 3116 2381 2855 2742 
Q 2594 3103 2138 3103 
Q 1681 3103 1420 2742 
Q 1159 2381 1159 1747 
Q 1159 1113 1420 752 
Q 1681 391 2138 391 
Q 2594 391 2855 752 
Q 3116 1113 3116 1747 
z
" id="DejaVuSans-70" transform="scale(0.015625)"/>
       <path d="M 603 4863 
L 1178 4863 
L 1178 0 
L 603 0 
L 603 4863 
z
" id="DejaVuSans-6c" transform="scale(0.015625)"/>
      </defs>
      <use xlink:href="#DejaVuSans-4e"/>
      <use x="74.804688" xlink:href="#DejaVuSans-75"/>
      <use x="138.183594" xlink:href="#DejaVuSans-6d"/>
      <use x="235.595703" xlink:href="#DejaVuSans-62"/>
      <use x="299.072266" xlink:href="#DejaVuSans-65"/>
      <use x="360.595703" xlink:href="#DejaVuSans-72"/>
      <use x="401.708984" xlink:href="#DejaVuSans-20"/>
      <use x="433.496094" xlink:href="#DejaVuSans-6f"/>
      <use x="494.677734" xlink:href="#DejaVuSans-66"/>
      <use x="529.882812" xlink:href="#DejaVuSans-20"/>
      <use x="561.669922" xlink:href="#DejaVuSans-72"/>
      <use x="600.533203" xlink:href="#DejaVuSans-65"/>
      <use x="662.056641" xlink:href="#DejaVuSans-73"/>
      <use x="714.15625" xlink:href="#DejaVuSans-61"/>
      <use x="775.435547" xlink:href="#DejaVuSans-6d"/>
      <use x="872.847656" xlink:href="#DejaVuSans-70"/>
      <use x="936.324219" xlink:href="#DejaVuSans-6c"/>
      <use x="964.107422" xlink:href="#DejaVuSans-65"/>
      <use x="1025.630859" xlink:href="#DejaVuSans-73"/>
     </g>
    </g>
   </g>
   <g id="matplotlib.axis_2">
    <g id="ytick_1">
     <g id="line2d_9">
      <defs>
       <path d="M 0 0 
L -3.5 0 
" id="m38e0f0e9de" style="stroke:#000000;stroke-width:0.8;"/>
      </defs>
      <g>
       <use style="stroke:#000000;stroke-width:0.8;" x="57.6" xlink:href="#m38e0f0e9de" y="300.609111"/>
      </g>
     </g>
     <g id="text_10">
      <!-- 0.0 -->
      <g transform="translate(25.155 306.687861)scale(0.16 -0.16)">
       <defs>
        <path d="M 684 794 
L 1344 794 
L 1344 0 
L 684 0 
L 684 794 
z
" id="DejaVuSans-2e" transform="scale(0.015625)"/>
       </defs>
       <use xlink:href="#DejaVuSans-30"/>
       <use x="63.623047" xlink:href="#DejaVuSans-2e"/>
       <use x="95.410156" xlink:href="#DejaVuSans-30"/>
      </g>
     </g>
    </g>
    <g id="ytick_2">
     <g id="line2d_10">
      <g>
       <use style="stroke:#000000;stroke-width:0.8;" x="57.6" xlink:href="#m38e0f0e9de" y="239.981333"/>
      </g>
     </g>
     <g id="text_11">
      <!-- 0.5 -->
      <g transform="translate(25.155 246.060083)scale(0.16 -0.16)">
       <use xlink:href="#DejaVuSans-30"/>
       <use x="63.623047" xlink:href="#DejaVuSans-2e"/>
       <use x="95.410156" xlink:href="#DejaVuSans-35"/>
      </g>
     </g>
    </g>
    <g id="ytick_3">
     <g id="line2d_11">
      <g>
       <use style="stroke:#000000;stroke-width:0.8;" x="57.6" xlink:href="#m38e0f0e9de" y="179.353556"/>
      </g>
     </g>
     <g id="text_12">
      <!-- 1.0 -->
      <g transform="translate(25.155 185.432306)scale(0.16 -0.16)">
       <use xlink:href="#DejaVuSans-31"/>
       <use x="63.623047" xlink:href="#DejaVuSans-2e"/>
       <use x="95.410156" xlink:href="#DejaVuSans-30"/>
      </g>
     </g>
    </g>
    <g id="ytick_4">
     <g id="line2d_12">
      <g>
       <use style="stroke:#000000;stroke-width:0.8;" x="57.6" xlink:href="#m38e0f0e9de" y="118.725778"/>
      </g>
     </g>
     <g id="text_13">
      <!-- 1.5 -->
      <g transform="translate(25.155 124.804528)scale(0.16 -0.16)">
       <use xlink:href="#DejaVuSans-31"/>
       <use x="63.623047" xlink:href="#DejaVuSans-2e"/>
       <use x="95.410156" xlink:href="#DejaVuSans-35"/>
      </g>
     </g>
    </g>
    <g id="ytick_5">
     <g id="line2d_13">
      <g>
       <use style="stroke:#000000;stroke-width:0.8;" x="57.6" xlink:href="#m38e0f0e9de" y="58.098001"/>
      </g>
     </g>
     <g id="text_14">
      <!-- 2.0 -->
      <g transform="translate(25.155 64.176751)scale(0.16 -0.16)">
       <use xlink:href="#DejaVuSans-32"/>
       <use x="63.623047" xlink:href="#DejaVuSans-2e"/>
       <use x="95.410156" xlink:href="#DejaVuSans-30"/>
      </g>
     </g>
    </g>
    <g id="text_15">
     <!-- Sampling Errors -->
     <g transform="translate(17.8275 238.1805)rotate(-90)scale(0.16 -0.16)">
      <defs>
       <path d="M 3425 4513 
L 3425 3897 
Q 3066 4069 2747 4153 
Q 2428 4238 2131 4238 
Q 1616 4238 1336 4038 
Q 1056 3838 1056 3469 
Q 1056 3159 1242 3001 
Q 1428 2844 1947 2747 
L 2328 2669 
Q 3034 2534 3370 2195 
Q 3706 1856 3706 1288 
Q 3706 609 3251 259 
Q 2797 -91 1919 -91 
Q 1588 -91 1214 -16 
Q 841 59 441 206 
L 441 856 
Q 825 641 1194 531 
Q 1563 422 1919 422 
Q 2459 422 2753 634 
Q 3047 847 3047 1241 
Q 3047 1584 2836 1778 
Q 2625 1972 2144 2069 
L 1759 2144 
Q 1053 2284 737 2584 
Q 422 2884 422 3419 
Q 422 4038 858 4394 
Q 1294 4750 2059 4750 
Q 2388 4750 2728 4690 
Q 3069 4631 3425 4513 
z
" id="DejaVuSans-53" transform="scale(0.015625)"/>
       <path d="M 603 3500 
L 1178 3500 
L 1178 0 
L 603 0 
L 603 3500 
z
M 603 4863 
L 1178 4863 
L 1178 4134 
L 603 4134 
L 603 4863 
z
" id="DejaVuSans-69" transform="scale(0.015625)"/>
       <path d="M 3513 2113 
L 3513 0 
L 2938 0 
L 2938 2094 
Q 2938 2591 2744 2837 
Q 2550 3084 2163 3084 
Q 1697 3084 1428 2787 
Q 1159 2491 1159 1978 
L 1159 0 
L 581 0 
L 581 3500 
L 1159 3500 
L 1159 2956 
Q 1366 3272 1645 3428 
Q 1925 3584 2291 3584 
Q 2894 3584 3203 3211 
Q 3513 2838 3513 2113 
z
" id="DejaVuSans-6e" transform="scale(0.015625)"/>
       <path d="M 2906 1791 
Q 2906 2416 2648 2759 
Q 2391 3103 1925 3103 
Q 1463 3103 1205 2759 
Q 947 2416 947 1791 
Q 947 1169 1205 825 
Q 1463 481 1925 481 
Q 2391 481 2648 825 
Q 2906 1169 2906 1791 
z
M 3481 434 
Q 3481 -459 3084 -895 
Q 2688 -1331 1869 -1331 
Q 1566 -1331 1297 -1286 
Q 1028 -1241 775 -1147 
L 775 -588 
Q 1028 -725 1275 -790 
Q 1522 -856 1778 -856 
Q 2344 -856 2625 -561 
Q 2906 -266 2906 331 
L 2906 616 
Q 2728 306 2450 153 
Q 2172 0 1784 0 
Q 1141 0 747 490 
Q 353 981 353 1791 
Q 353 2603 747 3093 
Q 1141 3584 1784 3584 
Q 2172 3584 2450 3431 
Q 2728 3278 2906 2969 
L 2906 3500 
L 3481 3500 
L 3481 434 
z
" id="DejaVuSans-67" transform="scale(0.015625)"/>
       <path d="M 628 4666 
L 3578 4666 
L 3578 4134 
L 1259 4134 
L 1259 2753 
L 3481 2753 
L 3481 2222 
L 1259 2222 
L 1259 531 
L 3634 531 
L 3634 0 
L 628 0 
L 628 4666 
z
" id="DejaVuSans-45" transform="scale(0.015625)"/>
      </defs>
      <use xlink:href="#DejaVuSans-53"/>
      <use x="63.476562" xlink:href="#DejaVuSans-61"/>
      <use x="124.755859" xlink:href="#DejaVuSans-6d"/>
      <use x="222.167969" xlink:href="#DejaVuSans-70"/>
      <use x="285.644531" xlink:href="#DejaVuSans-6c"/>
      <use x="313.427734" xlink:href="#DejaVuSans-69"/>
      <use x="341.210938" xlink:href="#DejaVuSans-6e"/>
      <use x="404.589844" xlink:href="#DejaVuSans-67"/>
      <use x="468.066406" xlink:href="#DejaVuSans-20"/>
      <use x="499.853516" xlink:href="#DejaVuSans-45"/>
      <use x="563.037109" xlink:href="#DejaVuSans-72"/>
      <use x="602.400391" xlink:href="#DejaVuSans-72"/>
      <use x="641.263672" xlink:href="#DejaVuSans-6f"/>
      <use x="702.445312" xlink:href="#DejaVuSans-72"/>
      <use x="743.558594" xlink:href="#DejaVuSans-73"/>
     </g>
    </g>
   </g>
   <g id="line2d_14">
    <path clip-path="url(#pfe719cf9e4)" d="M 73.832727 170.943437 
L 74.922172 200.125083 
L 76.011617 212.61955 
L 77.101062 220.609329 
L 79.279951 233.862984 
L 80.369396 238.224557 
L 82.548286 244.429574 
L 84.727175 248.754218 
L 85.81662 250.310564 
L 86.906065 251.359362 
L 87.995509 252.996518 
L 89.084954 254.98906 
L 90.174399 255.849552 
L 91.263844 256.993542 
L 92.353289 257.904221 
L 93.442733 259.185149 
L 94.532178 259.849076 
L 95.621623 261.130936 
L 96.711068 261.94359 
L 97.800513 262.373623 
L 98.889957 263.216864 
L 101.068847 264.395163 
L 102.158292 264.869634 
L 103.247736 265.841023 
L 104.337181 266.453588 
L 105.426626 267.383341 
L 106.516071 267.858764 
L 107.605516 268.639918 
L 109.784405 269.79358 
L 113.052739 271.168211 
L 115.231629 272.188449 
L 116.321074 272.554502 
L 117.410519 272.544941 
L 123.947187 275.075636 
L 125.036632 275.26655 
L 126.126077 275.744419 
L 130.483856 277.003936 
L 133.75219 277.673858 
L 134.841635 278.040689 
L 137.020525 278.502625 
L 139.199414 279.139656 
L 140.288859 279.390594 
L 143.557193 279.830774 
L 150.093862 281.266821 
L 154.451641 281.820829 
L 157.719976 282.530099 
L 158.80942 282.872101 
L 162.077755 283.137124 
L 167.524979 283.925855 
L 169.703868 284.208502 
L 175.151092 284.927628 
L 177.329982 285.359707 
L 182.777206 285.998899 
L 183.86665 286.005334 
L 188.22443 286.63504 
L 190.403319 286.788034 
L 191.492764 286.883137 
L 193.671653 287.398606 
L 200.208322 287.981043 
L 201.297767 288.10732 
L 203.476656 288.177933 
L 207.834436 288.458886 
L 210.013325 288.740564 
L 211.10277 288.780745 
L 212.192215 288.942535 
L 214.371104 289.055835 
L 242.696669 290.966717 
L 245.965003 291.060745 
L 255.770006 291.547178 
L 260.127785 291.895009 
L 264.485564 292.028889 
L 267.753899 292.113578 
L 277.558902 292.54231 
L 283.006126 292.664959 
L 285.185015 292.745844 
L 294.990018 292.940687 
L 297.168908 293.041186 
L 303.705577 293.05078 
L 305.884466 293.26791 
L 308.063356 293.286245 
L 320.047248 293.694729 
L 322.226138 293.664063 
L 339.657254 294.143391 
L 344.015034 294.214826 
L 348.372813 294.361639 
L 352.730592 294.564902 
L 361.44615 294.681808 
L 366.893374 294.848768 
L 383.235046 295.09974 
L 386.50338 295.196083 
L 391.950604 295.195209 
L 395.218938 295.318413 
L 398.487273 295.362709 
L 398.487273 295.362709 
" style="fill:none;stroke:#f97306;stroke-linecap:square;stroke-width:1.5;"/>
   </g>
   <g id="line2d_15">
    <path clip-path="url(#pfe719cf9e4)" d="M 73.832727 132.581967 
L 74.922172 131.52801 
L 76.011617 130.097541 
L 77.101062 128.852444 
L 78.190506 128.395654 
L 79.279951 128.27148 
L 80.369396 127.958689 
L 81.458841 127.963336 
L 82.548286 127.8895 
L 83.63773 127.82223 
L 84.727175 127.814116 
L 85.81662 127.907027 
L 86.906065 127.93846 
L 87.995509 128.059399 
L 89.084954 128.051228 
L 90.174399 128.055987 
L 91.263844 128.12753 
L 92.353289 128.19197 
L 93.442733 128.199714 
" style="fill:none;stroke:#5a7d9a;stroke-linecap:square;stroke-width:1.5;"/>
   </g>
   <g id="line2d_16">
    <path clip-path="url(#pfe719cf9e4)" d="M 57.6 128.199714 
L 414.72 128.199714 
" style="fill:none;stroke:#5a7d9a;stroke-dasharray:5.55,2.4;stroke-dashoffset:0;stroke-opacity:0.4;stroke-width:1.5;"/>
   </g>
   <g id="line2d_17">
    <path clip-path="url(#pfe719cf9e4)" d="M 73.832727 169.701393 
L 74.922172 191.496437 
L 76.011617 202.672944 
L 77.101062 209.314778 
L 78.190506 212.85025 
L 80.369396 223.469009 
L 81.458841 227.344113 
L 82.548286 229.46801 
L 83.63773 232.168478 
L 84.727175 234.128385 
L 85.81662 236.715541 
L 87.995509 239.491042 
L 89.084954 241.690696 
L 90.174399 243.439791 
L 93.442733 246.24058 
L 95.621623 247.43401 
L 97.800513 249.354415 
L 98.889957 250.458929 
L 101.068847 251.922849 
L 103.247736 253.738113 
L 105.426626 255.132608 
L 106.516071 255.944065 
L 107.605516 256.616351 
L 108.69496 256.968509 
L 109.784405 257.173807 
L 111.963295 258.248468 
L 113.052739 258.792831 
L 114.142184 259.009444 
L 116.321074 259.961469 
L 118.499963 260.761673 
L 119.589408 260.984611 
L 121.768298 261.776573 
L 122.857743 261.947057 
L 128.304966 263.465867 
L 135.93108 265.194995 
L 141.378304 266.027925 
L 144.646638 266.772366 
L 147.914973 267.136729 
L 150.093862 267.744455 
L 151.183307 268.059831 
L 172.972203 271.015639 
L 175.151092 271.319433 
L 182.777206 272.498056 
L 186.04554 272.774876 
L 190.403319 273.097866 
L 191.492764 273.267207 
L 192.582209 273.284742 
L 195.850543 273.686073 
L 196.939988 273.713147 
L 200.208322 274.118396 
L 204.566101 274.474845 
L 208.92388 275.026829 
L 214.371104 275.501216 
L 216.549994 275.521019 
L 230.712776 276.370907 
L 232.891666 276.400297 
L 235.070555 276.645562 
L 237.249445 276.87562 
L 239.428334 276.936633 
L 268.843344 279.002627 
L 273.201123 279.198588 
L 279.737791 279.473318 
L 287.363905 279.753987 
L 291.721684 279.9982 
L 293.900574 280.064972 
L 299.347797 280.329303 
L 305.884466 280.646681 
L 308.063356 280.660258 
L 311.33169 280.821263 
L 321.136693 281.10253 
L 328.762807 281.52859 
L 337.478365 281.77254 
L 339.657254 281.875013 
L 344.015034 282.012433 
L 349.462257 282.218126 
L 358.177816 282.512421 
L 362.535595 282.585285 
L 367.982819 282.728033 
L 375.608932 283.046684 
L 381.056156 283.127477 
L 398.487273 283.646317 
L 398.487273 283.646317 
" style="fill:none;stroke:#40a368;stroke-linecap:square;stroke-width:1.5;"/>
   </g>
   <g id="line2d_18">
    <path clip-path="url(#pfe719cf9e4)" d="M 57.6 283.646317 
L 414.72 283.646317 
" style="fill:none;stroke:#40a368;stroke-dasharray:5.55,2.4;stroke-dashoffset:0;stroke-opacity:0.4;stroke-width:1.5;"/>
   </g>
   <g id="line2d_19">
    <path clip-path="url(#pfe719cf9e4)" d="M 73.832727 166.424362 
L 74.922172 189.64659 
L 76.011617 204.018469 
L 77.101062 213.215637 
L 78.190506 218.826377 
L 79.279951 222.763549 
L 80.369396 227.704838 
L 81.458841 230.580247 
L 82.548286 233.005389 
L 83.63773 234.213145 
L 85.81662 239.09991 
L 86.906065 239.977829 
L 90.174399 244.675273 
L 95.621623 249.927359 
L 97.800513 251.301898 
L 98.889957 252.216585 
L 99.979402 252.906168 
L 102.158292 254.115689 
L 103.247736 254.865579 
L 104.337181 255.084276 
L 107.605516 257.542825 
L 108.69496 257.660853 
L 109.784405 258.509358 
L 111.963295 258.936237 
L 113.052739 259.548968 
L 115.231629 260.506195 
L 116.321074 261.169725 
L 117.410519 261.343373 
L 118.499963 261.801165 
L 119.589408 261.61771 
L 121.768298 262.417274 
L 123.947187 262.898209 
L 125.036632 263.318253 
L 126.126077 263.548131 
L 127.215522 264.099969 
L 128.304966 264.458044 
L 130.483856 264.693138 
L 131.573301 264.53687 
L 132.662746 264.737948 
L 133.75219 264.714689 
L 135.93108 265.008156 
L 137.020525 264.991814 
L 140.288859 265.671201 
L 141.378304 266.025999 
L 144.646638 266.743463 
L 145.736083 267.168588 
L 147.914973 267.593796 
L 149.004417 267.893478 
L 150.093862 267.979781 
L 153.362196 268.68452 
L 157.719976 269.443608 
L 159.898865 269.752662 
L 160.98831 269.629763 
L 164.256644 270.150567 
L 165.346089 270.400213 
L 167.524979 270.68198 
L 169.703868 270.898246 
L 170.793313 270.934205 
L 174.061647 271.457696 
L 179.508871 271.848879 
L 180.598316 271.998396 
L 184.956095 272.229817 
L 188.22443 272.664908 
L 189.313874 272.769027 
L 192.582209 272.660987 
L 195.850543 272.923985 
L 199.118877 273.206741 
L 200.208322 273.108794 
L 203.476656 273.378312 
L 205.655546 273.39422 
L 207.834436 273.664179 
L 208.92388 273.615291 
L 214.371104 274.249733 
L 216.549994 274.4487 
L 225.265552 275.039654 
L 227.444442 275.152086 
L 229.623331 275.161113 
L 233.98111 275.330918 
L 235.070555 275.468852 
L 238.33889 275.613467 
L 241.607224 276.05324 
L 242.696669 276.022197 
L 244.875558 276.11526 
L 248.143893 276.180986 
L 259.03834 276.398349 
L 263.39612 276.496363 
L 269.932788 276.602038 
L 283.006126 277.052782 
L 286.27446 277.150801 
L 288.45335 277.141263 
L 297.168908 277.373395 
L 299.347797 277.378699 
L 303.705577 277.545555 
L 310.242245 277.749557 
L 312.421135 277.710182 
L 317.868359 277.807325 
L 321.136693 277.763431 
L 391.950604 279.255102 
L 397.397828 279.232931 
L 398.487273 279.26467 
L 398.487273 279.26467 
" style="fill:none;stroke:#653700;stroke-linecap:square;stroke-width:1.5;"/>
   </g>
   <g id="line2d_20">
    <path clip-path="url(#pfe719cf9e4)" d="M 57.6 279.26467 
L 414.72 279.26467 
" style="fill:none;stroke:#653700;stroke-dasharray:5.55,2.4;stroke-dashoffset:0;stroke-opacity:0.4;stroke-width:1.5;"/>
   </g>
   <g id="patch_3">
    <path d="M 57.6 307.584 
L 57.6 41.472 
" style="fill:none;stroke:#000000;stroke-linecap:square;stroke-linejoin:miter;stroke-width:0.8;"/>
   </g>
   <g id="patch_4">
    <path d="M 414.72 307.584 
L 414.72 41.472 
" style="fill:none;stroke:#000000;stroke-linecap:square;stroke-linejoin:miter;stroke-width:0.8;"/>
   </g>
   <g id="patch_5">
    <path d="M 57.6 307.584 
L 414.72 307.584 
" style="fill:none;stroke:#000000;stroke-linecap:square;stroke-linejoin:miter;stroke-width:0.8;"/>
   </g>
   <g id="patch_6">
    <path d="M 57.6 41.472 
L 414.72 41.472 
" style="fill:none;stroke:#000000;stroke-linecap:square;stroke-linejoin:miter;stroke-width:0.8;"/>
   </g>
   <g id="legend_1">
    <g id="line2d_21">
     <path d="M 182.2425 62.4295 
L 214.2425 62.4295 
" style="fill:none;stroke:#f97306;stroke-linecap:square;stroke-width:10;"/>
    </g>
    <g id="line2d_22"/>
    <g id="text_16">
     <!-- Riemannian Herding -->
     <g transform="translate(227.0425 68.0295)scale(0.16 -0.16)">
      <defs>
       <path d="M 2841 2188 
Q 3044 2119 3236 1894 
Q 3428 1669 3622 1275 
L 4263 0 
L 3584 0 
L 2988 1197 
Q 2756 1666 2539 1819 
Q 2322 1972 1947 1972 
L 1259 1972 
L 1259 0 
L 628 0 
L 628 4666 
L 2053 4666 
Q 2853 4666 3247 4331 
Q 3641 3997 3641 3322 
Q 3641 2881 3436 2590 
Q 3231 2300 2841 2188 
z
M 1259 4147 
L 1259 2491 
L 2053 2491 
Q 2509 2491 2742 2702 
Q 2975 2913 2975 3322 
Q 2975 3731 2742 3939 
Q 2509 4147 2053 4147 
L 1259 4147 
z
" id="DejaVuSans-52" transform="scale(0.015625)"/>
       <path d="M 628 4666 
L 1259 4666 
L 1259 2753 
L 3553 2753 
L 3553 4666 
L 4184 4666 
L 4184 0 
L 3553 0 
L 3553 2222 
L 1259 2222 
L 1259 0 
L 628 0 
L 628 4666 
z
" id="DejaVuSans-48" transform="scale(0.015625)"/>
       <path d="M 2906 2969 
L 2906 4863 
L 3481 4863 
L 3481 0 
L 2906 0 
L 2906 525 
Q 2725 213 2448 61 
Q 2172 -91 1784 -91 
Q 1150 -91 751 415 
Q 353 922 353 1747 
Q 353 2572 751 3078 
Q 1150 3584 1784 3584 
Q 2172 3584 2448 3432 
Q 2725 3281 2906 2969 
z
M 947 1747 
Q 947 1113 1208 752 
Q 1469 391 1925 391 
Q 2381 391 2643 752 
Q 2906 1113 2906 1747 
Q 2906 2381 2643 2742 
Q 2381 3103 1925 3103 
Q 1469 3103 1208 2742 
Q 947 2381 947 1747 
z
" id="DejaVuSans-64" transform="scale(0.015625)"/>
      </defs>
      <use xlink:href="#DejaVuSans-52"/>
      <use x="69.482422" xlink:href="#DejaVuSans-69"/>
      <use x="97.265625" xlink:href="#DejaVuSans-65"/>
      <use x="158.789062" xlink:href="#DejaVuSans-6d"/>
      <use x="256.201172" xlink:href="#DejaVuSans-61"/>
      <use x="317.480469" xlink:href="#DejaVuSans-6e"/>
      <use x="380.859375" xlink:href="#DejaVuSans-6e"/>
      <use x="444.238281" xlink:href="#DejaVuSans-69"/>
      <use x="472.021484" xlink:href="#DejaVuSans-61"/>
      <use x="533.300781" xlink:href="#DejaVuSans-6e"/>
      <use x="596.679688" xlink:href="#DejaVuSans-20"/>
      <use x="628.466797" xlink:href="#DejaVuSans-48"/>
      <use x="703.662109" xlink:href="#DejaVuSans-65"/>
      <use x="765.185547" xlink:href="#DejaVuSans-72"/>
      <use x="804.548828" xlink:href="#DejaVuSans-64"/>
      <use x="868.025391" xlink:href="#DejaVuSans-69"/>
      <use x="895.808594" xlink:href="#DejaVuSans-6e"/>
      <use x="959.1875" xlink:href="#DejaVuSans-67"/>
     </g>
    </g>
    <g id="line2d_23">
     <path d="M 182.2425 85.9145 
L 214.2425 85.9145 
" style="fill:none;stroke:#5a7d9a;stroke-linecap:square;stroke-width:10;"/>
    </g>
    <g id="line2d_24"/>
    <g id="text_17">
     <!-- Euclidean Herding -->
     <g transform="translate(227.0425 91.5145)scale(0.16 -0.16)">
      <defs>
       <path d="M 3122 3366 
L 3122 2828 
Q 2878 2963 2633 3030 
Q 2388 3097 2138 3097 
Q 1578 3097 1268 2742 
Q 959 2388 959 1747 
Q 959 1106 1268 751 
Q 1578 397 2138 397 
Q 2388 397 2633 464 
Q 2878 531 3122 666 
L 3122 134 
Q 2881 22 2623 -34 
Q 2366 -91 2075 -91 
Q 1284 -91 818 406 
Q 353 903 353 1747 
Q 353 2603 823 3093 
Q 1294 3584 2113 3584 
Q 2378 3584 2631 3529 
Q 2884 3475 3122 3366 
z
" id="DejaVuSans-63" transform="scale(0.015625)"/>
      </defs>
      <use xlink:href="#DejaVuSans-45"/>
      <use x="63.183594" xlink:href="#DejaVuSans-75"/>
      <use x="126.5625" xlink:href="#DejaVuSans-63"/>
      <use x="181.542969" xlink:href="#DejaVuSans-6c"/>
      <use x="209.326172" xlink:href="#DejaVuSans-69"/>
      <use x="237.109375" xlink:href="#DejaVuSans-64"/>
      <use x="300.585938" xlink:href="#DejaVuSans-65"/>
      <use x="362.109375" xlink:href="#DejaVuSans-61"/>
      <use x="423.388672" xlink:href="#DejaVuSans-6e"/>
      <use x="486.767578" xlink:href="#DejaVuSans-20"/>
      <use x="518.554688" xlink:href="#DejaVuSans-48"/>
      <use x="593.75" xlink:href="#DejaVuSans-65"/>
      <use x="655.273438" xlink:href="#DejaVuSans-72"/>
      <use x="694.636719" xlink:href="#DejaVuSans-64"/>
      <use x="758.113281" xlink:href="#DejaVuSans-69"/>
      <use x="785.896484" xlink:href="#DejaVuSans-6e"/>
      <use x="849.275391" xlink:href="#DejaVuSans-67"/>
     </g>
    </g>
    <g id="line2d_25">
     <path d="M 182.2425 109.3995 
L 214.2425 109.3995 
" style="fill:none;stroke:#40a368;stroke-linecap:square;stroke-width:10;"/>
    </g>
    <g id="line2d_26"/>
    <g id="text_18">
     <!-- OT -->
     <g transform="translate(227.0425 114.9995)scale(0.16 -0.16)">
      <defs>
       <path d="M 2522 4238 
Q 1834 4238 1429 3725 
Q 1025 3213 1025 2328 
Q 1025 1447 1429 934 
Q 1834 422 2522 422 
Q 3209 422 3611 934 
Q 4013 1447 4013 2328 
Q 4013 3213 3611 3725 
Q 3209 4238 2522 4238 
z
M 2522 4750 
Q 3503 4750 4090 4092 
Q 4678 3434 4678 2328 
Q 4678 1225 4090 567 
Q 3503 -91 2522 -91 
Q 1538 -91 948 565 
Q 359 1222 359 2328 
Q 359 3434 948 4092 
Q 1538 4750 2522 4750 
z
" id="DejaVuSans-4f" transform="scale(0.015625)"/>
       <path d="M -19 4666 
L 3928 4666 
L 3928 4134 
L 2272 4134 
L 2272 0 
L 1638 0 
L 1638 4134 
L -19 4134 
L -19 4666 
z
" id="DejaVuSans-54" transform="scale(0.015625)"/>
      </defs>
      <use xlink:href="#DejaVuSans-4f"/>
      <use x="78.710938" xlink:href="#DejaVuSans-54"/>
     </g>
    </g>
    <g id="line2d_27">
     <path d="M 182.2425 132.8845 
L 214.2425 132.8845 
" style="fill:none;stroke:#653700;stroke-linecap:square;stroke-width:10;"/>
    </g>
    <g id="line2d_28"/>
    <g id="text_19">
     <!-- OT + Cayley Centroid -->
     <g transform="translate(227.0425 138.4845)scale(0.16 -0.16)">
      <defs>
       <path d="M 2944 4013 
L 2944 2272 
L 4684 2272 
L 4684 1741 
L 2944 1741 
L 2944 0 
L 2419 0 
L 2419 1741 
L 678 1741 
L 678 2272 
L 2419 2272 
L 2419 4013 
L 2944 4013 
z
" id="DejaVuSans-2b" transform="scale(0.015625)"/>
       <path d="M 4122 4306 
L 4122 3641 
Q 3803 3938 3442 4084 
Q 3081 4231 2675 4231 
Q 1875 4231 1450 3742 
Q 1025 3253 1025 2328 
Q 1025 1406 1450 917 
Q 1875 428 2675 428 
Q 3081 428 3442 575 
Q 3803 722 4122 1019 
L 4122 359 
Q 3791 134 3420 21 
Q 3050 -91 2638 -91 
Q 1578 -91 968 557 
Q 359 1206 359 2328 
Q 359 3453 968 4101 
Q 1578 4750 2638 4750 
Q 3056 4750 3426 4639 
Q 3797 4528 4122 4306 
z
" id="DejaVuSans-43" transform="scale(0.015625)"/>
       <path d="M 2059 -325 
Q 1816 -950 1584 -1140 
Q 1353 -1331 966 -1331 
L 506 -1331 
L 506 -850 
L 844 -850 
Q 1081 -850 1212 -737 
Q 1344 -625 1503 -206 
L 1606 56 
L 191 3500 
L 800 3500 
L 1894 763 
L 2988 3500 
L 3597 3500 
L 2059 -325 
z
" id="DejaVuSans-79" transform="scale(0.015625)"/>
       <path d="M 1172 4494 
L 1172 3500 
L 2356 3500 
L 2356 3053 
L 1172 3053 
L 1172 1153 
Q 1172 725 1289 603 
Q 1406 481 1766 481 
L 2356 481 
L 2356 0 
L 1766 0 
Q 1100 0 847 248 
Q 594 497 594 1153 
L 594 3053 
L 172 3053 
L 172 3500 
L 594 3500 
L 594 4494 
L 1172 4494 
z
" id="DejaVuSans-74" transform="scale(0.015625)"/>
      </defs>
      <use xlink:href="#DejaVuSans-4f"/>
      <use x="78.710938" xlink:href="#DejaVuSans-54"/>
      <use x="139.794922" xlink:href="#DejaVuSans-20"/>
      <use x="171.582031" xlink:href="#DejaVuSans-2b"/>
      <use x="255.371094" xlink:href="#DejaVuSans-20"/>
      <use x="287.158203" xlink:href="#DejaVuSans-43"/>
      <use x="356.982422" xlink:href="#DejaVuSans-61"/>
      <use x="418.261719" xlink:href="#DejaVuSans-79"/>
      <use x="477.441406" xlink:href="#DejaVuSans-6c"/>
      <use x="505.224609" xlink:href="#DejaVuSans-65"/>
      <use x="566.748047" xlink:href="#DejaVuSans-79"/>
      <use x="625.927734" xlink:href="#DejaVuSans-20"/>
      <use x="657.714844" xlink:href="#DejaVuSans-43"/>
      <use x="727.539062" xlink:href="#DejaVuSans-65"/>
      <use x="789.0625" xlink:href="#DejaVuSans-6e"/>
      <use x="852.441406" xlink:href="#DejaVuSans-74"/>
      <use x="891.650391" xlink:href="#DejaVuSans-72"/>
      <use x="930.513672" xlink:href="#DejaVuSans-6f"/>
      <use x="991.695312" xlink:href="#DejaVuSans-69"/>
      <use x="1019.478516" xlink:href="#DejaVuSans-64"/>
     </g>
    </g>
   </g>
  </g>
 </g>
 <defs>
  <clipPath id="pfe719cf9e4">
   <rect height="266.112" width="357.12" x="57.6" y="41.472"/>
  </clipPath>
 </defs>
</svg>
