<?xml version="1.0" encoding="utf-8" standalone="no"?>
<!DOCTYPE svg PUBLIC "-//W3C//DTD SVG 1.1//EN"
  "http://www.w3.org/Graphics/SVG/1.1/DTD/svg11.dtd">
<svg height="345.6pt" version="1.1" viewBox="0 0 460.8 345.6" width="460.8pt" xmlns="http://www.w3.org/2000/svg" xmlns:xlink="http://www.w3.org/1999/xlink">
 <metadata>
  <rdf:RDF xmlns:cc="http://creativecommons.org/ns#" xmlns:dc="http://purl.org/dc/elements/1.1/" xmlns:rdf="http://www.w3.org/1999/02/22-rdf-syntax-ns#">
   <cc:Work>
    <dc:type rdf:resource="http://purl.org/dc/dcmitype/StillImage"/>
    <dc:date>2021-06-19T20:07:38.176733</dc:date>
    <dc:format>image/svg+xml</dc:format>
    <dc:creator>
     <cc:Agent>
      <dc:title>Matplotlib v3.4.1, https://matplotlib.org/</dc:title>
     </cc:Agent>
    </dc:creator>
   </cc:Work>
  </rdf:RDF>
 </metadata>
 <defs>
  <style type="text/css">*{stroke-linecap:butt;stroke-linejoin:round;}</style>
 </defs>
 <g id="figure_1">
  <g id="patch_1">
   <path d="M 0 345.6 
L 460.8 345.6 
L 460.8 0 
L 0 0 
z
" style="fill:#ffffff;"/>
  </g>
  <g id="axes_1">
   <g id="patch_2">
    <path d="M 57.6 307.584 
L 414.72 307.584 
L 414.72 41.472 
L 57.6 41.472 
z
" style="fill:#ffffff;"/>
   </g>
   <g id="PolyCollection_1">
    <defs>
     <path d="M 73.832727 -339.191042 
L 73.832727 -327.029272 
L 75.472397 -269.919553 
L 77.112066 -237.140005 
L 78.751736 -216.372777 
L 80.391405 -202.900622 
L 82.031074 -189.405928 
L 83.670744 -180.014924 
L 85.310413 -174.042788 
L 86.950083 -166.77013 
L 88.589752 -164.362611 
L 90.229421 -158.829544 
L 91.869091 -153.323484 
L 93.50876 -149.554802 
L 95.14843 -145.805198 
L 96.788099 -141.224744 
L 98.427769 -138.49842 
L 100.067438 -135.027787 
L 101.707107 -132.391006 
L 103.346777 -129.542669 
L 104.986446 -126.990074 
L 106.626116 -125.716102 
L 108.265785 -123.019407 
L 109.905455 -121.316788 
L 111.545124 -119.24924 
L 113.184793 -117.559227 
L 114.824463 -116.400395 
L 116.464132 -114.494915 
L 118.103802 -112.507449 
L 119.743471 -111.390657 
L 121.38314 -109.907271 
L 123.02281 -108.961425 
L 124.662479 -107.216618 
L 126.302149 -106.112235 
L 127.941818 -105.265028 
L 129.581488 -103.952791 
L 131.221157 -102.96763 
L 132.860826 -101.68736 
L 134.500496 -100.988554 
L 136.140165 -99.763881 
L 137.779835 -98.724698 
L 139.419504 -97.821698 
L 141.059174 -97.019713 
L 142.698843 -96.083687 
L 144.338512 -95.95487 
L 145.978182 -95.075868 
L 147.617851 -94.110972 
L 149.257521 -93.119232 
L 150.89719 -92.106798 
L 152.53686 -91.283409 
L 154.176529 -90.23053 
L 155.816198 -89.91999 
L 157.455868 -88.991007 
L 159.095537 -88.270716 
L 160.735207 -87.653031 
L 162.374876 -87.085854 
L 164.014545 -86.58798 
L 165.654215 -85.916636 
L 167.293884 -85.325559 
L 168.933554 -84.479099 
L 170.573223 -83.820277 
L 172.212893 -83.296941 
L 173.852562 -82.193686 
L 175.492231 -81.675454 
L 177.131901 -81.555174 
L 178.77157 -81.122574 
L 180.41124 -80.362936 
L 182.050909 -80.289815 
L 183.690579 -79.759995 
L 185.330248 -79.504647 
L 186.969917 -78.640978 
L 188.609587 -78.488019 
L 190.249256 -78.19468 
L 191.888926 -77.598401 
L 193.528595 -77.11071 
L 195.168264 -76.89646 
L 196.807934 -76.334946 
L 198.447603 -76.028696 
L 200.087273 -75.672582 
L 201.726942 -75.384787 
L 203.366612 -74.987624 
L 205.006281 -74.698063 
L 206.64595 -74.527279 
L 208.28562 -73.967374 
L 209.925289 -73.701034 
L 211.564959 -73.553663 
L 213.204628 -73.223999 
L 214.844298 -73.100836 
L 216.483967 -72.663749 
L 218.123636 -72.521978 
L 219.763306 -72.505762 
L 221.402975 -72.154244 
L 223.042645 -72.033454 
L 224.682314 -71.694853 
L 226.321983 -71.473562 
L 227.961653 -71.088483 
L 229.601322 -70.973862 
L 231.240992 -70.877855 
L 232.880661 -70.450885 
L 234.520331 -69.979378 
L 236.16 -69.677644 
L 237.799669 -69.459531 
L 239.439339 -69.30262 
L 241.079008 -68.923335 
L 242.718678 -68.654107 
L 244.358347 -68.640631 
L 245.998017 -68.442521 
L 247.637686 -68.119436 
L 249.277355 -68.172565 
L 250.917025 -67.833558 
L 252.556694 -67.710221 
L 254.196364 -67.568142 
L 255.836033 -67.395851 
L 257.475702 -66.974732 
L 259.115372 -66.801542 
L 260.755041 -66.717034 
L 262.394711 -66.526617 
L 264.03438 -66.349295 
L 265.67405 -66.100865 
L 267.313719 -66.033376 
L 268.953388 -65.779522 
L 270.593058 -65.724807 
L 272.232727 -65.586247 
L 273.872397 -65.275596 
L 275.512066 -65.08734 
L 277.151736 -64.923349 
L 278.791405 -64.793564 
L 280.431074 -64.76501 
L 282.070744 -64.72598 
L 283.710413 -64.431505 
L 285.350083 -64.326281 
L 286.989752 -64.386496 
L 288.629421 -64.162666 
L 290.269091 -64.02384 
L 291.90876 -64.007318 
L 293.54843 -63.867503 
L 295.188099 -63.8276 
L 296.827769 -63.810834 
L 298.467438 -63.673254 
L 300.107107 -63.479531 
L 301.746777 -63.321894 
L 303.386446 -63.184211 
L 305.026116 -63.092373 
L 306.665785 -62.909961 
L 308.305455 -62.839626 
L 309.945124 -62.591335 
L 311.584793 -62.444232 
L 313.224463 -62.241711 
L 314.864132 -62.273691 
L 316.503802 -62.156856 
L 318.143471 -62.180431 
L 319.78314 -61.964933 
L 321.42281 -62.073075 
L 323.062479 -61.965804 
L 324.702149 -61.747392 
L 326.341818 -61.513951 
L 327.981488 -61.410965 
L 329.621157 -61.311361 
L 331.260826 -61.377108 
L 332.900496 -61.169198 
L 334.540165 -61.235927 
L 336.179835 -61.119279 
L 337.819504 -61.094923 
L 339.459174 -60.983327 
L 341.098843 -60.79749 
L 342.738512 -60.74022 
L 344.378182 -60.574834 
L 346.017851 -60.30577 
L 347.657521 -60.303608 
L 349.29719 -60.265353 
L 350.93686 -60.211366 
L 352.576529 -60.009729 
L 354.216198 -59.888976 
L 355.855868 -59.760545 
L 357.495537 -59.794794 
L 359.135207 -59.6947 
L 360.774876 -59.577148 
L 362.414545 -59.589292 
L 364.054215 -59.481669 
L 365.693884 -59.232564 
L 367.333554 -59.358532 
L 368.973223 -59.195423 
L 370.612893 -58.975458 
L 372.252562 -59.043323 
L 373.892231 -58.948646 
L 375.531901 -58.926668 
L 377.17157 -58.910014 
L 378.81124 -58.831282 
L 380.450909 -58.825455 
L 382.090579 -58.684234 
L 383.730248 -58.772002 
L 385.369917 -58.558165 
L 387.009587 -58.484842 
L 388.649256 -58.296037 
L 390.288926 -58.38057 
L 391.928595 -58.477143 
L 393.568264 -58.348786 
L 395.207934 -58.244407 
L 396.847603 -58.202819 
L 398.487273 -58.070916 
L 398.487273 -58.685117 
L 398.487273 -58.685117 
L 396.847603 -58.782093 
L 395.207934 -58.908135 
L 393.568264 -58.977852 
L 391.928595 -59.059655 
L 390.288926 -59.178722 
L 388.649256 -59.136369 
L 387.009587 -59.142349 
L 385.369917 -59.234686 
L 383.730248 -59.353746 
L 382.090579 -59.458558 
L 380.450909 -59.525516 
L 378.81124 -59.682651 
L 377.17157 -59.721964 
L 375.531901 -59.785227 
L 373.892231 -59.78187 
L 372.252562 -59.708576 
L 370.612893 -59.731328 
L 368.973223 -59.927023 
L 367.333554 -60.029896 
L 365.693884 -60.111651 
L 364.054215 -60.166615 
L 362.414545 -60.24472 
L 360.774876 -60.215772 
L 359.135207 -60.373799 
L 357.495537 -60.400473 
L 355.855868 -60.431871 
L 354.216198 -60.543692 
L 352.576529 -60.603517 
L 350.93686 -60.8173 
L 349.29719 -60.763732 
L 347.657521 -60.819408 
L 346.017851 -60.922107 
L 344.378182 -61.084054 
L 342.738512 -61.402025 
L 341.098843 -61.526025 
L 339.459174 -61.672619 
L 337.819504 -61.629075 
L 336.179835 -61.752136 
L 334.540165 -61.988293 
L 332.900496 -61.943181 
L 331.260826 -62.132915 
L 329.621157 -62.108805 
L 327.981488 -62.267143 
L 326.341818 -62.229162 
L 324.702149 -62.188253 
L 323.062479 -62.379622 
L 321.42281 -62.406285 
L 319.78314 -62.595287 
L 318.143471 -62.684739 
L 316.503802 -62.675461 
L 314.864132 -62.773131 
L 313.224463 -63.062569 
L 311.584793 -63.066837 
L 309.945124 -63.186083 
L 308.305455 -63.282964 
L 306.665785 -63.384851 
L 305.026116 -63.448945 
L 303.386446 -63.530943 
L 301.746777 -63.567272 
L 300.107107 -63.739924 
L 298.467438 -63.904715 
L 296.827769 -64.031093 
L 295.188099 -64.273978 
L 293.54843 -64.375992 
L 291.90876 -64.508262 
L 290.269091 -64.615558 
L 288.629421 -64.911523 
L 286.989752 -65.202442 
L 285.350083 -65.110467 
L 283.710413 -65.313883 
L 282.070744 -65.583892 
L 280.431074 -65.672737 
L 278.791405 -65.798666 
L 277.151736 -65.968054 
L 275.512066 -66.207618 
L 273.872397 -66.473566 
L 272.232727 -66.416335 
L 270.593058 -66.401311 
L 268.953388 -66.526606 
L 267.313719 -66.793185 
L 265.67405 -66.890056 
L 264.03438 -67.235853 
L 262.394711 -67.460749 
L 260.755041 -67.738749 
L 259.115372 -68.072106 
L 257.475702 -68.526441 
L 255.836033 -68.684734 
L 254.196364 -68.716414 
L 252.556694 -68.893725 
L 250.917025 -69.014681 
L 249.277355 -69.423525 
L 247.637686 -69.433477 
L 245.998017 -69.87207 
L 244.358347 -70.073181 
L 242.718678 -70.239173 
L 241.079008 -70.245122 
L 239.439339 -70.427592 
L 237.799669 -70.560257 
L 236.16 -70.950648 
L 234.520331 -71.478972 
L 232.880661 -71.968187 
L 231.240992 -72.235174 
L 229.601322 -72.695299 
L 227.961653 -72.752594 
L 226.321983 -73.011924 
L 224.682314 -73.371934 
L 223.042645 -73.552605 
L 221.402975 -73.906076 
L 219.763306 -74.216082 
L 218.123636 -74.250933 
L 216.483967 -74.636046 
L 214.844298 -75.096099 
L 213.204628 -75.515482 
L 211.564959 -75.885382 
L 209.925289 -76.114069 
L 208.28562 -76.5373 
L 206.64595 -76.825405 
L 205.006281 -77.179229 
L 203.366612 -77.600803 
L 201.726942 -77.946033 
L 200.087273 -78.866497 
L 198.447603 -79.001057 
L 196.807934 -79.538518 
L 195.168264 -80.019215 
L 193.528595 -80.32161 
L 191.888926 -80.484347 
L 190.249256 -81.156668 
L 188.609587 -81.644626 
L 186.969917 -81.715635 
L 185.330248 -82.329238 
L 183.690579 -82.819724 
L 182.050909 -83.354292 
L 180.41124 -83.736833 
L 178.77157 -84.305982 
L 177.131901 -85.316241 
L 175.492231 -85.696683 
L 173.852562 -86.213248 
L 172.212893 -86.962758 
L 170.573223 -87.447884 
L 168.933554 -87.847255 
L 167.293884 -88.780632 
L 165.654215 -89.51397 
L 164.014545 -90.029883 
L 162.374876 -90.89835 
L 160.735207 -91.851733 
L 159.095537 -92.189263 
L 157.455868 -93.069115 
L 155.816198 -93.537153 
L 154.176529 -94.224078 
L 152.53686 -95.236968 
L 150.89719 -95.874692 
L 149.257521 -96.729956 
L 147.617851 -97.665088 
L 145.978182 -98.582511 
L 144.338512 -99.102466 
L 142.698843 -100.289149 
L 141.059174 -100.961738 
L 139.419504 -101.403317 
L 137.779835 -102.462693 
L 136.140165 -103.424848 
L 134.500496 -104.965161 
L 132.860826 -105.852263 
L 131.221157 -106.521418 
L 129.581488 -107.749126 
L 127.941818 -108.803912 
L 126.302149 -109.89516 
L 124.662479 -111.145554 
L 123.02281 -112.447782 
L 121.38314 -114.094639 
L 119.743471 -115.855146 
L 118.103802 -117.007896 
L 116.464132 -118.713264 
L 114.824463 -120.531663 
L 113.184793 -122.219303 
L 111.545124 -124.0233 
L 109.905455 -125.847806 
L 108.265785 -127.985293 
L 106.626116 -129.527078 
L 104.986446 -131.569842 
L 103.346777 -133.979409 
L 101.707107 -136.507452 
L 100.067438 -138.95579 
L 98.427769 -141.601956 
L 96.788099 -144.123489 
L 95.14843 -146.937224 
L 93.50876 -150.809937 
L 91.869091 -155.526466 
L 90.229421 -161.454672 
L 88.589752 -165.465419 
L 86.950083 -170.651128 
L 85.310413 -175.491403 
L 83.670744 -183.965153 
L 82.031074 -193.795938 
L 80.391405 -207.933481 
L 78.751736 -221.43961 
L 77.112066 -242.28321 
L 75.472397 -274.914402 
L 73.832727 -339.191042 
z
" id="m271d4453e2" style="stroke:#f97306;stroke-opacity:0.1;"/>
    </defs>
    <g clip-path="url(#p29767f9b56)">
     <use style="fill:#f97306;fill-opacity:0.1;stroke:#f97306;stroke-opacity:0.1;" x="0" xlink:href="#m271d4453e2" y="345.6"/>
    </g>
   </g>
   <g id="PolyCollection_2">
    <defs>
     <path d="M 73.832727 -375.82148 
L 73.832727 -363.290801 
L 75.472397 -291.52732 
L 77.112066 -257.427504 
L 78.751736 -231.927014 
L 80.391405 -217.37768 
L 82.031074 -202.476475 
L 83.670744 -192.686663 
L 85.310413 -185.955287 
L 86.950083 -179.944041 
L 88.589752 -174.284364 
L 90.229421 -169.704888 
L 91.869091 -166.226585 
L 93.50876 -162.075435 
L 95.14843 -158.481281 
L 96.788099 -154.630306 
L 98.427769 -151.656332 
L 100.067438 -148.866672 
L 101.707107 -146.324469 
L 103.346777 -144.510227 
L 104.986446 -142.402502 
L 106.626116 -139.521715 
L 108.265785 -136.971023 
L 109.905455 -135.357842 
L 111.545124 -133.556606 
L 113.184793 -132.420048 
L 114.824463 -130.632859 
L 116.464132 -129.469625 
L 118.103802 -127.566518 
L 119.743471 -126.239483 
L 121.38314 -124.848504 
L 123.02281 -123.618332 
L 124.662479 -122.438981 
L 126.302149 -121.401577 
L 127.941818 -120.162833 
L 129.581488 -118.851639 
L 131.221157 -118.060097 
L 132.860826 -116.837991 
L 134.500496 -115.469539 
L 136.140165 -114.602695 
L 137.779835 -113.663327 
L 139.419504 -112.571507 
L 141.059174 -111.639232 
L 142.698843 -110.48873 
L 144.338512 -109.592913 
L 145.978182 -108.447611 
L 147.617851 -107.823472 
L 149.257521 -106.656501 
L 150.89719 -105.814647 
L 152.53686 -104.911518 
L 154.176529 -104.427428 
L 155.816198 -103.540804 
L 157.455868 -102.790313 
L 159.095537 -102.034707 
L 160.735207 -101.427645 
L 162.374876 -100.744473 
L 164.014545 -99.757446 
L 165.654215 -99.250267 
L 167.293884 -98.691641 
L 168.933554 -98.030484 
L 170.573223 -97.516807 
L 172.212893 -96.601649 
L 173.852562 -95.976394 
L 175.492231 -95.380294 
L 177.131901 -94.603642 
L 178.77157 -93.962312 
L 180.41124 -93.337449 
L 182.050909 -92.752507 
L 183.690579 -92.310241 
L 185.330248 -91.704164 
L 186.969917 -91.141263 
L 188.609587 -90.732406 
L 190.249256 -90.594053 
L 191.888926 -90.254497 
L 193.528595 -89.825563 
L 195.168264 -89.460441 
L 196.807934 -89.037474 
L 198.447603 -88.655043 
L 200.087273 -88.221856 
L 201.726942 -87.934556 
L 203.366612 -87.347639 
L 205.006281 -86.844436 
L 206.64595 -86.372369 
L 208.28562 -85.886776 
L 209.925289 -85.609799 
L 211.564959 -85.240804 
L 213.204628 -84.838948 
L 214.844298 -84.269049 
L 216.483967 -83.845944 
L 218.123636 -83.654595 
L 219.763306 -83.283271 
L 221.402975 -82.878866 
L 223.042645 -82.627237 
L 224.682314 -82.411648 
L 226.321983 -81.849401 
L 227.961653 -81.529416 
L 229.601322 -81.234839 
L 231.240992 -80.890979 
L 232.880661 -80.432286 
L 234.520331 -80.31575 
L 236.16 -80.153222 
L 237.799669 -79.937392 
L 239.439339 -79.673454 
L 241.079008 -79.497871 
L 242.718678 -79.323686 
L 244.358347 -78.958501 
L 245.998017 -78.718884 
L 247.637686 -78.387891 
L 249.277355 -78.138428 
L 250.917025 -77.93454 
L 252.556694 -77.740471 
L 254.196364 -77.582064 
L 255.836033 -77.33612 
L 257.475702 -77.144868 
L 259.115372 -77.013319 
L 260.755041 -76.767401 
L 262.394711 -76.696524 
L 264.03438 -76.543244 
L 265.67405 -76.264125 
L 267.313719 -75.976463 
L 268.953388 -75.844615 
L 270.593058 -75.606995 
L 272.232727 -75.316555 
L 273.872397 -75.272287 
L 275.512066 -75.188074 
L 277.151736 -75.03974 
L 278.791405 -74.844059 
L 280.431074 -74.822842 
L 282.070744 -74.529375 
L 283.710413 -74.416231 
L 285.350083 -74.175472 
L 286.989752 -74.003577 
L 288.629421 -73.780412 
L 290.269091 -73.61708 
L 291.90876 -73.455251 
L 293.54843 -73.160183 
L 295.188099 -72.955591 
L 296.827769 -72.884677 
L 298.467438 -72.718844 
L 300.107107 -72.447521 
L 301.746777 -72.221183 
L 303.386446 -72.086244 
L 305.026116 -72.074569 
L 306.665785 -71.958113 
L 308.305455 -71.828831 
L 309.945124 -71.641303 
L 311.584793 -71.393275 
L 313.224463 -71.291205 
L 314.864132 -70.973399 
L 316.503802 -70.821849 
L 318.143471 -70.596305 
L 319.78314 -70.28772 
L 321.42281 -70.221687 
L 323.062479 -70.090983 
L 324.702149 -69.847035 
L 326.341818 -69.823478 
L 327.981488 -69.765429 
L 329.621157 -69.706639 
L 331.260826 -69.540044 
L 332.900496 -69.350331 
L 334.540165 -69.283951 
L 336.179835 -69.160021 
L 337.819504 -69.074871 
L 339.459174 -68.995063 
L 341.098843 -68.930208 
L 342.738512 -68.73389 
L 344.378182 -68.646688 
L 346.017851 -68.498598 
L 347.657521 -68.348246 
L 349.29719 -68.211589 
L 350.93686 -68.111537 
L 352.576529 -67.994793 
L 354.216198 -67.79316 
L 355.855868 -67.649563 
L 357.495537 -67.576357 
L 359.135207 -67.424652 
L 360.774876 -67.286948 
L 362.414545 -67.226699 
L 364.054215 -66.971095 
L 365.693884 -66.844281 
L 367.333554 -66.828408 
L 368.973223 -66.724677 
L 370.612893 -66.730707 
L 372.252562 -66.634282 
L 373.892231 -66.484168 
L 375.531901 -66.385589 
L 377.17157 -66.216119 
L 378.81124 -66.168745 
L 380.450909 -66.094694 
L 382.090579 -66.060719 
L 383.730248 -66.019768 
L 385.369917 -65.970412 
L 387.009587 -65.915537 
L 388.649256 -65.867704 
L 390.288926 -65.781208 
L 391.928595 -65.740392 
L 393.568264 -65.725038 
L 395.207934 -65.645762 
L 396.847603 -65.47204 
L 398.487273 -65.456484 
L 398.487273 -66.436235 
L 398.487273 -66.436235 
L 396.847603 -66.55355 
L 395.207934 -66.584831 
L 393.568264 -66.717206 
L 391.928595 -66.853301 
L 390.288926 -66.937786 
L 388.649256 -66.997099 
L 387.009587 -67.12413 
L 385.369917 -67.319675 
L 383.730248 -67.366342 
L 382.090579 -67.46868 
L 380.450909 -67.60998 
L 378.81124 -67.695786 
L 377.17157 -67.821572 
L 375.531901 -67.870809 
L 373.892231 -67.967956 
L 372.252562 -68.099451 
L 370.612893 -68.16588 
L 368.973223 -68.247566 
L 367.333554 -68.431983 
L 365.693884 -68.555145 
L 364.054215 -68.655342 
L 362.414545 -68.779613 
L 360.774876 -68.813907 
L 359.135207 -68.914734 
L 357.495537 -68.950308 
L 355.855868 -69.05126 
L 354.216198 -69.191986 
L 352.576529 -69.330793 
L 350.93686 -69.481005 
L 349.29719 -69.553213 
L 347.657521 -69.710069 
L 346.017851 -69.834115 
L 344.378182 -69.965327 
L 342.738512 -70.11239 
L 341.098843 -70.221594 
L 339.459174 -70.378092 
L 337.819504 -70.479705 
L 336.179835 -70.557236 
L 334.540165 -70.663196 
L 332.900496 -70.777092 
L 331.260826 -70.826239 
L 329.621157 -70.989985 
L 327.981488 -71.099062 
L 326.341818 -71.322102 
L 324.702149 -71.444588 
L 323.062479 -71.518408 
L 321.42281 -71.666336 
L 319.78314 -71.78954 
L 318.143471 -71.927691 
L 316.503802 -72.052597 
L 314.864132 -72.080773 
L 313.224463 -72.246799 
L 311.584793 -72.365059 
L 309.945124 -72.496349 
L 308.305455 -72.585906 
L 306.665785 -72.696611 
L 305.026116 -72.863213 
L 303.386446 -72.934678 
L 301.746777 -73.019581 
L 300.107107 -73.300558 
L 298.467438 -73.382508 
L 296.827769 -73.583017 
L 295.188099 -73.744037 
L 293.54843 -73.953531 
L 291.90876 -74.01626 
L 290.269091 -74.241435 
L 288.629421 -74.579014 
L 286.989752 -74.768509 
L 285.350083 -74.836971 
L 283.710413 -75.042882 
L 282.070744 -75.178254 
L 280.431074 -75.359345 
L 278.791405 -75.614601 
L 277.151736 -75.89684 
L 275.512066 -76.117555 
L 273.872397 -76.224341 
L 272.232727 -76.332576 
L 270.593058 -76.503663 
L 268.953388 -76.630573 
L 267.313719 -76.885546 
L 265.67405 -77.106498 
L 264.03438 -77.303 
L 262.394711 -77.552697 
L 260.755041 -77.760168 
L 259.115372 -77.9531 
L 257.475702 -78.201924 
L 255.836033 -78.39185 
L 254.196364 -78.579248 
L 252.556694 -78.880804 
L 250.917025 -79.187234 
L 249.277355 -79.429228 
L 247.637686 -79.697818 
L 245.998017 -79.955192 
L 244.358347 -80.223781 
L 242.718678 -80.48529 
L 241.079008 -80.823954 
L 239.439339 -80.867487 
L 237.799669 -81.063595 
L 236.16 -81.405373 
L 234.520331 -81.7982 
L 232.880661 -82.135726 
L 231.240992 -82.34551 
L 229.601322 -82.665453 
L 227.961653 -82.925903 
L 226.321983 -83.142191 
L 224.682314 -83.614973 
L 223.042645 -83.868818 
L 221.402975 -84.237859 
L 219.763306 -84.754887 
L 218.123636 -85.10855 
L 216.483967 -85.463536 
L 214.844298 -85.829128 
L 213.204628 -86.053794 
L 211.564959 -86.255748 
L 209.925289 -86.747954 
L 208.28562 -87.284277 
L 206.64595 -87.742073 
L 205.006281 -88.339103 
L 203.366612 -88.77944 
L 201.726942 -89.095056 
L 200.087273 -89.538384 
L 198.447603 -90.074435 
L 196.807934 -90.499836 
L 195.168264 -90.819498 
L 193.528595 -91.191625 
L 191.888926 -91.810913 
L 190.249256 -92.369209 
L 188.609587 -93.020793 
L 186.969917 -93.486107 
L 185.330248 -93.991161 
L 183.690579 -94.295031 
L 182.050909 -94.924235 
L 180.41124 -95.27 
L 178.77157 -95.648198 
L 177.131901 -96.321814 
L 175.492231 -96.980521 
L 173.852562 -97.654115 
L 172.212893 -97.957588 
L 170.573223 -98.367871 
L 168.933554 -99.148329 
L 167.293884 -99.805743 
L 165.654215 -100.394277 
L 164.014545 -101.138086 
L 162.374876 -102.018458 
L 160.735207 -102.670413 
L 159.095537 -103.359376 
L 157.455868 -104.231095 
L 155.816198 -104.688757 
L 154.176529 -105.531418 
L 152.53686 -106.294502 
L 150.89719 -107.202466 
L 149.257521 -108.086198 
L 147.617851 -108.839245 
L 145.978182 -109.648852 
L 144.338512 -110.373 
L 142.698843 -111.259954 
L 141.059174 -112.598403 
L 139.419504 -113.283293 
L 137.779835 -114.229987 
L 136.140165 -115.468063 
L 134.500496 -116.415567 
L 132.860826 -117.445779 
L 131.221157 -118.318324 
L 129.581488 -119.500225 
L 127.941818 -120.679882 
L 126.302149 -121.604021 
L 124.662479 -123.059428 
L 123.02281 -124.552679 
L 121.38314 -125.9304 
L 119.743471 -127.112564 
L 118.103802 -128.794602 
L 116.464132 -130.409832 
L 114.824463 -132.050799 
L 113.184793 -133.895676 
L 111.545124 -135.258409 
L 109.905455 -137.520693 
L 108.265785 -139.665832 
L 106.626116 -141.40902 
L 104.986446 -143.685205 
L 103.346777 -146.259637 
L 101.707107 -148.201941 
L 100.067438 -151.19079 
L 98.427769 -153.984035 
L 96.788099 -157.145644 
L 95.14843 -160.34015 
L 93.50876 -163.354495 
L 91.869091 -167.065957 
L 90.229421 -171.574832 
L 88.589752 -177.594515 
L 86.950083 -182.740839 
L 85.310413 -190.653162 
L 83.670744 -198.317953 
L 82.031074 -209.193411 
L 80.391405 -221.242753 
L 78.751736 -239.115237 
L 77.112066 -264.216967 
L 75.472397 -296.040049 
L 73.832727 -375.82148 
z
" id="m68c96107c0" style="stroke:#5a7d9a;stroke-opacity:0.1;"/>
    </defs>
    <g clip-path="url(#p29767f9b56)">
     <use style="fill:#5a7d9a;fill-opacity:0.1;stroke:#5a7d9a;stroke-opacity:0.1;" x="0" xlink:href="#m68c96107c0" y="345.6"/>
    </g>
   </g>
   <g id="PolyCollection_3">
    <defs>
     <path d="M 73.832727 -382.558021 
L 73.832727 -364.28341 
L 75.472397 -291.794685 
L 77.112066 -275.845643 
L 78.751736 -259.235563 
L 80.391405 -249.457386 
L 82.031074 -232.92107 
L 83.670744 -222.038359 
L 85.310413 -218.957487 
L 86.950083 -208.186007 
L 88.589752 -205.70155 
L 90.229421 -200.160231 
L 91.869091 -193.667483 
L 93.50876 -189.996497 
L 95.14843 -186.346109 
L 96.788099 -185.009995 
L 98.427769 -180.377791 
L 100.067438 -176.708597 
L 101.707107 -172.953057 
L 103.346777 -168.336379 
L 104.986446 -166.180359 
L 106.626116 -163.426074 
L 108.265785 -161.203549 
L 109.905455 -157.780008 
L 111.545124 -157.293333 
L 113.184793 -154.740828 
L 114.824463 -154.647172 
L 116.464132 -153.238492 
L 118.103802 -149.935898 
L 119.743471 -149.011248 
L 121.38314 -148.429745 
L 123.02281 -147.400866 
L 124.662479 -146.73603 
L 126.302149 -145.909089 
L 127.941818 -143.271131 
L 129.581488 -142.376708 
L 131.221157 -141.91292 
L 132.860826 -139.923261 
L 134.500496 -139.128807 
L 136.140165 -138.265484 
L 137.779835 -137.418593 
L 139.419504 -136.627279 
L 141.059174 -135.706452 
L 142.698843 -134.510521 
L 144.338512 -133.909815 
L 145.978182 -132.557181 
L 147.617851 -131.517149 
L 149.257521 -131.220489 
L 150.89719 -130.473324 
L 152.53686 -129.507557 
L 154.176529 -128.106286 
L 155.816198 -127.871154 
L 157.455868 -127.094097 
L 159.095537 -126.807807 
L 160.735207 -126.464764 
L 162.374876 -126.128587 
L 164.014545 -126.04912 
L 165.654215 -124.693469 
L 167.293884 -124.323088 
L 168.933554 -123.940959 
L 170.573223 -123.086598 
L 172.212893 -122.451965 
L 173.852562 -122.244074 
L 175.492231 -121.966768 
L 177.131901 -120.666462 
L 178.77157 -119.765313 
L 180.41124 -119.617992 
L 182.050909 -119.306065 
L 183.690579 -118.719195 
L 185.330248 -117.712241 
L 186.969917 -118.031679 
L 188.609587 -117.505936 
L 190.249256 -116.81103 
L 191.888926 -116.250732 
L 193.528595 -116.446731 
L 195.168264 -116.332253 
L 196.807934 -116.279683 
L 198.447603 -116.483876 
L 200.087273 -116.249952 
L 201.726942 -116.173753 
L 203.366612 -115.90636 
L 205.006281 -115.582684 
L 206.64595 -115.080023 
L 208.28562 -114.632578 
L 209.925289 -114.244864 
L 211.564959 -114.248721 
L 213.204628 -113.806592 
L 214.844298 -113.903513 
L 216.483967 -113.43437 
L 218.123636 -112.865528 
L 219.763306 -112.628995 
L 221.402975 -112.186389 
L 223.042645 -111.91017 
L 224.682314 -111.731436 
L 226.321983 -111.381628 
L 227.961653 -110.922888 
L 229.601322 -110.901931 
L 231.240992 -110.690977 
L 232.880661 -110.14236 
L 234.520331 -110.255539 
L 236.16 -109.846665 
L 237.799669 -109.541536 
L 239.439339 -109.142463 
L 241.079008 -108.757685 
L 242.718678 -108.466701 
L 244.358347 -108.065781 
L 245.998017 -107.89977 
L 247.637686 -107.600789 
L 249.277355 -107.763313 
L 250.917025 -107.357542 
L 252.556694 -107.396823 
L 254.196364 -107.21643 
L 255.836033 -106.854624 
L 257.475702 -106.57279 
L 259.115372 -106.695941 
L 260.755041 -106.792561 
L 262.394711 -106.903485 
L 264.03438 -106.540448 
L 265.67405 -106.515457 
L 267.313719 -106.175984 
L 268.953388 -105.952243 
L 270.593058 -105.959534 
L 272.232727 -105.579649 
L 273.872397 -105.726398 
L 275.512066 -105.469524 
L 277.151736 -105.399867 
L 278.791405 -105.164342 
L 280.431074 -104.909087 
L 282.070744 -105.163111 
L 283.710413 -105.176858 
L 285.350083 -104.994158 
L 286.989752 -104.754038 
L 288.629421 -104.211356 
L 290.269091 -103.956517 
L 291.90876 -103.528796 
L 293.54843 -103.262646 
L 295.188099 -103.3708 
L 296.827769 -103.252216 
L 298.467438 -102.985516 
L 300.107107 -102.886595 
L 301.746777 -102.774355 
L 303.386446 -102.834356 
L 305.026116 -102.631415 
L 306.665785 -102.485224 
L 308.305455 -102.495305 
L 309.945124 -102.122106 
L 311.584793 -102.041921 
L 313.224463 -101.739165 
L 314.864132 -101.50838 
L 316.503802 -101.547422 
L 318.143471 -101.315289 
L 319.78314 -101.272966 
L 321.42281 -101.051858 
L 323.062479 -100.785796 
L 324.702149 -100.974818 
L 326.341818 -100.715778 
L 327.981488 -100.345638 
L 329.621157 -100.494391 
L 331.260826 -100.504392 
L 332.900496 -100.231118 
L 334.540165 -99.98052 
L 336.179835 -99.796351 
L 337.819504 -99.555281 
L 339.459174 -99.475627 
L 341.098843 -99.685876 
L 342.738512 -99.595509 
L 344.378182 -99.208276 
L 346.017851 -99.332992 
L 347.657521 -99.175835 
L 349.29719 -98.954619 
L 350.93686 -98.746754 
L 352.576529 -98.495483 
L 354.216198 -98.619058 
L 355.855868 -98.461491 
L 357.495537 -98.422393 
L 359.135207 -98.497007 
L 360.774876 -98.091983 
L 362.414545 -97.781676 
L 364.054215 -97.91098 
L 365.693884 -97.550841 
L 367.333554 -97.636254 
L 368.973223 -97.598184 
L 370.612893 -97.185525 
L 372.252562 -97.043653 
L 373.892231 -96.95438 
L 375.531901 -96.96698 
L 377.17157 -96.924873 
L 378.81124 -97.094472 
L 380.450909 -97.026318 
L 382.090579 -96.775913 
L 383.730248 -96.814424 
L 385.369917 -96.385308 
L 387.009587 -96.283045 
L 388.649256 -96.282844 
L 390.288926 -96.019912 
L 391.928595 -95.998976 
L 393.568264 -95.902207 
L 395.207934 -95.662889 
L 396.847603 -95.331678 
L 398.487273 -94.985861 
L 398.487273 -100.922899 
L 398.487273 -100.922899 
L 396.847603 -100.824529 
L 395.207934 -100.753673 
L 393.568264 -100.915684 
L 391.928595 -100.996224 
L 390.288926 -101.380824 
L 388.649256 -101.486464 
L 387.009587 -101.517274 
L 385.369917 -101.576071 
L 383.730248 -101.472485 
L 382.090579 -101.820587 
L 380.450909 -101.991247 
L 378.81124 -101.974223 
L 377.17157 -102.2125 
L 375.531901 -102.048996 
L 373.892231 -101.809186 
L 372.252562 -102.181524 
L 370.612893 -102.219496 
L 368.973223 -102.26695 
L 367.333554 -102.527366 
L 365.693884 -102.619109 
L 364.054215 -102.958042 
L 362.414545 -103.112853 
L 360.774876 -103.336669 
L 359.135207 -103.241866 
L 357.495537 -103.190055 
L 355.855868 -103.466303 
L 354.216198 -103.474487 
L 352.576529 -103.685217 
L 350.93686 -103.644026 
L 349.29719 -103.747112 
L 347.657521 -103.95996 
L 346.017851 -104.21517 
L 344.378182 -104.329156 
L 342.738512 -104.558149 
L 341.098843 -104.956503 
L 339.459174 -104.919163 
L 337.819504 -105.123768 
L 336.179835 -105.284697 
L 334.540165 -104.942902 
L 332.900496 -105.14793 
L 331.260826 -104.900526 
L 329.621157 -105.066624 
L 327.981488 -105.410152 
L 326.341818 -105.40381 
L 324.702149 -105.51872 
L 323.062479 -105.54028 
L 321.42281 -105.595269 
L 319.78314 -105.707375 
L 318.143471 -105.485554 
L 316.503802 -105.482947 
L 314.864132 -105.518507 
L 313.224463 -105.424531 
L 311.584793 -105.340379 
L 309.945124 -105.020924 
L 308.305455 -105.404182 
L 306.665785 -105.219806 
L 305.026116 -105.632542 
L 303.386446 -105.546356 
L 301.746777 -105.874723 
L 300.107107 -106.172281 
L 298.467438 -106.528156 
L 296.827769 -106.664069 
L 295.188099 -106.946219 
L 293.54843 -106.862873 
L 291.90876 -106.936883 
L 290.269091 -106.904595 
L 288.629421 -107.251662 
L 286.989752 -107.614202 
L 285.350083 -107.841753 
L 283.710413 -107.927016 
L 282.070744 -108.084576 
L 280.431074 -108.256175 
L 278.791405 -108.213766 
L 277.151736 -108.474483 
L 275.512066 -108.331663 
L 273.872397 -108.268165 
L 272.232727 -108.530007 
L 270.593058 -108.967661 
L 268.953388 -109.089779 
L 267.313719 -109.728756 
L 265.67405 -110.099003 
L 264.03438 -110.19095 
L 262.394711 -110.481452 
L 260.755041 -110.887509 
L 259.115372 -110.56826 
L 257.475702 -110.630828 
L 255.836033 -110.435086 
L 254.196364 -110.609209 
L 252.556694 -111.227345 
L 250.917025 -111.709539 
L 249.277355 -111.785684 
L 247.637686 -112.222831 
L 245.998017 -112.698322 
L 244.358347 -112.999516 
L 242.718678 -113.314975 
L 241.079008 -113.257242 
L 239.439339 -113.501394 
L 237.799669 -113.584039 
L 236.16 -114.27121 
L 234.520331 -114.76717 
L 232.880661 -114.790533 
L 231.240992 -114.986859 
L 229.601322 -115.336152 
L 227.961653 -115.520067 
L 226.321983 -115.966169 
L 224.682314 -115.588167 
L 223.042645 -115.971347 
L 221.402975 -116.005246 
L 219.763306 -116.369741 
L 218.123636 -116.521519 
L 216.483967 -116.759099 
L 214.844298 -117.2047 
L 213.204628 -117.37868 
L 211.564959 -117.827168 
L 209.925289 -118.477206 
L 208.28562 -118.990629 
L 206.64595 -119.210426 
L 205.006281 -119.422635 
L 203.366612 -119.479586 
L 201.726942 -119.231827 
L 200.087273 -120.282398 
L 198.447603 -120.369865 
L 196.807934 -120.544117 
L 195.168264 -120.37341 
L 193.528595 -120.680823 
L 191.888926 -120.558564 
L 190.249256 -120.625887 
L 188.609587 -120.90578 
L 186.969917 -122.351878 
L 185.330248 -123.015 
L 183.690579 -123.402472 
L 182.050909 -123.982472 
L 180.41124 -124.77828 
L 178.77157 -125.716328 
L 177.131901 -126.10409 
L 175.492231 -126.963599 
L 173.852562 -127.216608 
L 172.212893 -127.52946 
L 170.573223 -128.260876 
L 168.933554 -129.344753 
L 167.293884 -130.254659 
L 165.654215 -130.63152 
L 164.014545 -131.430028 
L 162.374876 -132.35005 
L 160.735207 -132.577058 
L 159.095537 -134.751315 
L 157.455868 -135.815225 
L 155.816198 -136.011862 
L 154.176529 -136.042649 
L 152.53686 -136.89209 
L 150.89719 -137.091386 
L 149.257521 -138.689244 
L 147.617851 -139.056467 
L 145.978182 -140.103722 
L 144.338512 -140.448603 
L 142.698843 -141.382976 
L 141.059174 -144.354904 
L 139.419504 -145.660821 
L 137.779835 -146.815387 
L 136.140165 -146.255271 
L 134.500496 -147.783813 
L 132.860826 -148.086222 
L 131.221157 -147.721529 
L 129.581488 -147.336698 
L 127.941818 -148.095023 
L 126.302149 -148.71975 
L 124.662479 -149.057797 
L 123.02281 -151.05717 
L 121.38314 -152.947734 
L 119.743471 -154.103002 
L 118.103802 -154.583327 
L 116.464132 -155.852079 
L 114.824463 -158.873751 
L 113.184793 -161.422269 
L 111.545124 -164.731329 
L 109.905455 -165.795911 
L 108.265785 -168.605973 
L 106.626116 -171.401978 
L 104.986446 -174.251325 
L 103.346777 -176.627942 
L 101.707107 -179.430394 
L 100.067438 -180.842793 
L 98.427769 -183.240002 
L 96.788099 -187.922779 
L 95.14843 -195.640549 
L 93.50876 -200.308439 
L 91.869091 -206.888991 
L 90.229421 -205.598183 
L 88.589752 -209.425793 
L 86.950083 -216.626162 
L 85.310413 -220.837599 
L 83.670744 -234.321861 
L 82.031074 -246.851456 
L 80.391405 -265.887388 
L 78.751736 -269.964892 
L 77.112066 -290.786644 
L 75.472397 -313.369624 
L 73.832727 -382.558021 
z
" id="m1f89b75581" style="stroke:#40a368;stroke-opacity:0.1;"/>
    </defs>
    <g clip-path="url(#p29767f9b56)">
     <use style="fill:#40a368;fill-opacity:0.1;stroke:#40a368;stroke-opacity:0.1;" x="0" xlink:href="#m1f89b75581" y="345.6"/>
    </g>
   </g>
   <g id="matplotlib.axis_1">
    <g id="xtick_1">
     <g id="line2d_1">
      <defs>
       <path d="M 0 0 
L 0 3.5 
" id="m38fadd96ed" style="stroke:#000000;stroke-width:0.8;"/>
      </defs>
      <g>
       <use style="stroke:#000000;stroke-width:0.8;" x="73.832727" xlink:href="#m38fadd96ed" y="307.584"/>
      </g>
     </g>
     <g id="text_1">
      <!-- 0 -->
      <g transform="translate(68.742727 326.7415)scale(0.16 -0.16)">
       <defs>
        <path d="M 2034 4250 
Q 1547 4250 1301 3770 
Q 1056 3291 1056 2328 
Q 1056 1369 1301 889 
Q 1547 409 2034 409 
Q 2525 409 2770 889 
Q 3016 1369 3016 2328 
Q 3016 3291 2770 3770 
Q 2525 4250 2034 4250 
z
M 2034 4750 
Q 2819 4750 3233 4129 
Q 3647 3509 3647 2328 
Q 3647 1150 3233 529 
Q 2819 -91 2034 -91 
Q 1250 -91 836 529 
Q 422 1150 422 2328 
Q 422 3509 836 4129 
Q 1250 4750 2034 4750 
z
" id="DejaVuSans-30" transform="scale(0.015625)"/>
       </defs>
       <use xlink:href="#DejaVuSans-30"/>
      </g>
     </g>
    </g>
    <g id="xtick_2">
     <g id="line2d_2">
      <g>
       <use style="stroke:#000000;stroke-width:0.8;" x="139.419504" xlink:href="#m38fadd96ed" y="307.584"/>
      </g>
     </g>
     <g id="text_2">
      <!-- 200 -->
      <g transform="translate(124.149504 326.7415)scale(0.16 -0.16)">
       <defs>
        <path d="M 1228 531 
L 3431 531 
L 3431 0 
L 469 0 
L 469 531 
Q 828 903 1448 1529 
Q 2069 2156 2228 2338 
Q 2531 2678 2651 2914 
Q 2772 3150 2772 3378 
Q 2772 3750 2511 3984 
Q 2250 4219 1831 4219 
Q 1534 4219 1204 4116 
Q 875 4013 500 3803 
L 500 4441 
Q 881 4594 1212 4672 
Q 1544 4750 1819 4750 
Q 2544 4750 2975 4387 
Q 3406 4025 3406 3419 
Q 3406 3131 3298 2873 
Q 3191 2616 2906 2266 
Q 2828 2175 2409 1742 
Q 1991 1309 1228 531 
z
" id="DejaVuSans-32" transform="scale(0.015625)"/>
       </defs>
       <use xlink:href="#DejaVuSans-32"/>
       <use x="63.623047" xlink:href="#DejaVuSans-30"/>
       <use x="127.246094" xlink:href="#DejaVuSans-30"/>
      </g>
     </g>
    </g>
    <g id="xtick_3">
     <g id="line2d_3">
      <g>
       <use style="stroke:#000000;stroke-width:0.8;" x="205.006281" xlink:href="#m38fadd96ed" y="307.584"/>
      </g>
     </g>
     <g id="text_3">
      <!-- 400 -->
      <g transform="translate(189.736281 326.7415)scale(0.16 -0.16)">
       <defs>
        <path d="M 2419 4116 
L 825 1625 
L 2419 1625 
L 2419 4116 
z
M 2253 4666 
L 3047 4666 
L 3047 1625 
L 3713 1625 
L 3713 1100 
L 3047 1100 
L 3047 0 
L 2419 0 
L 2419 1100 
L 313 1100 
L 313 1709 
L 2253 4666 
z
" id="DejaVuSans-34" transform="scale(0.015625)"/>
       </defs>
       <use xlink:href="#DejaVuSans-34"/>
       <use x="63.623047" xlink:href="#DejaVuSans-30"/>
       <use x="127.246094" xlink:href="#DejaVuSans-30"/>
      </g>
     </g>
    </g>
    <g id="xtick_4">
     <g id="line2d_4">
      <g>
       <use style="stroke:#000000;stroke-width:0.8;" x="270.593058" xlink:href="#m38fadd96ed" y="307.584"/>
      </g>
     </g>
     <g id="text_4">
      <!-- 600 -->
      <g transform="translate(255.323058 326.7415)scale(0.16 -0.16)">
       <defs>
        <path d="M 2113 2584 
Q 1688 2584 1439 2293 
Q 1191 2003 1191 1497 
Q 1191 994 1439 701 
Q 1688 409 2113 409 
Q 2538 409 2786 701 
Q 3034 994 3034 1497 
Q 3034 2003 2786 2293 
Q 2538 2584 2113 2584 
z
M 3366 4563 
L 3366 3988 
Q 3128 4100 2886 4159 
Q 2644 4219 2406 4219 
Q 1781 4219 1451 3797 
Q 1122 3375 1075 2522 
Q 1259 2794 1537 2939 
Q 1816 3084 2150 3084 
Q 2853 3084 3261 2657 
Q 3669 2231 3669 1497 
Q 3669 778 3244 343 
Q 2819 -91 2113 -91 
Q 1303 -91 875 529 
Q 447 1150 447 2328 
Q 447 3434 972 4092 
Q 1497 4750 2381 4750 
Q 2619 4750 2861 4703 
Q 3103 4656 3366 4563 
z
" id="DejaVuSans-36" transform="scale(0.015625)"/>
       </defs>
       <use xlink:href="#DejaVuSans-36"/>
       <use x="63.623047" xlink:href="#DejaVuSans-30"/>
       <use x="127.246094" xlink:href="#DejaVuSans-30"/>
      </g>
     </g>
    </g>
    <g id="xtick_5">
     <g id="line2d_5">
      <g>
       <use style="stroke:#000000;stroke-width:0.8;" x="336.179835" xlink:href="#m38fadd96ed" y="307.584"/>
      </g>
     </g>
     <g id="text_5">
      <!-- 800 -->
      <g transform="translate(320.909835 326.7415)scale(0.16 -0.16)">
       <defs>
        <path d="M 2034 2216 
Q 1584 2216 1326 1975 
Q 1069 1734 1069 1313 
Q 1069 891 1326 650 
Q 1584 409 2034 409 
Q 2484 409 2743 651 
Q 3003 894 3003 1313 
Q 3003 1734 2745 1975 
Q 2488 2216 2034 2216 
z
M 1403 2484 
Q 997 2584 770 2862 
Q 544 3141 544 3541 
Q 544 4100 942 4425 
Q 1341 4750 2034 4750 
Q 2731 4750 3128 4425 
Q 3525 4100 3525 3541 
Q 3525 3141 3298 2862 
Q 3072 2584 2669 2484 
Q 3125 2378 3379 2068 
Q 3634 1759 3634 1313 
Q 3634 634 3220 271 
Q 2806 -91 2034 -91 
Q 1263 -91 848 271 
Q 434 634 434 1313 
Q 434 1759 690 2068 
Q 947 2378 1403 2484 
z
M 1172 3481 
Q 1172 3119 1398 2916 
Q 1625 2713 2034 2713 
Q 2441 2713 2670 2916 
Q 2900 3119 2900 3481 
Q 2900 3844 2670 4047 
Q 2441 4250 2034 4250 
Q 1625 4250 1398 4047 
Q 1172 3844 1172 3481 
z
" id="DejaVuSans-38" transform="scale(0.015625)"/>
       </defs>
       <use xlink:href="#DejaVuSans-38"/>
       <use x="63.623047" xlink:href="#DejaVuSans-30"/>
       <use x="127.246094" xlink:href="#DejaVuSans-30"/>
      </g>
     </g>
    </g>
    <g id="xtick_6">
     <g id="line2d_6">
      <g>
       <use style="stroke:#000000;stroke-width:0.8;" x="401.766612" xlink:href="#m38fadd96ed" y="307.584"/>
      </g>
     </g>
     <g id="text_6">
      <!-- 1000 -->
      <g transform="translate(381.406612 326.7415)scale(0.16 -0.16)">
       <defs>
        <path d="M 794 531 
L 1825 531 
L 1825 4091 
L 703 3866 
L 703 4441 
L 1819 4666 
L 2450 4666 
L 2450 531 
L 3481 531 
L 3481 0 
L 794 0 
L 794 531 
z
" id="DejaVuSans-31" transform="scale(0.015625)"/>
       </defs>
       <use xlink:href="#DejaVuSans-31"/>
       <use x="63.623047" xlink:href="#DejaVuSans-30"/>
       <use x="127.246094" xlink:href="#DejaVuSans-30"/>
       <use x="190.869141" xlink:href="#DejaVuSans-30"/>
      </g>
     </g>
    </g>
    <g id="text_7">
     <!-- Number of resamples -->
     <g transform="translate(149.94125 346.2265)scale(0.16 -0.16)">
      <defs>
       <path d="M 628 4666 
L 1478 4666 
L 3547 763 
L 3547 4666 
L 4159 4666 
L 4159 0 
L 3309 0 
L 1241 3903 
L 1241 0 
L 628 0 
L 628 4666 
z
" id="DejaVuSans-4e" transform="scale(0.015625)"/>
       <path d="M 544 1381 
L 544 3500 
L 1119 3500 
L 1119 1403 
Q 1119 906 1312 657 
Q 1506 409 1894 409 
Q 2359 409 2629 706 
Q 2900 1003 2900 1516 
L 2900 3500 
L 3475 3500 
L 3475 0 
L 2900 0 
L 2900 538 
Q 2691 219 2414 64 
Q 2138 -91 1772 -91 
Q 1169 -91 856 284 
Q 544 659 544 1381 
z
M 1991 3584 
L 1991 3584 
z
" id="DejaVuSans-75" transform="scale(0.015625)"/>
       <path d="M 3328 2828 
Q 3544 3216 3844 3400 
Q 4144 3584 4550 3584 
Q 5097 3584 5394 3201 
Q 5691 2819 5691 2113 
L 5691 0 
L 5113 0 
L 5113 2094 
Q 5113 2597 4934 2840 
Q 4756 3084 4391 3084 
Q 3944 3084 3684 2787 
Q 3425 2491 3425 1978 
L 3425 0 
L 2847 0 
L 2847 2094 
Q 2847 2600 2669 2842 
Q 2491 3084 2119 3084 
Q 1678 3084 1418 2786 
Q 1159 2488 1159 1978 
L 1159 0 
L 581 0 
L 581 3500 
L 1159 3500 
L 1159 2956 
Q 1356 3278 1631 3431 
Q 1906 3584 2284 3584 
Q 2666 3584 2933 3390 
Q 3200 3197 3328 2828 
z
" id="DejaVuSans-6d" transform="scale(0.015625)"/>
       <path d="M 3116 1747 
Q 3116 2381 2855 2742 
Q 2594 3103 2138 3103 
Q 1681 3103 1420 2742 
Q 1159 2381 1159 1747 
Q 1159 1113 1420 752 
Q 1681 391 2138 391 
Q 2594 391 2855 752 
Q 3116 1113 3116 1747 
z
M 1159 2969 
Q 1341 3281 1617 3432 
Q 1894 3584 2278 3584 
Q 2916 3584 3314 3078 
Q 3713 2572 3713 1747 
Q 3713 922 3314 415 
Q 2916 -91 2278 -91 
Q 1894 -91 1617 61 
Q 1341 213 1159 525 
L 1159 0 
L 581 0 
L 581 4863 
L 1159 4863 
L 1159 2969 
z
" id="DejaVuSans-62" transform="scale(0.015625)"/>
       <path d="M 3597 1894 
L 3597 1613 
L 953 1613 
Q 991 1019 1311 708 
Q 1631 397 2203 397 
Q 2534 397 2845 478 
Q 3156 559 3463 722 
L 3463 178 
Q 3153 47 2828 -22 
Q 2503 -91 2169 -91 
Q 1331 -91 842 396 
Q 353 884 353 1716 
Q 353 2575 817 3079 
Q 1281 3584 2069 3584 
Q 2775 3584 3186 3129 
Q 3597 2675 3597 1894 
z
M 3022 2063 
Q 3016 2534 2758 2815 
Q 2500 3097 2075 3097 
Q 1594 3097 1305 2825 
Q 1016 2553 972 2059 
L 3022 2063 
z
" id="DejaVuSans-65" transform="scale(0.015625)"/>
       <path d="M 2631 2963 
Q 2534 3019 2420 3045 
Q 2306 3072 2169 3072 
Q 1681 3072 1420 2755 
Q 1159 2438 1159 1844 
L 1159 0 
L 581 0 
L 581 3500 
L 1159 3500 
L 1159 2956 
Q 1341 3275 1631 3429 
Q 1922 3584 2338 3584 
Q 2397 3584 2469 3576 
Q 2541 3569 2628 3553 
L 2631 2963 
z
" id="DejaVuSans-72" transform="scale(0.015625)"/>
       <path id="DejaVuSans-20" transform="scale(0.015625)"/>
       <path d="M 1959 3097 
Q 1497 3097 1228 2736 
Q 959 2375 959 1747 
Q 959 1119 1226 758 
Q 1494 397 1959 397 
Q 2419 397 2687 759 
Q 2956 1122 2956 1747 
Q 2956 2369 2687 2733 
Q 2419 3097 1959 3097 
z
M 1959 3584 
Q 2709 3584 3137 3096 
Q 3566 2609 3566 1747 
Q 3566 888 3137 398 
Q 2709 -91 1959 -91 
Q 1206 -91 779 398 
Q 353 888 353 1747 
Q 353 2609 779 3096 
Q 1206 3584 1959 3584 
z
" id="DejaVuSans-6f" transform="scale(0.015625)"/>
       <path d="M 2375 4863 
L 2375 4384 
L 1825 4384 
Q 1516 4384 1395 4259 
Q 1275 4134 1275 3809 
L 1275 3500 
L 2222 3500 
L 2222 3053 
L 1275 3053 
L 1275 0 
L 697 0 
L 697 3053 
L 147 3053 
L 147 3500 
L 697 3500 
L 697 3744 
Q 697 4328 969 4595 
Q 1241 4863 1831 4863 
L 2375 4863 
z
" id="DejaVuSans-66" transform="scale(0.015625)"/>
       <path d="M 2834 3397 
L 2834 2853 
Q 2591 2978 2328 3040 
Q 2066 3103 1784 3103 
Q 1356 3103 1142 2972 
Q 928 2841 928 2578 
Q 928 2378 1081 2264 
Q 1234 2150 1697 2047 
L 1894 2003 
Q 2506 1872 2764 1633 
Q 3022 1394 3022 966 
Q 3022 478 2636 193 
Q 2250 -91 1575 -91 
Q 1294 -91 989 -36 
Q 684 19 347 128 
L 347 722 
Q 666 556 975 473 
Q 1284 391 1588 391 
Q 1994 391 2212 530 
Q 2431 669 2431 922 
Q 2431 1156 2273 1281 
Q 2116 1406 1581 1522 
L 1381 1569 
Q 847 1681 609 1914 
Q 372 2147 372 2553 
Q 372 3047 722 3315 
Q 1072 3584 1716 3584 
Q 2034 3584 2315 3537 
Q 2597 3491 2834 3397 
z
" id="DejaVuSans-73" transform="scale(0.015625)"/>
       <path d="M 2194 1759 
Q 1497 1759 1228 1600 
Q 959 1441 959 1056 
Q 959 750 1161 570 
Q 1363 391 1709 391 
Q 2188 391 2477 730 
Q 2766 1069 2766 1631 
L 2766 1759 
L 2194 1759 
z
M 3341 1997 
L 3341 0 
L 2766 0 
L 2766 531 
Q 2569 213 2275 61 
Q 1981 -91 1556 -91 
Q 1019 -91 701 211 
Q 384 513 384 1019 
Q 384 1609 779 1909 
Q 1175 2209 1959 2209 
L 2766 2209 
L 2766 2266 
Q 2766 2663 2505 2880 
Q 2244 3097 1772 3097 
Q 1472 3097 1187 3025 
Q 903 2953 641 2809 
L 641 3341 
Q 956 3463 1253 3523 
Q 1550 3584 1831 3584 
Q 2591 3584 2966 3190 
Q 3341 2797 3341 1997 
z
" id="DejaVuSans-61" transform="scale(0.015625)"/>
       <path d="M 1159 525 
L 1159 -1331 
L 581 -1331 
L 581 3500 
L 1159 3500 
L 1159 2969 
Q 1341 3281 1617 3432 
Q 1894 3584 2278 3584 
Q 2916 3584 3314 3078 
Q 3713 2572 3713 1747 
Q 3713 922 3314 415 
Q 2916 -91 2278 -91 
Q 1894 -91 1617 61 
Q 1341 213 1159 525 
z
M 3116 1747 
Q 3116 2381 2855 2742 
Q 2594 3103 2138 3103 
Q 1681 3103 1420 2742 
Q 1159 2381 1159 1747 
Q 1159 1113 1420 752 
Q 1681 391 2138 391 
Q 2594 391 2855 752 
Q 3116 1113 3116 1747 
z
" id="DejaVuSans-70" transform="scale(0.015625)"/>
       <path d="M 603 4863 
L 1178 4863 
L 1178 0 
L 603 0 
L 603 4863 
z
" id="DejaVuSans-6c" transform="scale(0.015625)"/>
      </defs>
      <use xlink:href="#DejaVuSans-4e"/>
      <use x="74.804688" xlink:href="#DejaVuSans-75"/>
      <use x="138.183594" xlink:href="#DejaVuSans-6d"/>
      <use x="235.595703" xlink:href="#DejaVuSans-62"/>
      <use x="299.072266" xlink:href="#DejaVuSans-65"/>
      <use x="360.595703" xlink:href="#DejaVuSans-72"/>
      <use x="401.708984" xlink:href="#DejaVuSans-20"/>
      <use x="433.496094" xlink:href="#DejaVuSans-6f"/>
      <use x="494.677734" xlink:href="#DejaVuSans-66"/>
      <use x="529.882812" xlink:href="#DejaVuSans-20"/>
      <use x="561.669922" xlink:href="#DejaVuSans-72"/>
      <use x="600.533203" xlink:href="#DejaVuSans-65"/>
      <use x="662.056641" xlink:href="#DejaVuSans-73"/>
      <use x="714.15625" xlink:href="#DejaVuSans-61"/>
      <use x="775.435547" xlink:href="#DejaVuSans-6d"/>
      <use x="872.847656" xlink:href="#DejaVuSans-70"/>
      <use x="936.324219" xlink:href="#DejaVuSans-6c"/>
      <use x="964.107422" xlink:href="#DejaVuSans-65"/>
      <use x="1025.630859" xlink:href="#DejaVuSans-73"/>
     </g>
    </g>
   </g>
   <g id="matplotlib.axis_2">
    <g id="ytick_1">
     <g id="line2d_7">
      <defs>
       <path d="M 0 0 
L -3.5 0 
" id="m2e0f9b2407" style="stroke:#000000;stroke-width:0.8;"/>
      </defs>
      <g>
       <use style="stroke:#000000;stroke-width:0.8;" x="57.6" xlink:href="#m2e0f9b2407" y="307.584"/>
      </g>
     </g>
     <g id="text_8">
      <!-- 0.00 -->
      <g transform="translate(14.975 313.66275)scale(0.16 -0.16)">
       <defs>
        <path d="M 684 794 
L 1344 794 
L 1344 0 
L 684 0 
L 684 794 
z
" id="DejaVuSans-2e" transform="scale(0.015625)"/>
       </defs>
       <use xlink:href="#DejaVuSans-30"/>
       <use x="63.623047" xlink:href="#DejaVuSans-2e"/>
       <use x="95.410156" xlink:href="#DejaVuSans-30"/>
       <use x="159.033203" xlink:href="#DejaVuSans-30"/>
      </g>
     </g>
    </g>
    <g id="ytick_2">
     <g id="line2d_8">
      <g>
       <use style="stroke:#000000;stroke-width:0.8;" x="57.6" xlink:href="#m2e0f9b2407" y="247.104"/>
      </g>
     </g>
     <g id="text_9">
      <!-- 0.05 -->
      <g transform="translate(14.975 253.18275)scale(0.16 -0.16)">
       <defs>
        <path d="M 691 4666 
L 3169 4666 
L 3169 4134 
L 1269 4134 
L 1269 2991 
Q 1406 3038 1543 3061 
Q 1681 3084 1819 3084 
Q 2600 3084 3056 2656 
Q 3513 2228 3513 1497 
Q 3513 744 3044 326 
Q 2575 -91 1722 -91 
Q 1428 -91 1123 -41 
Q 819 9 494 109 
L 494 744 
Q 775 591 1075 516 
Q 1375 441 1709 441 
Q 2250 441 2565 725 
Q 2881 1009 2881 1497 
Q 2881 1984 2565 2268 
Q 2250 2553 1709 2553 
Q 1456 2553 1204 2497 
Q 953 2441 691 2322 
L 691 4666 
z
" id="DejaVuSans-35" transform="scale(0.015625)"/>
       </defs>
       <use xlink:href="#DejaVuSans-30"/>
       <use x="63.623047" xlink:href="#DejaVuSans-2e"/>
       <use x="95.410156" xlink:href="#DejaVuSans-30"/>
       <use x="159.033203" xlink:href="#DejaVuSans-35"/>
      </g>
     </g>
    </g>
    <g id="ytick_3">
     <g id="line2d_9">
      <g>
       <use style="stroke:#000000;stroke-width:0.8;" x="57.6" xlink:href="#m2e0f9b2407" y="186.624"/>
      </g>
     </g>
     <g id="text_10">
      <!-- 0.10 -->
      <g transform="translate(14.975 192.70275)scale(0.16 -0.16)">
       <use xlink:href="#DejaVuSans-30"/>
       <use x="63.623047" xlink:href="#DejaVuSans-2e"/>
       <use x="95.410156" xlink:href="#DejaVuSans-31"/>
       <use x="159.033203" xlink:href="#DejaVuSans-30"/>
      </g>
     </g>
    </g>
    <g id="ytick_4">
     <g id="line2d_10">
      <g>
       <use style="stroke:#000000;stroke-width:0.8;" x="57.6" xlink:href="#m2e0f9b2407" y="126.144"/>
      </g>
     </g>
     <g id="text_11">
      <!-- 0.15 -->
      <g transform="translate(14.975 132.22275)scale(0.16 -0.16)">
       <use xlink:href="#DejaVuSans-30"/>
       <use x="63.623047" xlink:href="#DejaVuSans-2e"/>
       <use x="95.410156" xlink:href="#DejaVuSans-31"/>
       <use x="159.033203" xlink:href="#DejaVuSans-35"/>
      </g>
     </g>
    </g>
    <g id="ytick_5">
     <g id="line2d_11">
      <g>
       <use style="stroke:#000000;stroke-width:0.8;" x="57.6" xlink:href="#m2e0f9b2407" y="65.664"/>
      </g>
     </g>
     <g id="text_12">
      <!-- 0.20 -->
      <g transform="translate(14.975 71.74275)scale(0.16 -0.16)">
       <use xlink:href="#DejaVuSans-30"/>
       <use x="63.623047" xlink:href="#DejaVuSans-2e"/>
       <use x="95.410156" xlink:href="#DejaVuSans-32"/>
       <use x="159.033203" xlink:href="#DejaVuSans-30"/>
      </g>
     </g>
    </g>
    <g id="text_13">
     <!-- Sampling Errors -->
     <g transform="translate(7.6475 238.1805)rotate(-90)scale(0.16 -0.16)">
      <defs>
       <path d="M 3425 4513 
L 3425 3897 
Q 3066 4069 2747 4153 
Q 2428 4238 2131 4238 
Q 1616 4238 1336 4038 
Q 1056 3838 1056 3469 
Q 1056 3159 1242 3001 
Q 1428 2844 1947 2747 
L 2328 2669 
Q 3034 2534 3370 2195 
Q 3706 1856 3706 1288 
Q 3706 609 3251 259 
Q 2797 -91 1919 -91 
Q 1588 -91 1214 -16 
Q 841 59 441 206 
L 441 856 
Q 825 641 1194 531 
Q 1563 422 1919 422 
Q 2459 422 2753 634 
Q 3047 847 3047 1241 
Q 3047 1584 2836 1778 
Q 2625 1972 2144 2069 
L 1759 2144 
Q 1053 2284 737 2584 
Q 422 2884 422 3419 
Q 422 4038 858 4394 
Q 1294 4750 2059 4750 
Q 2388 4750 2728 4690 
Q 3069 4631 3425 4513 
z
" id="DejaVuSans-53" transform="scale(0.015625)"/>
       <path d="M 603 3500 
L 1178 3500 
L 1178 0 
L 603 0 
L 603 3500 
z
M 603 4863 
L 1178 4863 
L 1178 4134 
L 603 4134 
L 603 4863 
z
" id="DejaVuSans-69" transform="scale(0.015625)"/>
       <path d="M 3513 2113 
L 3513 0 
L 2938 0 
L 2938 2094 
Q 2938 2591 2744 2837 
Q 2550 3084 2163 3084 
Q 1697 3084 1428 2787 
Q 1159 2491 1159 1978 
L 1159 0 
L 581 0 
L 581 3500 
L 1159 3500 
L 1159 2956 
Q 1366 3272 1645 3428 
Q 1925 3584 2291 3584 
Q 2894 3584 3203 3211 
Q 3513 2838 3513 2113 
z
" id="DejaVuSans-6e" transform="scale(0.015625)"/>
       <path d="M 2906 1791 
Q 2906 2416 2648 2759 
Q 2391 3103 1925 3103 
Q 1463 3103 1205 2759 
Q 947 2416 947 1791 
Q 947 1169 1205 825 
Q 1463 481 1925 481 
Q 2391 481 2648 825 
Q 2906 1169 2906 1791 
z
M 3481 434 
Q 3481 -459 3084 -895 
Q 2688 -1331 1869 -1331 
Q 1566 -1331 1297 -1286 
Q 1028 -1241 775 -1147 
L 775 -588 
Q 1028 -725 1275 -790 
Q 1522 -856 1778 -856 
Q 2344 -856 2625 -561 
Q 2906 -266 2906 331 
L 2906 616 
Q 2728 306 2450 153 
Q 2172 0 1784 0 
Q 1141 0 747 490 
Q 353 981 353 1791 
Q 353 2603 747 3093 
Q 1141 3584 1784 3584 
Q 2172 3584 2450 3431 
Q 2728 3278 2906 2969 
L 2906 3500 
L 3481 3500 
L 3481 434 
z
" id="DejaVuSans-67" transform="scale(0.015625)"/>
       <path d="M 628 4666 
L 3578 4666 
L 3578 4134 
L 1259 4134 
L 1259 2753 
L 3481 2753 
L 3481 2222 
L 1259 2222 
L 1259 531 
L 3634 531 
L 3634 0 
L 628 0 
L 628 4666 
z
" id="DejaVuSans-45" transform="scale(0.015625)"/>
      </defs>
      <use xlink:href="#DejaVuSans-53"/>
      <use x="63.476562" xlink:href="#DejaVuSans-61"/>
      <use x="124.755859" xlink:href="#DejaVuSans-6d"/>
      <use x="222.167969" xlink:href="#DejaVuSans-70"/>
      <use x="285.644531" xlink:href="#DejaVuSans-6c"/>
      <use x="313.427734" xlink:href="#DejaVuSans-69"/>
      <use x="341.210938" xlink:href="#DejaVuSans-6e"/>
      <use x="404.589844" xlink:href="#DejaVuSans-67"/>
      <use x="468.066406" xlink:href="#DejaVuSans-20"/>
      <use x="499.853516" xlink:href="#DejaVuSans-45"/>
      <use x="563.037109" xlink:href="#DejaVuSans-72"/>
      <use x="602.400391" xlink:href="#DejaVuSans-72"/>
      <use x="641.263672" xlink:href="#DejaVuSans-6f"/>
      <use x="702.445312" xlink:href="#DejaVuSans-72"/>
      <use x="743.558594" xlink:href="#DejaVuSans-73"/>
     </g>
    </g>
   </g>
   <g id="line2d_12">
    <path clip-path="url(#p29767f9b56)" d="M 73.832727 12.489843 
L 75.472397 73.183022 
L 77.112066 105.888392 
L 78.751736 126.693806 
L 82.031074 153.999067 
L 83.670744 163.609961 
L 85.310413 170.832904 
L 86.950083 176.889371 
L 88.589752 180.685985 
L 90.229421 185.457892 
L 91.869091 191.175025 
L 93.50876 195.41763 
L 96.788099 202.925884 
L 98.427769 205.549812 
L 100.067438 208.608212 
L 104.986446 216.320042 
L 106.626116 217.97841 
L 108.265785 220.09765 
L 113.184793 225.710735 
L 114.824463 227.133971 
L 118.103802 230.842327 
L 119.743471 231.977099 
L 121.38314 233.599045 
L 123.02281 234.895397 
L 124.662479 236.418914 
L 126.302149 237.596303 
L 127.941818 238.56553 
L 131.221157 240.855476 
L 132.860826 241.830188 
L 134.500496 242.623142 
L 136.140165 244.005636 
L 139.419504 245.987493 
L 141.059174 246.609275 
L 142.698843 247.413582 
L 145.978182 248.770811 
L 150.89719 251.609255 
L 152.53686 252.339812 
L 154.176529 253.372696 
L 155.816198 253.871428 
L 164.014545 257.291068 
L 167.293884 258.546905 
L 168.933554 259.436823 
L 172.212893 260.470151 
L 173.852562 261.396533 
L 175.492231 261.913931 
L 177.131901 262.164293 
L 180.41124 263.550116 
L 182.050909 263.777947 
L 183.690579 264.31014 
L 185.330248 264.683058 
L 186.969917 265.421693 
L 188.609587 265.533678 
L 190.249256 265.924326 
L 191.888926 266.558626 
L 195.168264 267.142162 
L 198.447603 268.085123 
L 200.087273 268.330461 
L 201.726942 268.93459 
L 205.006281 269.661354 
L 206.64595 269.923658 
L 209.925289 270.692448 
L 211.564959 270.880477 
L 218.123636 272.213545 
L 219.763306 272.239078 
L 223.042645 272.806971 
L 232.880661 274.390464 
L 236.16 275.285854 
L 237.799669 275.590106 
L 239.439339 275.734894 
L 241.079008 276.015772 
L 245.998017 276.442705 
L 247.637686 276.823544 
L 249.277355 276.801955 
L 250.917025 277.175881 
L 255.836033 277.559708 
L 262.394711 278.606317 
L 270.593058 279.536941 
L 273.872397 279.725419 
L 278.791405 280.303885 
L 282.070744 280.445064 
L 283.710413 280.727306 
L 285.350083 280.881626 
L 286.989752 280.805531 
L 290.269091 281.280301 
L 295.188099 281.549211 
L 316.503802 283.183841 
L 318.143471 283.167415 
L 319.78314 283.31989 
L 323.062479 283.427287 
L 326.341818 283.728443 
L 331.260826 283.844988 
L 332.900496 284.043811 
L 334.540165 283.98789 
L 337.819504 284.238001 
L 339.459174 284.272027 
L 347.657521 285.038492 
L 350.93686 285.085667 
L 352.576529 285.293377 
L 360.774876 285.70354 
L 362.414545 285.682994 
L 373.892231 286.234742 
L 378.81124 286.343034 
L 390.288926 286.820354 
L 393.568264 286.936681 
L 398.487273 287.221983 
L 398.487273 287.221983 
" style="fill:none;stroke:#f97306;stroke-linecap:square;stroke-width:1.5;"/>
   </g>
   <g id="line2d_13">
    <path clip-path="url(#p29767f9b56)" d="M 74.329484 -1 
L 75.472397 51.816315 
L 77.112066 84.777765 
L 78.751736 110.078875 
L 80.391405 126.289784 
L 82.031074 139.765057 
L 83.670744 150.097692 
L 86.950083 164.25756 
L 90.229421 174.96014 
L 93.50876 182.885035 
L 98.427769 192.779817 
L 101.707107 198.336795 
L 103.346777 200.215068 
L 104.986446 202.556146 
L 106.626116 205.134633 
L 108.265785 207.281573 
L 111.545124 211.192492 
L 113.184793 212.442138 
L 114.824463 214.258171 
L 116.464132 215.660272 
L 118.103802 217.41944 
L 119.743471 218.923976 
L 126.302149 224.097201 
L 127.941818 225.178642 
L 129.581488 226.424068 
L 132.860826 228.458115 
L 134.500496 229.657447 
L 136.140165 230.564621 
L 139.419504 232.6726 
L 141.059174 233.481183 
L 142.698843 234.725658 
L 145.978182 236.551769 
L 147.617851 237.268642 
L 150.89719 239.091443 
L 152.53686 239.99699 
L 154.176529 240.620577 
L 155.816198 241.485219 
L 157.455868 242.089296 
L 159.095537 242.902959 
L 162.374876 244.218534 
L 164.014545 245.152234 
L 172.212893 248.320382 
L 173.852562 248.784746 
L 180.41124 251.296276 
L 185.330248 252.752338 
L 188.609587 253.7234 
L 191.888926 254.567295 
L 193.528595 255.091406 
L 198.447603 256.235261 
L 200.087273 256.71988 
L 203.366612 257.53646 
L 211.564959 259.851724 
L 214.844298 260.550911 
L 216.483967 260.94526 
L 219.763306 261.580921 
L 221.402975 262.041638 
L 224.682314 262.586689 
L 226.321983 263.104204 
L 231.240992 263.981756 
L 234.520331 264.543025 
L 239.439339 265.329529 
L 241.079008 265.439088 
L 257.475702 267.926604 
L 270.593058 269.544671 
L 272.232727 269.775435 
L 275.512066 269.947186 
L 303.386446 273.089539 
L 306.665785 273.272638 
L 313.224463 273.830998 
L 314.864132 274.072914 
L 318.143471 274.338002 
L 319.78314 274.56137 
L 326.341818 275.02721 
L 334.540165 275.626426 
L 354.216198 277.107427 
L 359.135207 277.430307 
L 368.973223 278.113879 
L 372.252562 278.233133 
L 377.17157 278.581154 
L 398.487273 279.65364 
L 398.487273 279.65364 
" style="fill:none;stroke:#5a7d9a;stroke-linecap:square;stroke-width:1.5;"/>
   </g>
   <g id="line2d_14">
    <path clip-path="url(#p29767f9b56)" d="M 57.6 279.65364 
L 414.72 279.65364 
" style="fill:none;stroke:#5a7d9a;stroke-dasharray:5.55,2.4;stroke-dashoffset:0;stroke-opacity:0.4;stroke-width:1.5;"/>
   </g>
   <g id="line2d_15">
    <path clip-path="url(#p29767f9b56)" d="M 74.453535 -1 
L 75.472397 43.017845 
L 78.751736 80.999773 
L 80.391405 87.927613 
L 82.031074 105.713737 
L 83.670744 117.41989 
L 85.310413 125.702457 
L 86.950083 133.193915 
L 90.229421 142.720793 
L 91.869091 145.321763 
L 93.50876 150.447532 
L 95.14843 154.606671 
L 98.427769 163.791103 
L 100.067438 166.824305 
L 101.707107 169.408274 
L 103.346777 173.11784 
L 104.986446 175.384158 
L 106.626116 178.185974 
L 108.265785 180.695239 
L 109.905455 183.812041 
L 111.545124 184.587669 
L 113.184793 187.518451 
L 114.824463 188.839539 
L 118.103802 193.340388 
L 119.743471 194.042875 
L 121.38314 194.911261 
L 124.662479 197.703086 
L 126.302149 198.28558 
L 127.941818 199.916923 
L 129.581488 200.743297 
L 131.221157 200.782776 
L 132.860826 201.595258 
L 134.500496 202.14369 
L 136.140165 203.339622 
L 137.779835 203.48301 
L 139.419504 204.45595 
L 141.059174 205.569322 
L 142.698843 207.653251 
L 145.978182 209.269548 
L 147.617851 210.313192 
L 149.257521 210.645133 
L 150.89719 211.817645 
L 152.53686 212.400176 
L 154.176529 213.525532 
L 155.816198 213.658492 
L 157.455868 214.145339 
L 159.095537 214.820439 
L 160.735207 216.079089 
L 162.374876 216.360681 
L 164.014545 216.860426 
L 165.654215 217.937505 
L 167.293884 218.311126 
L 168.933554 218.957144 
L 170.573223 219.926263 
L 172.212893 220.609288 
L 175.492231 221.134816 
L 177.131901 222.214724 
L 180.41124 223.401864 
L 183.690579 224.539167 
L 185.330248 225.236379 
L 186.969917 225.408222 
L 188.609587 226.394142 
L 190.249256 226.881542 
L 191.888926 227.195352 
L 193.528595 227.036223 
L 195.168264 227.247168 
L 198.447603 227.173129 
L 200.087273 227.333825 
L 201.726942 227.89721 
L 203.366612 227.907027 
L 205.006281 228.09734 
L 211.564959 229.562055 
L 213.204628 230.007364 
L 214.844298 230.045894 
L 218.123636 230.906476 
L 219.763306 231.100632 
L 221.402975 231.504182 
L 223.042645 231.659242 
L 224.682314 231.940199 
L 226.321983 231.926102 
L 227.961653 232.378522 
L 229.601322 232.480959 
L 232.880661 233.133553 
L 234.520331 233.088645 
L 237.799669 234.037212 
L 245.998017 235.300954 
L 247.637686 235.68819 
L 250.917025 236.06646 
L 252.556694 236.287916 
L 254.196364 236.68718 
L 255.836033 236.955145 
L 259.115372 236.967899 
L 260.755041 236.759965 
L 262.394711 236.907532 
L 264.03438 237.234301 
L 265.67405 237.29277 
L 268.953388 238.078989 
L 270.593058 238.136403 
L 272.232727 238.545172 
L 277.151736 238.662825 
L 278.791405 238.910946 
L 280.431074 239.017369 
L 282.070744 238.976156 
L 285.350083 239.182045 
L 286.989752 239.41588 
L 288.629421 239.868491 
L 291.90876 240.36716 
L 293.54843 240.53724 
L 295.188099 240.441491 
L 303.386446 241.409644 
L 305.026116 241.468022 
L 306.665785 241.747485 
L 308.305455 241.650256 
L 309.945124 242.028485 
L 311.584793 241.90885 
L 314.864132 242.086556 
L 316.503802 242.084816 
L 318.143471 242.199579 
L 319.78314 242.10983 
L 323.062479 242.436962 
L 324.702149 242.353231 
L 329.621157 242.819493 
L 337.819504 243.260476 
L 339.459174 243.402605 
L 341.098843 243.278811 
L 344.378182 243.831284 
L 346.017851 243.825919 
L 350.93686 244.40461 
L 357.495537 244.793776 
L 359.135207 244.730564 
L 360.774876 244.885674 
L 362.414545 245.152735 
L 364.054215 245.165489 
L 365.693884 245.515025 
L 367.333554 245.51819 
L 373.892231 246.218217 
L 377.17157 246.031313 
L 380.450909 246.091218 
L 385.369917 246.619311 
L 390.288926 246.899632 
L 391.928595 247.1024 
L 393.568264 247.191055 
L 396.847603 247.521897 
L 398.487273 247.64562 
L 398.487273 247.64562 
" style="fill:none;stroke:#40a368;stroke-linecap:square;stroke-width:1.5;"/>
   </g>
   <g id="line2d_16">
    <path clip-path="url(#p29767f9b56)" d="M 57.6 247.64562 
L 414.72 247.64562 
" style="fill:none;stroke:#40a368;stroke-dasharray:5.55,2.4;stroke-dashoffset:0;stroke-opacity:0.4;stroke-width:1.5;"/>
   </g>
   <g id="patch_3">
    <path d="M 57.6 307.584 
L 57.6 41.472 
" style="fill:none;stroke:#000000;stroke-linecap:square;stroke-linejoin:miter;stroke-width:0.8;"/>
   </g>
   <g id="patch_4">
    <path d="M 414.72 307.584 
L 414.72 41.472 
" style="fill:none;stroke:#000000;stroke-linecap:square;stroke-linejoin:miter;stroke-width:0.8;"/>
   </g>
   <g id="patch_5">
    <path d="M 57.6 307.584 
L 414.72 307.584 
" style="fill:none;stroke:#000000;stroke-linecap:square;stroke-linejoin:miter;stroke-width:0.8;"/>
   </g>
   <g id="patch_6">
    <path d="M 57.6 41.472 
L 414.72 41.472 
" style="fill:none;stroke:#000000;stroke-linecap:square;stroke-linejoin:miter;stroke-width:0.8;"/>
   </g>
   <g id="legend_1">
    <g id="line2d_17">
     <path d="M 191.8925 62.4295 
L 223.8925 62.4295 
" style="fill:none;stroke:#f97306;stroke-linecap:square;stroke-width:10;"/>
    </g>
    <g id="line2d_18"/>
    <g id="text_14">
     <!-- Riemannian Herding -->
     <g transform="translate(236.6925 68.0295)scale(0.16 -0.16)">
      <defs>
       <path d="M 2841 2188 
Q 3044 2119 3236 1894 
Q 3428 1669 3622 1275 
L 4263 0 
L 3584 0 
L 2988 1197 
Q 2756 1666 2539 1819 
Q 2322 1972 1947 1972 
L 1259 1972 
L 1259 0 
L 628 0 
L 628 4666 
L 2053 4666 
Q 2853 4666 3247 4331 
Q 3641 3997 3641 3322 
Q 3641 2881 3436 2590 
Q 3231 2300 2841 2188 
z
M 1259 4147 
L 1259 2491 
L 2053 2491 
Q 2509 2491 2742 2702 
Q 2975 2913 2975 3322 
Q 2975 3731 2742 3939 
Q 2509 4147 2053 4147 
L 1259 4147 
z
" id="DejaVuSans-52" transform="scale(0.015625)"/>
       <path d="M 628 4666 
L 1259 4666 
L 1259 2753 
L 3553 2753 
L 3553 4666 
L 4184 4666 
L 4184 0 
L 3553 0 
L 3553 2222 
L 1259 2222 
L 1259 0 
L 628 0 
L 628 4666 
z
" id="DejaVuSans-48" transform="scale(0.015625)"/>
       <path d="M 2906 2969 
L 2906 4863 
L 3481 4863 
L 3481 0 
L 2906 0 
L 2906 525 
Q 2725 213 2448 61 
Q 2172 -91 1784 -91 
Q 1150 -91 751 415 
Q 353 922 353 1747 
Q 353 2572 751 3078 
Q 1150 3584 1784 3584 
Q 2172 3584 2448 3432 
Q 2725 3281 2906 2969 
z
M 947 1747 
Q 947 1113 1208 752 
Q 1469 391 1925 391 
Q 2381 391 2643 752 
Q 2906 1113 2906 1747 
Q 2906 2381 2643 2742 
Q 2381 3103 1925 3103 
Q 1469 3103 1208 2742 
Q 947 2381 947 1747 
z
" id="DejaVuSans-64" transform="scale(0.015625)"/>
      </defs>
      <use xlink:href="#DejaVuSans-52"/>
      <use x="69.482422" xlink:href="#DejaVuSans-69"/>
      <use x="97.265625" xlink:href="#DejaVuSans-65"/>
      <use x="158.789062" xlink:href="#DejaVuSans-6d"/>
      <use x="256.201172" xlink:href="#DejaVuSans-61"/>
      <use x="317.480469" xlink:href="#DejaVuSans-6e"/>
      <use x="380.859375" xlink:href="#DejaVuSans-6e"/>
      <use x="444.238281" xlink:href="#DejaVuSans-69"/>
      <use x="472.021484" xlink:href="#DejaVuSans-61"/>
      <use x="533.300781" xlink:href="#DejaVuSans-6e"/>
      <use x="596.679688" xlink:href="#DejaVuSans-20"/>
      <use x="628.466797" xlink:href="#DejaVuSans-48"/>
      <use x="703.662109" xlink:href="#DejaVuSans-65"/>
      <use x="765.185547" xlink:href="#DejaVuSans-72"/>
      <use x="804.548828" xlink:href="#DejaVuSans-64"/>
      <use x="868.025391" xlink:href="#DejaVuSans-69"/>
      <use x="895.808594" xlink:href="#DejaVuSans-6e"/>
      <use x="959.1875" xlink:href="#DejaVuSans-67"/>
     </g>
    </g>
    <g id="line2d_19">
     <path d="M 191.8925 85.9145 
L 223.8925 85.9145 
" style="fill:none;stroke:#5a7d9a;stroke-linecap:square;stroke-width:10;"/>
    </g>
    <g id="line2d_20"/>
    <g id="text_15">
     <!-- Euclidean Herding -->
     <g transform="translate(236.6925 91.5145)scale(0.16 -0.16)">
      <defs>
       <path d="M 3122 3366 
L 3122 2828 
Q 2878 2963 2633 3030 
Q 2388 3097 2138 3097 
Q 1578 3097 1268 2742 
Q 959 2388 959 1747 
Q 959 1106 1268 751 
Q 1578 397 2138 397 
Q 2388 397 2633 464 
Q 2878 531 3122 666 
L 3122 134 
Q 2881 22 2623 -34 
Q 2366 -91 2075 -91 
Q 1284 -91 818 406 
Q 353 903 353 1747 
Q 353 2603 823 3093 
Q 1294 3584 2113 3584 
Q 2378 3584 2631 3529 
Q 2884 3475 3122 3366 
z
" id="DejaVuSans-63" transform="scale(0.015625)"/>
      </defs>
      <use xlink:href="#DejaVuSans-45"/>
      <use x="63.183594" xlink:href="#DejaVuSans-75"/>
      <use x="126.5625" xlink:href="#DejaVuSans-63"/>
      <use x="181.542969" xlink:href="#DejaVuSans-6c"/>
      <use x="209.326172" xlink:href="#DejaVuSans-69"/>
      <use x="237.109375" xlink:href="#DejaVuSans-64"/>
      <use x="300.585938" xlink:href="#DejaVuSans-65"/>
      <use x="362.109375" xlink:href="#DejaVuSans-61"/>
      <use x="423.388672" xlink:href="#DejaVuSans-6e"/>
      <use x="486.767578" xlink:href="#DejaVuSans-20"/>
      <use x="518.554688" xlink:href="#DejaVuSans-48"/>
      <use x="593.75" xlink:href="#DejaVuSans-65"/>
      <use x="655.273438" xlink:href="#DejaVuSans-72"/>
      <use x="694.636719" xlink:href="#DejaVuSans-64"/>
      <use x="758.113281" xlink:href="#DejaVuSans-69"/>
      <use x="785.896484" xlink:href="#DejaVuSans-6e"/>
      <use x="849.275391" xlink:href="#DejaVuSans-67"/>
     </g>
    </g>
    <g id="line2d_21">
     <path d="M 191.8925 109.3995 
L 223.8925 109.3995 
" style="fill:none;stroke:#40a368;stroke-linecap:square;stroke-width:10;"/>
    </g>
    <g id="line2d_22"/>
    <g id="text_16">
     <!-- OT -->
     <g transform="translate(236.6925 114.9995)scale(0.16 -0.16)">
      <defs>
       <path d="M 2522 4238 
Q 1834 4238 1429 3725 
Q 1025 3213 1025 2328 
Q 1025 1447 1429 934 
Q 1834 422 2522 422 
Q 3209 422 3611 934 
Q 4013 1447 4013 2328 
Q 4013 3213 3611 3725 
Q 3209 4238 2522 4238 
z
M 2522 4750 
Q 3503 4750 4090 4092 
Q 4678 3434 4678 2328 
Q 4678 1225 4090 567 
Q 3503 -91 2522 -91 
Q 1538 -91 948 565 
Q 359 1222 359 2328 
Q 359 3434 948 4092 
Q 1538 4750 2522 4750 
z
" id="DejaVuSans-4f" transform="scale(0.015625)"/>
       <path d="M -19 4666 
L 3928 4666 
L 3928 4134 
L 2272 4134 
L 2272 0 
L 1638 0 
L 1638 4134 
L -19 4134 
L -19 4666 
z
" id="DejaVuSans-54" transform="scale(0.015625)"/>
      </defs>
      <use xlink:href="#DejaVuSans-4f"/>
      <use x="78.710938" xlink:href="#DejaVuSans-54"/>
     </g>
    </g>
   </g>
  </g>
 </g>
 <defs>
  <clipPath id="p29767f9b56">
   <rect height="266.112" width="357.12" x="57.6" y="41.472"/>
  </clipPath>
 </defs>
</svg>
