<?xml version="1.0" encoding="utf-8" standalone="no"?>
<!DOCTYPE svg PUBLIC "-//W3C//DTD SVG 1.1//EN"
  "http://www.w3.org/Graphics/SVG/1.1/DTD/svg11.dtd">
<svg height="345.6pt" version="1.1" viewBox="0 0 460.8 345.6" width="460.8pt" xmlns="http://www.w3.org/2000/svg" xmlns:xlink="http://www.w3.org/1999/xlink">
 <metadata>
  <rdf:RDF xmlns:cc="http://creativecommons.org/ns#" xmlns:dc="http://purl.org/dc/elements/1.1/" xmlns:rdf="http://www.w3.org/1999/02/22-rdf-syntax-ns#">
   <cc:Work>
    <dc:type rdf:resource="http://purl.org/dc/dcmitype/StillImage"/>
    <dc:date>2021-06-18T22:31:28.418794</dc:date>
    <dc:format>image/svg+xml</dc:format>
    <dc:creator>
     <cc:Agent>
      <dc:title>Matplotlib v3.4.1, https://matplotlib.org/</dc:title>
     </cc:Agent>
    </dc:creator>
   </cc:Work>
  </rdf:RDF>
 </metadata>
 <defs>
  <style type="text/css">*{stroke-linecap:butt;stroke-linejoin:round;}</style>
 </defs>
 <g id="figure_1">
  <g id="patch_1">
   <path d="M 0 345.6 
L 460.8 345.6 
L 460.8 0 
L 0 0 
z
" style="fill:#ffffff;"/>
  </g>
  <g id="axes_1">
   <g id="patch_2">
    <path d="M 57.6 307.584 
L 414.72 307.584 
L 414.72 41.472 
L 57.6 41.472 
z
" style="fill:#ffffff;"/>
   </g>
   <g id="PolyCollection_1">
    <path clip-path="url(#pd34a14af8c)" d="M 73.832727 -133.681997 
L 73.832727 -116.13222 
L 76.026339 -34.184621 
L 78.219951 27.127383 
L 80.413563 54.076131 
L 82.607174 78.596924 
L 84.800786 89.456299 
L 86.994398 98.774075 
L 89.18801 110.597257 
L 91.381622 123.431719 
L 93.575233 131.698067 
L 95.768845 137.767249 
L 97.962457 145.574148 
L 100.156069 149.73543 
L 102.349681 154.232314 
L 104.543292 160.905895 
L 106.736904 164.353523 
L 108.930516 169.364684 
L 111.124128 174.219339 
L 113.31774 179.9012 
L 115.511351 185.641363 
L 117.704963 188.642499 
L 119.898575 190.475675 
L 122.092187 194.687774 
L 124.285799 195.728785 
L 126.47941 198.331327 
L 128.673022 200.482848 
L 130.866634 204.46106 
L 133.060246 206.494806 
L 135.253857 208.755007 
L 137.447469 211.287387 
L 139.641081 212.272193 
L 141.834693 214.520262 
L 144.028305 215.820175 
L 146.221916 217.933251 
L 148.415528 220.683712 
L 150.60914 221.62499 
L 152.802752 223.67643 
L 154.996364 225.608139 
L 157.189975 227.723833 
L 159.383587 228.944068 
L 161.577199 231.10375 
L 163.770811 232.030091 
L 165.964423 232.636912 
L 168.158034 233.568951 
L 170.351646 234.545098 
L 172.545258 237.425314 
L 174.73887 239.271321 
L 176.932482 240.208746 
L 179.126093 241.347697 
L 181.319705 241.945361 
L 183.513317 242.672169 
L 185.706929 242.925028 
L 187.900541 244.747961 
L 190.094152 245.464325 
L 192.287764 246.6897 
L 194.481376 247.807458 
L 196.674988 248.541107 
L 198.8686 248.796793 
L 201.062211 249.34346 
L 203.255823 250.694267 
L 205.449435 250.755757 
L 207.643047 251.845874 
L 209.836658 252.810954 
L 212.03027 253.396685 
L 214.223882 254.209275 
L 216.417494 254.762613 
L 218.611106 255.541194 
L 220.804717 256.824917 
L 222.998329 258.071401 
L 225.191941 259.106868 
L 227.385553 260.227968 
L 229.579165 261.151539 
L 231.772776 262.701241 
L 233.966388 263.121563 
L 236.16 264.017766 
L 238.353612 265.07923 
L 240.547224 265.663837 
L 242.740835 266.184211 
L 244.934447 266.522738 
L 247.128059 266.742079 
L 249.321671 266.934931 
L 251.515283 267.528432 
L 253.708894 267.7751 
L 255.902506 267.627999 
L 258.096118 268.074451 
L 260.28973 268.890714 
L 262.483342 269.49799 
L 264.676953 269.560841 
L 266.870565 270.405222 
L 269.064177 270.462814 
L 271.257789 271.073936 
L 273.4514 271.375288 
L 275.645012 272.02771 
L 277.838624 272.75919 
L 280.032236 272.961445 
L 282.225848 273.06115 
L 284.419459 273.427298 
L 286.613071 273.39289 
L 288.806683 273.971335 
L 291.000295 274.691393 
L 293.193907 275.224154 
L 295.387518 275.437937 
L 297.58113 276.114026 
L 299.774742 276.435113 
L 301.968354 276.627833 
L 304.161966 276.897267 
L 306.355577 276.920243 
L 308.549189 276.987929 
L 310.742801 277.22484 
L 312.936413 277.499432 
L 315.130025 277.79428 
L 317.323636 277.943549 
L 319.517248 278.226957 
L 321.71086 278.598037 
L 323.904472 278.612121 
L 326.098084 278.707728 
L 328.291695 278.654347 
L 330.485307 278.887316 
L 332.678919 279.156678 
L 334.872531 278.97893 
L 337.066143 279.335651 
L 339.259754 279.179605 
L 341.453366 279.110775 
L 343.646978 279.48425 
L 345.84059 279.981656 
L 348.034201 280.419627 
L 350.227813 280.592489 
L 352.421425 280.259991 
L 354.615037 280.59206 
L 356.808649 280.552872 
L 359.00226 280.792399 
L 361.195872 280.917823 
L 363.389484 281.319367 
L 365.583096 281.155042 
L 367.776708 281.511451 
L 369.970319 281.580754 
L 372.163931 281.746103 
L 374.357543 282.243597 
L 376.551155 282.558402 
L 378.744767 282.659784 
L 380.938378 282.915983 
L 383.13199 283.261129 
L 385.325602 283.189294 
L 387.519214 283.483989 
L 389.712826 283.721904 
L 391.906437 283.804928 
L 394.100049 283.842994 
L 396.293661 283.751027 
L 398.487273 283.857777 
L 398.487273 282.438904 
L 398.487273 282.438904 
L 396.293661 282.326665 
L 394.100049 281.834168 
L 391.906437 281.759651 
L 389.712826 281.966384 
L 387.519214 282.107049 
L 385.325602 281.890943 
L 383.13199 281.196253 
L 380.938378 281.082208 
L 378.744767 281.082839 
L 376.551155 280.985089 
L 374.357543 280.942308 
L 372.163931 280.949693 
L 369.970319 281.150258 
L 367.776708 281.001779 
L 365.583096 280.551054 
L 363.389484 280.593026 
L 361.195872 280.343983 
L 359.00226 280.338471 
L 356.808649 280.062911 
L 354.615037 279.962643 
L 352.421425 279.541466 
L 350.227813 279.561172 
L 348.034201 279.199779 
L 345.84059 279.054095 
L 343.646978 278.792111 
L 341.453366 278.526155 
L 339.259754 278.175608 
L 337.066143 277.954161 
L 334.872531 277.575083 
L 332.678919 277.684373 
L 330.485307 277.378462 
L 328.291695 277.49136 
L 326.098084 277.340318 
L 323.904472 277.32288 
L 321.71086 276.862305 
L 319.517248 276.128382 
L 317.323636 276.222233 
L 315.130025 276.2155 
L 312.936413 275.746588 
L 310.742801 275.387419 
L 308.549189 275.192018 
L 306.355577 274.982565 
L 304.161966 274.292442 
L 301.968354 274.346559 
L 299.774742 273.515586 
L 297.58113 272.747093 
L 295.387518 272.202841 
L 293.193907 271.929993 
L 291.000295 271.554213 
L 288.806683 271.6512 
L 286.613071 271.470464 
L 284.419459 271.563177 
L 282.225848 271.412046 
L 280.032236 271.240843 
L 277.838624 270.940013 
L 275.645012 270.704879 
L 273.4514 270.342305 
L 271.257789 270.039327 
L 269.064177 269.81679 
L 266.870565 269.894426 
L 264.676953 268.547458 
L 262.483342 267.531857 
L 260.28973 266.871391 
L 258.096118 266.492384 
L 255.902506 265.512003 
L 253.708894 264.688403 
L 251.515283 263.97513 
L 249.321671 262.765659 
L 247.128059 262.011392 
L 244.934447 261.710726 
L 242.740835 260.279863 
L 240.547224 259.843517 
L 238.353612 259.530248 
L 236.16 257.426178 
L 233.966388 257.46312 
L 231.772776 256.721796 
L 229.579165 256.171246 
L 227.385553 256.428141 
L 225.191941 256.412969 
L 222.998329 254.766627 
L 220.804717 254.628356 
L 218.611106 254.195284 
L 216.417494 252.674724 
L 214.223882 251.684685 
L 212.03027 250.740215 
L 209.836658 250.821192 
L 207.643047 250.076045 
L 205.449435 248.682604 
L 203.255823 249.024148 
L 201.062211 248.689174 
L 198.8686 248.24336 
L 196.674988 246.797709 
L 194.481376 246.976518 
L 192.287764 245.421931 
L 190.094152 244.197782 
L 187.900541 243.608445 
L 185.706929 242.297571 
L 183.513317 241.250512 
L 181.319705 240.000458 
L 179.126093 238.890772 
L 176.932482 238.201556 
L 174.73887 237.604284 
L 172.545258 235.627349 
L 170.351646 233.266129 
L 168.158034 232.285708 
L 165.964423 230.316559 
L 163.770811 230.185861 
L 161.577199 229.325888 
L 159.383587 228.195718 
L 157.189975 226.656069 
L 154.996364 223.745464 
L 152.802752 222.181222 
L 150.60914 221.206071 
L 148.415528 218.110028 
L 146.221916 215.656371 
L 144.028305 213.48878 
L 141.834693 211.053121 
L 139.641081 207.717431 
L 137.447469 207.084299 
L 135.253857 204.993613 
L 133.060246 203.408234 
L 130.866634 201.378923 
L 128.673022 195.261234 
L 126.47941 190.703469 
L 124.285799 187.978559 
L 122.092187 187.167665 
L 119.898575 184.64304 
L 117.704963 181.614679 
L 115.511351 178.454204 
L 113.31774 173.559125 
L 111.124128 169.534465 
L 108.930516 165.678743 
L 106.736904 156.252849 
L 104.543292 155.07906 
L 102.349681 148.436823 
L 100.156069 143.318139 
L 97.962457 137.174929 
L 95.768845 129.740668 
L 93.575233 125.970018 
L 91.381622 116.968663 
L 89.18801 107.085994 
L 86.994398 92.550514 
L 84.800786 83.560182 
L 82.607174 73.020884 
L 80.413563 45.193862 
L 78.219951 16.300749 
L 76.026339 -56.662076 
L 73.832727 -133.681997 
z
" style="fill:#f97306;fill-opacity:0.3;stroke:#f97306;stroke-opacity:0.3;"/>
   </g>
   <g id="PolyCollection_2">
    <path clip-path="url(#pd34a14af8c)" d="M 73.832727 -254.921875 
L 73.832727 -152.854872 
L 76.026339 -42.691462 
L 78.219951 14.193716 
L 80.413563 46.149924 
L 82.607174 67.821766 
L 84.800786 84.54241 
L 86.994398 97.345342 
L 89.18801 109.80425 
L 91.381622 119.269362 
L 93.575233 129.130642 
L 95.768845 135.882855 
L 97.962457 141.606981 
L 100.156069 147.323419 
L 102.349681 152.016445 
L 104.543292 157.032142 
L 106.736904 161.135481 
L 108.930516 165.679706 
L 111.124128 169.331042 
L 113.31774 173.18547 
L 115.511351 176.334412 
L 117.704963 178.755368 
L 119.898575 182.887578 
L 122.092187 185.127221 
L 124.285799 187.671715 
L 126.47941 190.268223 
L 128.673022 192.348269 
L 130.866634 194.542917 
L 133.060246 196.608589 
L 135.253857 198.67814 
L 137.447469 200.565113 
L 139.641081 202.086785 
L 141.834693 203.459236 
L 144.028305 205.304983 
L 146.221916 206.70684 
L 148.415528 208.800907 
L 150.60914 210.934667 
L 152.802752 213.004987 
L 154.996364 214.561624 
L 157.189975 216.293795 
L 159.383587 217.903542 
L 161.577199 219.25902 
L 163.770811 220.763884 
L 165.964423 221.825067 
L 168.158034 223.540469 
L 170.351646 224.586826 
L 172.545258 226.099139 
L 174.73887 227.501275 
L 176.932482 228.906991 
L 179.126093 230.326023 
L 181.319705 231.687383 
L 183.513317 232.580365 
L 185.706929 233.364424 
L 187.900541 234.951194 
L 190.094152 235.66353 
L 192.287764 236.300797 
L 194.481376 237.506989 
L 196.674988 238.696388 
L 198.8686 239.45393 
L 201.062211 240.393026 
L 203.255823 241.435805 
L 205.449435 242.496601 
L 207.643047 243.328049 
L 209.836658 244.501001 
L 212.03027 245.249707 
L 214.223882 246.37923 
L 216.417494 247.026483 
L 218.611106 247.634488 
L 220.804717 248.475001 
L 222.998329 249.237934 
L 225.191941 250.140485 
L 227.385553 250.891945 
L 229.579165 251.301569 
L 231.772776 251.666784 
L 233.966388 252.362941 
L 236.16 252.995102 
L 238.353612 253.92252 
L 240.547224 254.281712 
L 242.740835 254.536964 
L 244.934447 254.998611 
L 247.128059 255.438722 
L 249.321671 255.820149 
L 251.515283 256.364282 
L 253.708894 256.5754 
L 255.902506 257.22482 
L 258.096118 257.492995 
L 260.28973 258.024331 
L 262.483342 258.396 
L 264.676953 259.057177 
L 266.870565 259.727147 
L 269.064177 260.050303 
L 271.257789 260.518046 
L 273.4514 260.97663 
L 275.645012 261.220691 
L 277.838624 261.79997 
L 280.032236 262.300276 
L 282.225848 262.855385 
L 284.419459 262.96013 
L 286.613071 263.337776 
L 288.806683 263.692208 
L 291.000295 263.832194 
L 293.193907 264.377208 
L 295.387518 264.854358 
L 297.58113 265.462234 
L 299.774742 265.711867 
L 301.968354 265.868428 
L 304.161966 266.158867 
L 306.355577 266.431569 
L 308.549189 266.729768 
L 310.742801 266.876937 
L 312.936413 267.503923 
L 315.130025 267.741447 
L 317.323636 267.809052 
L 319.517248 268.029904 
L 321.71086 268.353778 
L 323.904472 268.815072 
L 326.098084 268.91116 
L 328.291695 269.317767 
L 330.485307 269.694991 
L 332.678919 269.99836 
L 334.872531 270.348258 
L 337.066143 270.661648 
L 339.259754 271.052876 
L 341.453366 271.346498 
L 343.646978 271.471403 
L 345.84059 271.735437 
L 348.034201 272.064778 
L 350.227813 272.343885 
L 352.421425 272.541962 
L 354.615037 272.99752 
L 356.808649 273.392141 
L 359.00226 273.517395 
L 361.195872 273.814276 
L 363.389484 274.006734 
L 365.583096 274.294523 
L 367.776708 274.61409 
L 369.970319 274.77717 
L 372.163931 274.975803 
L 374.357543 274.908722 
L 376.551155 275.228153 
L 378.744767 275.449029 
L 380.938378 275.823545 
L 383.13199 275.911827 
L 385.325602 276.102944 
L 387.519214 276.149335 
L 389.712826 276.365774 
L 391.906437 276.65619 
L 394.100049 276.879817 
L 396.293661 276.951033 
L 398.487273 277.169308 
L 398.487273 273.530506 
L 398.487273 273.530506 
L 396.293661 273.337055 
L 394.100049 273.192028 
L 391.906437 272.914847 
L 389.712826 272.63497 
L 387.519214 272.420203 
L 385.325602 272.351134 
L 383.13199 272.0386 
L 380.938378 271.884249 
L 378.744767 271.796314 
L 376.551155 271.579535 
L 374.357543 271.206642 
L 372.163931 271.259665 
L 369.970319 271.065871 
L 367.776708 270.863382 
L 365.583096 270.576394 
L 363.389484 270.394601 
L 361.195872 270.081747 
L 359.00226 269.962846 
L 356.808649 269.804554 
L 354.615037 269.635583 
L 352.421425 269.408045 
L 350.227813 269.324266 
L 348.034201 269.344005 
L 345.84059 268.899767 
L 343.646978 268.5993 
L 341.453366 268.465514 
L 339.259754 268.089612 
L 337.066143 267.791148 
L 334.872531 267.561415 
L 332.678919 267.463417 
L 330.485307 267.343893 
L 328.291695 267.20432 
L 326.098084 266.787682 
L 323.904472 266.577021 
L 321.71086 266.602929 
L 319.517248 266.421478 
L 317.323636 266.121204 
L 315.130025 265.91101 
L 312.936413 265.589857 
L 310.742801 265.297979 
L 308.549189 264.6881 
L 306.355577 264.57464 
L 304.161966 264.093495 
L 301.968354 263.675699 
L 299.774742 263.116429 
L 297.58113 262.676592 
L 295.387518 262.240103 
L 293.193907 262.538389 
L 291.000295 262.001278 
L 288.806683 261.728235 
L 286.613071 261.228782 
L 284.419459 261.085075 
L 282.225848 260.781418 
L 280.032236 260.484239 
L 277.838624 260.303568 
L 275.645012 260.169549 
L 273.4514 259.684647 
L 271.257789 259.145441 
L 269.064177 258.726868 
L 266.870565 258.077569 
L 264.676953 257.379211 
L 262.483342 256.991294 
L 260.28973 256.217801 
L 258.096118 255.714078 
L 255.902506 255.057003 
L 253.708894 254.587785 
L 251.515283 253.992011 
L 249.321671 253.309735 
L 247.128059 252.883302 
L 244.934447 251.980214 
L 242.740835 251.407404 
L 240.547224 250.817239 
L 238.353612 250.375343 
L 236.16 249.897227 
L 233.966388 249.277847 
L 231.772776 248.891883 
L 229.579165 248.079274 
L 227.385553 247.157211 
L 225.191941 246.414288 
L 222.998329 245.601016 
L 220.804717 244.696826 
L 218.611106 243.917891 
L 216.417494 243.142178 
L 214.223882 242.231632 
L 212.03027 241.411023 
L 209.836658 240.431558 
L 207.643047 239.391266 
L 205.449435 238.601509 
L 203.255823 237.639308 
L 201.062211 236.642641 
L 198.8686 235.919768 
L 196.674988 235.075014 
L 194.481376 234.067548 
L 192.287764 232.690676 
L 190.094152 231.521144 
L 187.900541 230.577779 
L 185.706929 229.601427 
L 183.513317 228.619885 
L 181.319705 227.150842 
L 179.126093 226.074411 
L 176.932482 224.759797 
L 174.73887 223.100738 
L 172.545258 221.229241 
L 170.351646 219.990749 
L 168.158034 218.831415 
L 165.964423 217.874455 
L 163.770811 216.475393 
L 161.577199 214.792648 
L 159.383587 213.152361 
L 157.189975 211.087802 
L 154.996364 209.900915 
L 152.802752 207.953088 
L 150.60914 206.137445 
L 148.415528 204.388487 
L 146.221916 202.417327 
L 144.028305 199.97611 
L 141.834693 198.613277 
L 139.641081 197.019312 
L 137.447469 194.588759 
L 135.253857 192.229095 
L 133.060246 189.583615 
L 130.866634 186.863352 
L 128.673022 184.217483 
L 126.47941 181.174973 
L 124.285799 178.638466 
L 122.092187 175.013636 
L 119.898575 171.396413 
L 117.704963 168.131534 
L 115.511351 164.81218 
L 113.31774 161.138891 
L 111.124128 155.88479 
L 108.930516 153.200053 
L 106.736904 147.445019 
L 104.543292 142.061686 
L 102.349681 136.365373 
L 100.156069 130.684007 
L 97.962457 124.487153 
L 95.768845 117.189142 
L 93.575233 108.834943 
L 91.381622 99.287297 
L 89.18801 88.037221 
L 86.994398 73.925389 
L 84.800786 59.352699 
L 82.607174 37.007261 
L 80.413563 8.298805 
L 78.219951 -35.785115 
L 76.026339 -103.205181 
L 73.832727 -254.921875 
z
" style="fill:#5a7d9a;fill-opacity:0.3;stroke:#5a7d9a;stroke-opacity:0.3;"/>
   </g>
   <g id="PolyCollection_3">
    <path clip-path="url(#pd34a14af8c)" d="M 73.832727 -156.700568 
L 73.832727 -135.882845 
L 76.026339 -54.669085 
L 78.219951 -15.854698 
L 80.413563 13.751849 
L 82.607174 35.015633 
L 84.800786 49.631146 
L 86.994398 66.860762 
L 89.18801 78.397445 
L 91.381622 85.346862 
L 93.575233 92.625822 
L 95.768845 100.551225 
L 97.962457 104.405486 
L 100.156069 111.677133 
L 102.349681 118.566208 
L 104.543292 124.580556 
L 106.736904 128.264056 
L 108.930516 130.624 
L 111.124128 134.89928 
L 113.31774 139.950017 
L 115.511351 143.95524 
L 117.704963 147.196175 
L 119.898575 148.267097 
L 122.092187 153.266945 
L 124.285799 157.883239 
L 126.47941 159.924305 
L 128.673022 161.090236 
L 130.866634 162.019076 
L 133.060246 163.657182 
L 135.253857 164.853471 
L 137.447469 167.5135 
L 139.641081 168.007372 
L 141.834693 169.378063 
L 144.028305 170.059188 
L 146.221916 172.010471 
L 148.415528 172.220662 
L 150.60914 173.586855 
L 152.802752 174.432775 
L 154.996364 177.090252 
L 157.189975 178.236366 
L 159.383587 179.453401 
L 161.577199 181.796316 
L 163.770811 182.900431 
L 165.964423 184.764129 
L 168.158034 186.05821 
L 170.351646 187.332701 
L 172.545258 188.293025 
L 174.73887 190.186195 
L 176.932482 192.008218 
L 179.126093 193.851785 
L 181.319705 193.999667 
L 183.513317 194.556411 
L 185.706929 194.733908 
L 187.900541 195.814112 
L 190.094152 196.849986 
L 192.287764 197.219095 
L 194.481376 198.609461 
L 196.674988 199.470163 
L 198.8686 199.384901 
L 201.062211 199.458968 
L 203.255823 199.600018 
L 205.449435 199.849949 
L 207.643047 200.52551 
L 209.836658 200.966214 
L 212.03027 201.625775 
L 214.223882 202.183023 
L 216.417494 203.114381 
L 218.611106 203.605037 
L 220.804717 203.936574 
L 222.998329 204.559685 
L 225.191941 204.837355 
L 227.385553 205.009229 
L 229.579165 205.594145 
L 231.772776 206.412919 
L 233.966388 206.704924 
L 236.16 207.756704 
L 238.353612 208.868439 
L 240.547224 209.871993 
L 242.740835 210.159332 
L 244.934447 210.281679 
L 247.128059 210.670535 
L 249.321671 211.339165 
L 251.515283 211.815419 
L 253.708894 212.728014 
L 255.902506 213.319672 
L 258.096118 213.638466 
L 260.28973 214.465347 
L 262.483342 215.33724 
L 264.676953 215.518037 
L 266.870565 216.28779 
L 269.064177 216.67723 
L 271.257789 217.181396 
L 273.4514 217.943016 
L 275.645012 218.550132 
L 277.838624 218.780622 
L 280.032236 219.007982 
L 282.225848 219.792217 
L 284.419459 220.443131 
L 286.613071 221.239053 
L 288.806683 221.147086 
L 291.000295 221.53629 
L 293.193907 222.03302 
L 295.387518 222.1519 
L 297.58113 222.019326 
L 299.774742 222.551467 
L 301.968354 222.471806 
L 304.161966 222.177776 
L 306.355577 222.883204 
L 308.549189 222.499212 
L 310.742801 222.921061 
L 312.936413 223.499705 
L 315.130025 224.2828 
L 317.323636 224.857308 
L 319.517248 225.212972 
L 321.71086 225.234201 
L 323.904472 225.768015 
L 326.098084 226.406549 
L 328.291695 226.741651 
L 330.485307 226.878982 
L 332.678919 227.418703 
L 334.872531 227.771695 
L 337.066143 228.375292 
L 339.259754 228.439081 
L 341.453366 228.563032 
L 343.646978 228.476915 
L 345.84059 228.390717 
L 348.034201 229.044498 
L 350.227813 228.794314 
L 352.421425 229.209985 
L 354.615037 229.889184 
L 356.808649 230.138407 
L 359.00226 230.188667 
L 361.195872 230.539993 
L 363.389484 230.658362 
L 365.583096 230.840357 
L 367.776708 231.573079 
L 369.970319 231.9268 
L 372.163931 232.023565 
L 374.357543 232.314037 
L 376.551155 232.129122 
L 378.744767 232.244795 
L 380.938378 232.461966 
L 383.13199 232.573147 
L 385.325602 233.009153 
L 387.519214 233.266911 
L 389.712826 233.462819 
L 391.906437 234.1756 
L 394.100049 234.3369 
L 396.293661 234.440201 
L 398.487273 234.667661 
L 398.487273 229.802675 
L 398.487273 229.802675 
L 396.293661 229.557877 
L 394.100049 229.512702 
L 391.906437 228.997825 
L 389.712826 228.608711 
L 387.519214 228.210158 
L 385.325602 228.191583 
L 383.13199 227.799978 
L 380.938378 227.364387 
L 378.744767 227.484453 
L 376.551155 226.867065 
L 374.357543 226.453479 
L 372.163931 226.326904 
L 369.970319 226.206837 
L 367.776708 225.688115 
L 365.583096 225.470345 
L 363.389484 225.439557 
L 361.195872 224.996713 
L 359.00226 224.74082 
L 356.808649 224.654095 
L 354.615037 224.14578 
L 352.421425 224.185946 
L 350.227813 223.794555 
L 348.034201 223.562395 
L 345.84059 222.924746 
L 343.646978 222.675964 
L 341.453366 222.377293 
L 339.259754 221.677869 
L 337.066143 221.493573 
L 334.872531 221.07959 
L 332.678919 220.727959 
L 330.485307 220.528752 
L 328.291695 220.132661 
L 326.098084 220.507387 
L 323.904472 220.105178 
L 321.71086 219.528797 
L 319.517248 218.823563 
L 317.323636 218.089729 
L 315.130025 217.589404 
L 312.936413 216.849127 
L 310.742801 216.582387 
L 308.549189 215.95043 
L 306.355577 215.388076 
L 304.161966 214.567272 
L 301.968354 214.376441 
L 299.774742 214.029996 
L 297.58113 214.56342 
L 295.387518 213.903315 
L 293.193907 213.63174 
L 291.000295 212.808297 
L 288.806683 212.442609 
L 286.613071 212.166145 
L 284.419459 212.267902 
L 282.225848 211.342146 
L 280.032236 210.251716 
L 277.838624 210.240355 
L 275.645012 209.847615 
L 273.4514 210.396557 
L 271.257789 209.294174 
L 269.064177 209.149633 
L 266.870565 209.434766 
L 264.676953 209.204305 
L 262.483342 209.73281 
L 260.28973 208.596956 
L 258.096118 208.027609 
L 255.902506 207.83882 
L 253.708894 207.252536 
L 251.515283 207.126539 
L 249.321671 206.982044 
L 247.128059 206.510072 
L 244.934447 205.178666 
L 242.740835 205.288529 
L 240.547224 204.414027 
L 238.353612 202.972881 
L 236.16 202.414221 
L 233.966388 202.399765 
L 231.772776 202.055475 
L 229.579165 201.089248 
L 227.385553 201.513774 
L 225.191941 200.414333 
L 222.998329 199.933788 
L 220.804717 199.672539 
L 218.611106 198.789004 
L 216.417494 197.577172 
L 214.223882 197.015964 
L 212.03027 196.042246 
L 209.836658 194.974256 
L 207.643047 194.191167 
L 205.449435 193.099574 
L 203.255823 193.483116 
L 201.062211 192.482132 
L 198.8686 191.760847 
L 196.674988 190.656575 
L 194.481376 189.132397 
L 192.287764 187.418319 
L 190.094152 185.875475 
L 187.900541 185.493402 
L 185.706929 182.988694 
L 183.513317 181.989138 
L 181.319705 180.195255 
L 179.126093 178.469695 
L 176.932482 177.044617 
L 174.73887 175.768517 
L 172.545258 174.905058 
L 170.351646 173.134683 
L 168.158034 171.504856 
L 165.964423 171.56407 
L 163.770811 171.262084 
L 161.577199 170.837213 
L 159.383587 168.885361 
L 157.189975 168.526316 
L 154.996364 166.503014 
L 152.802752 164.834348 
L 150.60914 161.043731 
L 148.415528 160.133111 
L 146.221916 160.267872 
L 144.028305 157.825753 
L 141.834693 156.904055 
L 139.641081 155.950412 
L 137.447469 154.211908 
L 135.253857 152.243375 
L 133.060246 149.162124 
L 130.866634 148.582957 
L 128.673022 147.51043 
L 126.47941 142.404279 
L 124.285799 139.682665 
L 122.092187 137.904256 
L 119.898575 134.440485 
L 117.704963 132.777422 
L 115.511351 129.626212 
L 113.31774 127.285786 
L 111.124128 126.22067 
L 108.930516 118.838883 
L 106.736904 117.662219 
L 104.543292 115.263521 
L 102.349681 111.206333 
L 100.156069 105.27135 
L 97.962457 97.762403 
L 95.768845 94.673488 
L 93.575233 85.104598 
L 91.381622 75.870729 
L 89.18801 71.068151 
L 86.994398 60.493344 
L 84.800786 34.969314 
L 82.607174 19.785395 
L 80.413563 1.5806 
L 78.219951 -26.742889 
L 76.026339 -83.347692 
L 73.832727 -156.700568 
z
" style="fill:#40a368;fill-opacity:0.3;stroke:#40a368;stroke-opacity:0.3;"/>
   </g>
   <g id="PolyCollection_4">
    <path clip-path="url(#pd34a14af8c)" d="M 73.832727 -168.283729 
L 73.832727 -141.046232 
L 76.026339 -45.407402 
L 78.219951 -8.270343 
L 80.413563 23.433801 
L 82.607174 45.443699 
L 84.800786 63.681909 
L 86.994398 74.252204 
L 89.18801 85.206971 
L 91.381622 92.326607 
L 93.575233 100.556287 
L 95.768845 106.319426 
L 97.962457 114.946831 
L 100.156069 118.491816 
L 102.349681 122.160881 
L 104.543292 124.720029 
L 106.736904 129.567063 
L 108.930516 132.018203 
L 111.124128 134.253475 
L 113.31774 138.288665 
L 115.511351 144.10914 
L 117.704963 145.272297 
L 119.898575 148.891342 
L 122.092187 153.656359 
L 124.285799 156.506851 
L 126.47941 155.945999 
L 128.673022 158.187467 
L 130.866634 158.824531 
L 133.060246 159.984919 
L 135.253857 164.074856 
L 137.447469 165.436934 
L 139.641081 166.826251 
L 141.834693 167.582572 
L 144.028305 169.705787 
L 146.221916 170.963787 
L 148.415528 173.23752 
L 150.60914 175.214138 
L 152.802752 176.819784 
L 154.996364 180.210894 
L 157.189975 182.5153 
L 159.383587 184.130869 
L 161.577199 185.814201 
L 163.770811 185.871425 
L 165.964423 187.222381 
L 168.158034 187.905769 
L 170.351646 188.972441 
L 172.545258 190.013149 
L 174.73887 190.891488 
L 176.932482 191.610632 
L 179.126093 192.407541 
L 181.319705 194.028469 
L 183.513317 195.294808 
L 185.706929 195.424214 
L 187.900541 195.741307 
L 190.094152 196.40271 
L 192.287764 196.347878 
L 194.481376 198.332195 
L 196.674988 199.158875 
L 198.8686 199.655353 
L 201.062211 200.353804 
L 203.255823 201.481883 
L 205.449435 202.316929 
L 207.643047 202.669798 
L 209.836658 203.503434 
L 212.03027 204.106893 
L 214.223882 205.34997 
L 216.417494 206.01417 
L 218.611106 204.670949 
L 220.804717 205.465037 
L 222.998329 206.314258 
L 225.191941 206.948046 
L 227.385553 207.02054 
L 229.579165 206.637651 
L 231.772776 207.122168 
L 233.966388 207.454517 
L 236.16 206.813818 
L 238.353612 207.888434 
L 240.547224 208.412094 
L 242.740835 208.752433 
L 244.934447 209.328842 
L 247.128059 210.023353 
L 249.321671 210.118652 
L 251.515283 210.631058 
L 253.708894 212.18815 
L 255.902506 212.954223 
L 258.096118 213.099758 
L 260.28973 213.597558 
L 262.483342 214.243292 
L 264.676953 213.861728 
L 266.870565 214.39907 
L 269.064177 214.523119 
L 271.257789 214.91521 
L 273.4514 215.862799 
L 275.645012 215.463187 
L 277.838624 216.141944 
L 280.032236 216.768675 
L 282.225848 217.13936 
L 284.419459 217.252295 
L 286.613071 217.962968 
L 288.806683 218.017531 
L 291.000295 218.676212 
L 293.193907 218.523187 
L 295.387518 218.372089 
L 297.58113 218.621688 
L 299.774742 218.862595 
L 301.968354 219.137408 
L 304.161966 218.985864 
L 306.355577 219.562111 
L 308.549189 219.383174 
L 310.742801 219.305681 
L 312.936413 219.004754 
L 315.130025 219.575473 
L 317.323636 219.960664 
L 319.517248 219.969747 
L 321.71086 220.775463 
L 323.904472 221.419338 
L 326.098084 221.538035 
L 328.291695 222.148337 
L 330.485307 222.051834 
L 332.678919 222.041685 
L 334.872531 222.234062 
L 337.066143 223.004248 
L 339.259754 223.105764 
L 341.453366 223.065187 
L 343.646978 222.834061 
L 345.84059 222.403202 
L 348.034201 222.166037 
L 350.227813 222.869177 
L 352.421425 222.569712 
L 354.615037 222.77605 
L 356.808649 222.01263 
L 359.00226 221.98847 
L 361.195872 222.046774 
L 363.389484 222.19862 
L 365.583096 222.158072 
L 367.776708 221.837985 
L 369.970319 221.590729 
L 372.163931 221.368513 
L 374.357543 221.209472 
L 376.551155 221.2325 
L 378.744767 221.338738 
L 380.938378 221.677738 
L 383.13199 222.213964 
L 385.325602 222.335967 
L 387.519214 222.119974 
L 389.712826 222.391138 
L 391.906437 222.333283 
L 394.100049 222.51462 
L 396.293661 222.487257 
L 398.487273 223.346809 
L 398.487273 219.637054 
L 398.487273 219.637054 
L 396.293661 218.667668 
L 394.100049 218.608441 
L 391.906437 218.179509 
L 389.712826 218.022345 
L 387.519214 218.073006 
L 385.325602 218.343136 
L 383.13199 218.157335 
L 380.938378 217.896338 
L 378.744767 217.724361 
L 376.551155 217.810779 
L 374.357543 217.566941 
L 372.163931 217.347146 
L 369.970319 217.286089 
L 367.776708 217.307535 
L 365.583096 217.528383 
L 363.389484 217.781857 
L 361.195872 218.130988 
L 359.00226 218.176426 
L 356.808649 218.200351 
L 354.615037 218.23069 
L 352.421425 218.068072 
L 350.227813 218.648527 
L 348.034201 218.068897 
L 345.84059 218.209253 
L 343.646978 218.28551 
L 341.453366 218.700939 
L 339.259754 218.72785 
L 337.066143 218.243104 
L 334.872531 217.136612 
L 332.678919 216.277038 
L 330.485307 216.175252 
L 328.291695 216.387379 
L 326.098084 215.938934 
L 323.904472 216.487805 
L 321.71086 215.873936 
L 319.517248 215.561268 
L 317.323636 215.769833 
L 315.130025 215.713206 
L 312.936413 215.25036 
L 310.742801 215.234882 
L 308.549189 214.96963 
L 306.355577 215.089185 
L 304.161966 214.690354 
L 301.968354 214.588217 
L 299.774742 213.908123 
L 297.58113 213.565652 
L 295.387518 213.318905 
L 293.193907 213.181529 
L 291.000295 213.344779 
L 288.806683 212.732451 
L 286.613071 212.323814 
L 284.419459 211.415001 
L 282.225848 211.075993 
L 280.032236 210.402576 
L 277.838624 210.032471 
L 275.645012 209.573324 
L 273.4514 209.80894 
L 271.257789 209.615602 
L 269.064177 209.396946 
L 266.870565 209.279433 
L 264.676953 209.609319 
L 262.483342 208.799865 
L 260.28973 208.181066 
L 258.096118 207.663853 
L 255.902506 207.364876 
L 253.708894 205.957576 
L 251.515283 204.793165 
L 249.321671 203.803985 
L 247.128059 203.826145 
L 244.934447 203.162577 
L 242.740835 202.852841 
L 240.547224 201.96102 
L 238.353612 202.142198 
L 236.16 201.905886 
L 233.966388 201.416136 
L 231.772776 201.216687 
L 229.579165 200.954673 
L 227.385553 200.899798 
L 225.191941 200.40989 
L 222.998329 199.819824 
L 220.804717 199.224821 
L 218.611106 199.993529 
L 216.417494 199.562607 
L 214.223882 199.141767 
L 212.03027 198.133178 
L 209.836658 197.390656 
L 207.643047 196.113725 
L 205.449435 195.020664 
L 203.255823 193.735754 
L 201.062211 193.382739 
L 198.8686 192.524348 
L 196.674988 191.384617 
L 194.481376 191.404837 
L 192.287764 190.326007 
L 190.094152 189.550874 
L 187.900541 188.120246 
L 185.706929 187.738686 
L 183.513317 185.679661 
L 181.319705 185.004514 
L 179.126093 184.278559 
L 176.932482 183.112309 
L 174.73887 183.092086 
L 172.545258 183.681556 
L 170.351646 182.883004 
L 168.158034 181.010368 
L 165.964423 181.367161 
L 163.770811 181.222857 
L 161.577199 180.756481 
L 159.383587 179.024152 
L 157.189975 177.313307 
L 154.996364 175.644808 
L 152.802752 173.040474 
L 150.60914 170.438539 
L 148.415528 167.978228 
L 146.221916 164.933671 
L 144.028305 163.215597 
L 141.834693 163.137158 
L 139.641081 159.994185 
L 137.447469 159.291567 
L 135.253857 157.698203 
L 133.060246 155.180103 
L 130.866634 153.816082 
L 128.673022 151.843719 
L 126.47941 151.072237 
L 124.285799 149.570417 
L 122.092187 146.948266 
L 119.898575 142.402133 
L 117.704963 136.237 
L 115.511351 134.162782 
L 113.31774 131.77072 
L 111.124128 126.855995 
L 108.930516 119.891364 
L 106.736904 116.112734 
L 104.543292 114.655117 
L 102.349681 113.844033 
L 100.156069 106.263263 
L 97.962457 105.46962 
L 95.768845 99.736015 
L 93.575233 88.902817 
L 91.381622 80.403503 
L 89.18801 71.138345 
L 86.994398 60.195436 
L 84.800786 43.424106 
L 82.607174 21.243906 
L 80.413563 6.23737 
L 78.219951 -23.737059 
L 76.026339 -70.194333 
L 73.832727 -168.283729 
z
" style="fill:#653700;fill-opacity:0.3;stroke:#653700;stroke-opacity:0.3;"/>
   </g>
   <g id="matplotlib.axis_1">
    <g id="xtick_1">
     <g id="line2d_1">
      <defs>
       <path d="M 0 0 
L 0 3.5 
" id="mcdbb3e8bc4" style="stroke:#000000;stroke-width:0.8;"/>
      </defs>
      <g>
       <use style="stroke:#000000;stroke-width:0.8;" x="73.832727" xlink:href="#mcdbb3e8bc4" y="307.584"/>
      </g>
     </g>
     <g id="text_1">
      <!-- 0 -->
      <g transform="translate(68.742727 326.7415)scale(0.16 -0.16)">
       <defs>
        <path d="M 2034 4250 
Q 1547 4250 1301 3770 
Q 1056 3291 1056 2328 
Q 1056 1369 1301 889 
Q 1547 409 2034 409 
Q 2525 409 2770 889 
Q 3016 1369 3016 2328 
Q 3016 3291 2770 3770 
Q 2525 4250 2034 4250 
z
M 2034 4750 
Q 2819 4750 3233 4129 
Q 3647 3509 3647 2328 
Q 3647 1150 3233 529 
Q 2819 -91 2034 -91 
Q 1250 -91 836 529 
Q 422 1150 422 2328 
Q 422 3509 836 4129 
Q 1250 4750 2034 4750 
z
" id="DejaVuSans-30" transform="scale(0.015625)"/>
       </defs>
       <use xlink:href="#DejaVuSans-30"/>
      </g>
     </g>
    </g>
    <g id="xtick_2">
     <g id="line2d_2">
      <g>
       <use style="stroke:#000000;stroke-width:0.8;" x="117.704963" xlink:href="#mcdbb3e8bc4" y="307.584"/>
      </g>
     </g>
     <g id="text_2">
      <!-- 100 -->
      <g transform="translate(102.434963 326.7415)scale(0.16 -0.16)">
       <defs>
        <path d="M 794 531 
L 1825 531 
L 1825 4091 
L 703 3866 
L 703 4441 
L 1819 4666 
L 2450 4666 
L 2450 531 
L 3481 531 
L 3481 0 
L 794 0 
L 794 531 
z
" id="DejaVuSans-31" transform="scale(0.015625)"/>
       </defs>
       <use xlink:href="#DejaVuSans-31"/>
       <use x="63.623047" xlink:href="#DejaVuSans-30"/>
       <use x="127.246094" xlink:href="#DejaVuSans-30"/>
      </g>
     </g>
    </g>
    <g id="xtick_3">
     <g id="line2d_3">
      <g>
       <use style="stroke:#000000;stroke-width:0.8;" x="161.577199" xlink:href="#mcdbb3e8bc4" y="307.584"/>
      </g>
     </g>
     <g id="text_3">
      <!-- 200 -->
      <g transform="translate(146.307199 326.7415)scale(0.16 -0.16)">
       <defs>
        <path d="M 1228 531 
L 3431 531 
L 3431 0 
L 469 0 
L 469 531 
Q 828 903 1448 1529 
Q 2069 2156 2228 2338 
Q 2531 2678 2651 2914 
Q 2772 3150 2772 3378 
Q 2772 3750 2511 3984 
Q 2250 4219 1831 4219 
Q 1534 4219 1204 4116 
Q 875 4013 500 3803 
L 500 4441 
Q 881 4594 1212 4672 
Q 1544 4750 1819 4750 
Q 2544 4750 2975 4387 
Q 3406 4025 3406 3419 
Q 3406 3131 3298 2873 
Q 3191 2616 2906 2266 
Q 2828 2175 2409 1742 
Q 1991 1309 1228 531 
z
" id="DejaVuSans-32" transform="scale(0.015625)"/>
       </defs>
       <use xlink:href="#DejaVuSans-32"/>
       <use x="63.623047" xlink:href="#DejaVuSans-30"/>
       <use x="127.246094" xlink:href="#DejaVuSans-30"/>
      </g>
     </g>
    </g>
    <g id="xtick_4">
     <g id="line2d_4">
      <g>
       <use style="stroke:#000000;stroke-width:0.8;" x="205.449435" xlink:href="#mcdbb3e8bc4" y="307.584"/>
      </g>
     </g>
     <g id="text_4">
      <!-- 300 -->
      <g transform="translate(190.179435 326.7415)scale(0.16 -0.16)">
       <defs>
        <path d="M 2597 2516 
Q 3050 2419 3304 2112 
Q 3559 1806 3559 1356 
Q 3559 666 3084 287 
Q 2609 -91 1734 -91 
Q 1441 -91 1130 -33 
Q 819 25 488 141 
L 488 750 
Q 750 597 1062 519 
Q 1375 441 1716 441 
Q 2309 441 2620 675 
Q 2931 909 2931 1356 
Q 2931 1769 2642 2001 
Q 2353 2234 1838 2234 
L 1294 2234 
L 1294 2753 
L 1863 2753 
Q 2328 2753 2575 2939 
Q 2822 3125 2822 3475 
Q 2822 3834 2567 4026 
Q 2313 4219 1838 4219 
Q 1578 4219 1281 4162 
Q 984 4106 628 3988 
L 628 4550 
Q 988 4650 1302 4700 
Q 1616 4750 1894 4750 
Q 2613 4750 3031 4423 
Q 3450 4097 3450 3541 
Q 3450 3153 3228 2886 
Q 3006 2619 2597 2516 
z
" id="DejaVuSans-33" transform="scale(0.015625)"/>
       </defs>
       <use xlink:href="#DejaVuSans-33"/>
       <use x="63.623047" xlink:href="#DejaVuSans-30"/>
       <use x="127.246094" xlink:href="#DejaVuSans-30"/>
      </g>
     </g>
    </g>
    <g id="xtick_5">
     <g id="line2d_5">
      <g>
       <use style="stroke:#000000;stroke-width:0.8;" x="249.321671" xlink:href="#mcdbb3e8bc4" y="307.584"/>
      </g>
     </g>
     <g id="text_5">
      <!-- 400 -->
      <g transform="translate(234.051671 326.7415)scale(0.16 -0.16)">
       <defs>
        <path d="M 2419 4116 
L 825 1625 
L 2419 1625 
L 2419 4116 
z
M 2253 4666 
L 3047 4666 
L 3047 1625 
L 3713 1625 
L 3713 1100 
L 3047 1100 
L 3047 0 
L 2419 0 
L 2419 1100 
L 313 1100 
L 313 1709 
L 2253 4666 
z
" id="DejaVuSans-34" transform="scale(0.015625)"/>
       </defs>
       <use xlink:href="#DejaVuSans-34"/>
       <use x="63.623047" xlink:href="#DejaVuSans-30"/>
       <use x="127.246094" xlink:href="#DejaVuSans-30"/>
      </g>
     </g>
    </g>
    <g id="xtick_6">
     <g id="line2d_6">
      <g>
       <use style="stroke:#000000;stroke-width:0.8;" x="293.193907" xlink:href="#mcdbb3e8bc4" y="307.584"/>
      </g>
     </g>
     <g id="text_6">
      <!-- 500 -->
      <g transform="translate(277.923907 326.7415)scale(0.16 -0.16)">
       <defs>
        <path d="M 691 4666 
L 3169 4666 
L 3169 4134 
L 1269 4134 
L 1269 2991 
Q 1406 3038 1543 3061 
Q 1681 3084 1819 3084 
Q 2600 3084 3056 2656 
Q 3513 2228 3513 1497 
Q 3513 744 3044 326 
Q 2575 -91 1722 -91 
Q 1428 -91 1123 -41 
Q 819 9 494 109 
L 494 744 
Q 775 591 1075 516 
Q 1375 441 1709 441 
Q 2250 441 2565 725 
Q 2881 1009 2881 1497 
Q 2881 1984 2565 2268 
Q 2250 2553 1709 2553 
Q 1456 2553 1204 2497 
Q 953 2441 691 2322 
L 691 4666 
z
" id="DejaVuSans-35" transform="scale(0.015625)"/>
       </defs>
       <use xlink:href="#DejaVuSans-35"/>
       <use x="63.623047" xlink:href="#DejaVuSans-30"/>
       <use x="127.246094" xlink:href="#DejaVuSans-30"/>
      </g>
     </g>
    </g>
    <g id="xtick_7">
     <g id="line2d_7">
      <g>
       <use style="stroke:#000000;stroke-width:0.8;" x="337.066143" xlink:href="#mcdbb3e8bc4" y="307.584"/>
      </g>
     </g>
     <g id="text_7">
      <!-- 600 -->
      <g transform="translate(321.796143 326.7415)scale(0.16 -0.16)">
       <defs>
        <path d="M 2113 2584 
Q 1688 2584 1439 2293 
Q 1191 2003 1191 1497 
Q 1191 994 1439 701 
Q 1688 409 2113 409 
Q 2538 409 2786 701 
Q 3034 994 3034 1497 
Q 3034 2003 2786 2293 
Q 2538 2584 2113 2584 
z
M 3366 4563 
L 3366 3988 
Q 3128 4100 2886 4159 
Q 2644 4219 2406 4219 
Q 1781 4219 1451 3797 
Q 1122 3375 1075 2522 
Q 1259 2794 1537 2939 
Q 1816 3084 2150 3084 
Q 2853 3084 3261 2657 
Q 3669 2231 3669 1497 
Q 3669 778 3244 343 
Q 2819 -91 2113 -91 
Q 1303 -91 875 529 
Q 447 1150 447 2328 
Q 447 3434 972 4092 
Q 1497 4750 2381 4750 
Q 2619 4750 2861 4703 
Q 3103 4656 3366 4563 
z
" id="DejaVuSans-36" transform="scale(0.015625)"/>
       </defs>
       <use xlink:href="#DejaVuSans-36"/>
       <use x="63.623047" xlink:href="#DejaVuSans-30"/>
       <use x="127.246094" xlink:href="#DejaVuSans-30"/>
      </g>
     </g>
    </g>
    <g id="xtick_8">
     <g id="line2d_8">
      <g>
       <use style="stroke:#000000;stroke-width:0.8;" x="380.938378" xlink:href="#mcdbb3e8bc4" y="307.584"/>
      </g>
     </g>
     <g id="text_8">
      <!-- 700 -->
      <g transform="translate(365.668378 326.7415)scale(0.16 -0.16)">
       <defs>
        <path d="M 525 4666 
L 3525 4666 
L 3525 4397 
L 1831 0 
L 1172 0 
L 2766 4134 
L 525 4134 
L 525 4666 
z
" id="DejaVuSans-37" transform="scale(0.015625)"/>
       </defs>
       <use xlink:href="#DejaVuSans-37"/>
       <use x="63.623047" xlink:href="#DejaVuSans-30"/>
       <use x="127.246094" xlink:href="#DejaVuSans-30"/>
      </g>
     </g>
    </g>
    <g id="text_9">
     <!-- Number of resamples -->
     <g transform="translate(149.94125 346.2265)scale(0.16 -0.16)">
      <defs>
       <path d="M 628 4666 
L 1478 4666 
L 3547 763 
L 3547 4666 
L 4159 4666 
L 4159 0 
L 3309 0 
L 1241 3903 
L 1241 0 
L 628 0 
L 628 4666 
z
" id="DejaVuSans-4e" transform="scale(0.015625)"/>
       <path d="M 544 1381 
L 544 3500 
L 1119 3500 
L 1119 1403 
Q 1119 906 1312 657 
Q 1506 409 1894 409 
Q 2359 409 2629 706 
Q 2900 1003 2900 1516 
L 2900 3500 
L 3475 3500 
L 3475 0 
L 2900 0 
L 2900 538 
Q 2691 219 2414 64 
Q 2138 -91 1772 -91 
Q 1169 -91 856 284 
Q 544 659 544 1381 
z
M 1991 3584 
L 1991 3584 
z
" id="DejaVuSans-75" transform="scale(0.015625)"/>
       <path d="M 3328 2828 
Q 3544 3216 3844 3400 
Q 4144 3584 4550 3584 
Q 5097 3584 5394 3201 
Q 5691 2819 5691 2113 
L 5691 0 
L 5113 0 
L 5113 2094 
Q 5113 2597 4934 2840 
Q 4756 3084 4391 3084 
Q 3944 3084 3684 2787 
Q 3425 2491 3425 1978 
L 3425 0 
L 2847 0 
L 2847 2094 
Q 2847 2600 2669 2842 
Q 2491 3084 2119 3084 
Q 1678 3084 1418 2786 
Q 1159 2488 1159 1978 
L 1159 0 
L 581 0 
L 581 3500 
L 1159 3500 
L 1159 2956 
Q 1356 3278 1631 3431 
Q 1906 3584 2284 3584 
Q 2666 3584 2933 3390 
Q 3200 3197 3328 2828 
z
" id="DejaVuSans-6d" transform="scale(0.015625)"/>
       <path d="M 3116 1747 
Q 3116 2381 2855 2742 
Q 2594 3103 2138 3103 
Q 1681 3103 1420 2742 
Q 1159 2381 1159 1747 
Q 1159 1113 1420 752 
Q 1681 391 2138 391 
Q 2594 391 2855 752 
Q 3116 1113 3116 1747 
z
M 1159 2969 
Q 1341 3281 1617 3432 
Q 1894 3584 2278 3584 
Q 2916 3584 3314 3078 
Q 3713 2572 3713 1747 
Q 3713 922 3314 415 
Q 2916 -91 2278 -91 
Q 1894 -91 1617 61 
Q 1341 213 1159 525 
L 1159 0 
L 581 0 
L 581 4863 
L 1159 4863 
L 1159 2969 
z
" id="DejaVuSans-62" transform="scale(0.015625)"/>
       <path d="M 3597 1894 
L 3597 1613 
L 953 1613 
Q 991 1019 1311 708 
Q 1631 397 2203 397 
Q 2534 397 2845 478 
Q 3156 559 3463 722 
L 3463 178 
Q 3153 47 2828 -22 
Q 2503 -91 2169 -91 
Q 1331 -91 842 396 
Q 353 884 353 1716 
Q 353 2575 817 3079 
Q 1281 3584 2069 3584 
Q 2775 3584 3186 3129 
Q 3597 2675 3597 1894 
z
M 3022 2063 
Q 3016 2534 2758 2815 
Q 2500 3097 2075 3097 
Q 1594 3097 1305 2825 
Q 1016 2553 972 2059 
L 3022 2063 
z
" id="DejaVuSans-65" transform="scale(0.015625)"/>
       <path d="M 2631 2963 
Q 2534 3019 2420 3045 
Q 2306 3072 2169 3072 
Q 1681 3072 1420 2755 
Q 1159 2438 1159 1844 
L 1159 0 
L 581 0 
L 581 3500 
L 1159 3500 
L 1159 2956 
Q 1341 3275 1631 3429 
Q 1922 3584 2338 3584 
Q 2397 3584 2469 3576 
Q 2541 3569 2628 3553 
L 2631 2963 
z
" id="DejaVuSans-72" transform="scale(0.015625)"/>
       <path id="DejaVuSans-20" transform="scale(0.015625)"/>
       <path d="M 1959 3097 
Q 1497 3097 1228 2736 
Q 959 2375 959 1747 
Q 959 1119 1226 758 
Q 1494 397 1959 397 
Q 2419 397 2687 759 
Q 2956 1122 2956 1747 
Q 2956 2369 2687 2733 
Q 2419 3097 1959 3097 
z
M 1959 3584 
Q 2709 3584 3137 3096 
Q 3566 2609 3566 1747 
Q 3566 888 3137 398 
Q 2709 -91 1959 -91 
Q 1206 -91 779 398 
Q 353 888 353 1747 
Q 353 2609 779 3096 
Q 1206 3584 1959 3584 
z
" id="DejaVuSans-6f" transform="scale(0.015625)"/>
       <path d="M 2375 4863 
L 2375 4384 
L 1825 4384 
Q 1516 4384 1395 4259 
Q 1275 4134 1275 3809 
L 1275 3500 
L 2222 3500 
L 2222 3053 
L 1275 3053 
L 1275 0 
L 697 0 
L 697 3053 
L 147 3053 
L 147 3500 
L 697 3500 
L 697 3744 
Q 697 4328 969 4595 
Q 1241 4863 1831 4863 
L 2375 4863 
z
" id="DejaVuSans-66" transform="scale(0.015625)"/>
       <path d="M 2834 3397 
L 2834 2853 
Q 2591 2978 2328 3040 
Q 2066 3103 1784 3103 
Q 1356 3103 1142 2972 
Q 928 2841 928 2578 
Q 928 2378 1081 2264 
Q 1234 2150 1697 2047 
L 1894 2003 
Q 2506 1872 2764 1633 
Q 3022 1394 3022 966 
Q 3022 478 2636 193 
Q 2250 -91 1575 -91 
Q 1294 -91 989 -36 
Q 684 19 347 128 
L 347 722 
Q 666 556 975 473 
Q 1284 391 1588 391 
Q 1994 391 2212 530 
Q 2431 669 2431 922 
Q 2431 1156 2273 1281 
Q 2116 1406 1581 1522 
L 1381 1569 
Q 847 1681 609 1914 
Q 372 2147 372 2553 
Q 372 3047 722 3315 
Q 1072 3584 1716 3584 
Q 2034 3584 2315 3537 
Q 2597 3491 2834 3397 
z
" id="DejaVuSans-73" transform="scale(0.015625)"/>
       <path d="M 2194 1759 
Q 1497 1759 1228 1600 
Q 959 1441 959 1056 
Q 959 750 1161 570 
Q 1363 391 1709 391 
Q 2188 391 2477 730 
Q 2766 1069 2766 1631 
L 2766 1759 
L 2194 1759 
z
M 3341 1997 
L 3341 0 
L 2766 0 
L 2766 531 
Q 2569 213 2275 61 
Q 1981 -91 1556 -91 
Q 1019 -91 701 211 
Q 384 513 384 1019 
Q 384 1609 779 1909 
Q 1175 2209 1959 2209 
L 2766 2209 
L 2766 2266 
Q 2766 2663 2505 2880 
Q 2244 3097 1772 3097 
Q 1472 3097 1187 3025 
Q 903 2953 641 2809 
L 641 3341 
Q 956 3463 1253 3523 
Q 1550 3584 1831 3584 
Q 2591 3584 2966 3190 
Q 3341 2797 3341 1997 
z
" id="DejaVuSans-61" transform="scale(0.015625)"/>
       <path d="M 1159 525 
L 1159 -1331 
L 581 -1331 
L 581 3500 
L 1159 3500 
L 1159 2969 
Q 1341 3281 1617 3432 
Q 1894 3584 2278 3584 
Q 2916 3584 3314 3078 
Q 3713 2572 3713 1747 
Q 3713 922 3314 415 
Q 2916 -91 2278 -91 
Q 1894 -91 1617 61 
Q 1341 213 1159 525 
z
M 3116 1747 
Q 3116 2381 2855 2742 
Q 2594 3103 2138 3103 
Q 1681 3103 1420 2742 
Q 1159 2381 1159 1747 
Q 1159 1113 1420 752 
Q 1681 391 2138 391 
Q 2594 391 2855 752 
Q 3116 1113 3116 1747 
z
" id="DejaVuSans-70" transform="scale(0.015625)"/>
       <path d="M 603 4863 
L 1178 4863 
L 1178 0 
L 603 0 
L 603 4863 
z
" id="DejaVuSans-6c" transform="scale(0.015625)"/>
      </defs>
      <use xlink:href="#DejaVuSans-4e"/>
      <use x="74.804688" xlink:href="#DejaVuSans-75"/>
      <use x="138.183594" xlink:href="#DejaVuSans-6d"/>
      <use x="235.595703" xlink:href="#DejaVuSans-62"/>
      <use x="299.072266" xlink:href="#DejaVuSans-65"/>
      <use x="360.595703" xlink:href="#DejaVuSans-72"/>
      <use x="401.708984" xlink:href="#DejaVuSans-20"/>
      <use x="433.496094" xlink:href="#DejaVuSans-6f"/>
      <use x="494.677734" xlink:href="#DejaVuSans-66"/>
      <use x="529.882812" xlink:href="#DejaVuSans-20"/>
      <use x="561.669922" xlink:href="#DejaVuSans-72"/>
      <use x="600.533203" xlink:href="#DejaVuSans-65"/>
      <use x="662.056641" xlink:href="#DejaVuSans-73"/>
      <use x="714.15625" xlink:href="#DejaVuSans-61"/>
      <use x="775.435547" xlink:href="#DejaVuSans-6d"/>
      <use x="872.847656" xlink:href="#DejaVuSans-70"/>
      <use x="936.324219" xlink:href="#DejaVuSans-6c"/>
      <use x="964.107422" xlink:href="#DejaVuSans-65"/>
      <use x="1025.630859" xlink:href="#DejaVuSans-73"/>
     </g>
    </g>
   </g>
   <g id="matplotlib.axis_2">
    <g id="ytick_1">
     <g id="line2d_9">
      <defs>
       <path d="M 0 0 
L -3.5 0 
" id="m5434e686ca" style="stroke:#000000;stroke-width:0.8;"/>
      </defs>
      <g>
       <use style="stroke:#000000;stroke-width:0.8;" x="57.6" xlink:href="#m5434e686ca" y="307.584"/>
      </g>
     </g>
     <g id="text_10">
      <!-- 0.0 -->
      <g transform="translate(25.155 313.66275)scale(0.16 -0.16)">
       <defs>
        <path d="M 684 794 
L 1344 794 
L 1344 0 
L 684 0 
L 684 794 
z
" id="DejaVuSans-2e" transform="scale(0.015625)"/>
       </defs>
       <use xlink:href="#DejaVuSans-30"/>
       <use x="63.623047" xlink:href="#DejaVuSans-2e"/>
       <use x="95.410156" xlink:href="#DejaVuSans-30"/>
      </g>
     </g>
    </g>
    <g id="ytick_2">
     <g id="line2d_10">
      <g>
       <use style="stroke:#000000;stroke-width:0.8;" x="57.6" xlink:href="#m5434e686ca" y="266.643692"/>
      </g>
     </g>
     <g id="text_11">
      <!-- 0.1 -->
      <g transform="translate(25.155 272.722442)scale(0.16 -0.16)">
       <use xlink:href="#DejaVuSans-30"/>
       <use x="63.623047" xlink:href="#DejaVuSans-2e"/>
       <use x="95.410156" xlink:href="#DejaVuSans-31"/>
      </g>
     </g>
    </g>
    <g id="ytick_3">
     <g id="line2d_11">
      <g>
       <use style="stroke:#000000;stroke-width:0.8;" x="57.6" xlink:href="#m5434e686ca" y="225.703385"/>
      </g>
     </g>
     <g id="text_12">
      <!-- 0.2 -->
      <g transform="translate(25.155 231.782135)scale(0.16 -0.16)">
       <use xlink:href="#DejaVuSans-30"/>
       <use x="63.623047" xlink:href="#DejaVuSans-2e"/>
       <use x="95.410156" xlink:href="#DejaVuSans-32"/>
      </g>
     </g>
    </g>
    <g id="ytick_4">
     <g id="line2d_12">
      <g>
       <use style="stroke:#000000;stroke-width:0.8;" x="57.6" xlink:href="#m5434e686ca" y="184.763077"/>
      </g>
     </g>
     <g id="text_13">
      <!-- 0.3 -->
      <g transform="translate(25.155 190.841827)scale(0.16 -0.16)">
       <use xlink:href="#DejaVuSans-30"/>
       <use x="63.623047" xlink:href="#DejaVuSans-2e"/>
       <use x="95.410156" xlink:href="#DejaVuSans-33"/>
      </g>
     </g>
    </g>
    <g id="ytick_5">
     <g id="line2d_13">
      <g>
       <use style="stroke:#000000;stroke-width:0.8;" x="57.6" xlink:href="#m5434e686ca" y="143.822769"/>
      </g>
     </g>
     <g id="text_14">
      <!-- 0.4 -->
      <g transform="translate(25.155 149.901519)scale(0.16 -0.16)">
       <use xlink:href="#DejaVuSans-30"/>
       <use x="63.623047" xlink:href="#DejaVuSans-2e"/>
       <use x="95.410156" xlink:href="#DejaVuSans-34"/>
      </g>
     </g>
    </g>
    <g id="ytick_6">
     <g id="line2d_14">
      <g>
       <use style="stroke:#000000;stroke-width:0.8;" x="57.6" xlink:href="#m5434e686ca" y="102.882462"/>
      </g>
     </g>
     <g id="text_15">
      <!-- 0.5 -->
      <g transform="translate(25.155 108.961212)scale(0.16 -0.16)">
       <use xlink:href="#DejaVuSans-30"/>
       <use x="63.623047" xlink:href="#DejaVuSans-2e"/>
       <use x="95.410156" xlink:href="#DejaVuSans-35"/>
      </g>
     </g>
    </g>
    <g id="ytick_7">
     <g id="line2d_15">
      <g>
       <use style="stroke:#000000;stroke-width:0.8;" x="57.6" xlink:href="#m5434e686ca" y="61.942154"/>
      </g>
     </g>
     <g id="text_16">
      <!-- 0.6 -->
      <g transform="translate(25.155 68.020904)scale(0.16 -0.16)">
       <use xlink:href="#DejaVuSans-30"/>
       <use x="63.623047" xlink:href="#DejaVuSans-2e"/>
       <use x="95.410156" xlink:href="#DejaVuSans-36"/>
      </g>
     </g>
    </g>
    <g id="text_17">
     <!-- Sampling Errors -->
     <g transform="translate(17.8275 238.1805)rotate(-90)scale(0.16 -0.16)">
      <defs>
       <path d="M 3425 4513 
L 3425 3897 
Q 3066 4069 2747 4153 
Q 2428 4238 2131 4238 
Q 1616 4238 1336 4038 
Q 1056 3838 1056 3469 
Q 1056 3159 1242 3001 
Q 1428 2844 1947 2747 
L 2328 2669 
Q 3034 2534 3370 2195 
Q 3706 1856 3706 1288 
Q 3706 609 3251 259 
Q 2797 -91 1919 -91 
Q 1588 -91 1214 -16 
Q 841 59 441 206 
L 441 856 
Q 825 641 1194 531 
Q 1563 422 1919 422 
Q 2459 422 2753 634 
Q 3047 847 3047 1241 
Q 3047 1584 2836 1778 
Q 2625 1972 2144 2069 
L 1759 2144 
Q 1053 2284 737 2584 
Q 422 2884 422 3419 
Q 422 4038 858 4394 
Q 1294 4750 2059 4750 
Q 2388 4750 2728 4690 
Q 3069 4631 3425 4513 
z
" id="DejaVuSans-53" transform="scale(0.015625)"/>
       <path d="M 603 3500 
L 1178 3500 
L 1178 0 
L 603 0 
L 603 3500 
z
M 603 4863 
L 1178 4863 
L 1178 4134 
L 603 4134 
L 603 4863 
z
" id="DejaVuSans-69" transform="scale(0.015625)"/>
       <path d="M 3513 2113 
L 3513 0 
L 2938 0 
L 2938 2094 
Q 2938 2591 2744 2837 
Q 2550 3084 2163 3084 
Q 1697 3084 1428 2787 
Q 1159 2491 1159 1978 
L 1159 0 
L 581 0 
L 581 3500 
L 1159 3500 
L 1159 2956 
Q 1366 3272 1645 3428 
Q 1925 3584 2291 3584 
Q 2894 3584 3203 3211 
Q 3513 2838 3513 2113 
z
" id="DejaVuSans-6e" transform="scale(0.015625)"/>
       <path d="M 2906 1791 
Q 2906 2416 2648 2759 
Q 2391 3103 1925 3103 
Q 1463 3103 1205 2759 
Q 947 2416 947 1791 
Q 947 1169 1205 825 
Q 1463 481 1925 481 
Q 2391 481 2648 825 
Q 2906 1169 2906 1791 
z
M 3481 434 
Q 3481 -459 3084 -895 
Q 2688 -1331 1869 -1331 
Q 1566 -1331 1297 -1286 
Q 1028 -1241 775 -1147 
L 775 -588 
Q 1028 -725 1275 -790 
Q 1522 -856 1778 -856 
Q 2344 -856 2625 -561 
Q 2906 -266 2906 331 
L 2906 616 
Q 2728 306 2450 153 
Q 2172 0 1784 0 
Q 1141 0 747 490 
Q 353 981 353 1791 
Q 353 2603 747 3093 
Q 1141 3584 1784 3584 
Q 2172 3584 2450 3431 
Q 2728 3278 2906 2969 
L 2906 3500 
L 3481 3500 
L 3481 434 
z
" id="DejaVuSans-67" transform="scale(0.015625)"/>
       <path d="M 628 4666 
L 3578 4666 
L 3578 4134 
L 1259 4134 
L 1259 2753 
L 3481 2753 
L 3481 2222 
L 1259 2222 
L 1259 531 
L 3634 531 
L 3634 0 
L 628 0 
L 628 4666 
z
" id="DejaVuSans-45" transform="scale(0.015625)"/>
      </defs>
      <use xlink:href="#DejaVuSans-53"/>
      <use x="63.476562" xlink:href="#DejaVuSans-61"/>
      <use x="124.755859" xlink:href="#DejaVuSans-6d"/>
      <use x="222.167969" xlink:href="#DejaVuSans-70"/>
      <use x="285.644531" xlink:href="#DejaVuSans-6c"/>
      <use x="313.427734" xlink:href="#DejaVuSans-69"/>
      <use x="341.210938" xlink:href="#DejaVuSans-6e"/>
      <use x="404.589844" xlink:href="#DejaVuSans-67"/>
      <use x="468.066406" xlink:href="#DejaVuSans-20"/>
      <use x="499.853516" xlink:href="#DejaVuSans-45"/>
      <use x="563.037109" xlink:href="#DejaVuSans-72"/>
      <use x="602.400391" xlink:href="#DejaVuSans-72"/>
      <use x="641.263672" xlink:href="#DejaVuSans-6f"/>
      <use x="702.445312" xlink:href="#DejaVuSans-72"/>
      <use x="743.558594" xlink:href="#DejaVuSans-73"/>
     </g>
    </g>
   </g>
   <g id="line2d_16">
    <path clip-path="url(#pd34a14af8c)" d="M 77.477804 -1 
L 78.219951 21.714066 
L 80.413563 49.634996 
L 82.607174 75.808904 
L 84.800786 86.508241 
L 86.994398 95.662295 
L 89.18801 108.841625 
L 91.381622 120.200191 
L 93.575233 128.834042 
L 95.768845 133.753959 
L 97.962457 141.374539 
L 100.156069 146.526785 
L 102.349681 151.334568 
L 104.543292 157.992478 
L 106.736904 160.303186 
L 108.930516 167.521714 
L 111.124128 171.876902 
L 113.31774 176.730162 
L 115.511351 182.047784 
L 117.704963 185.128589 
L 119.898575 187.559357 
L 122.092187 190.92772 
L 124.285799 191.853672 
L 126.47941 194.517398 
L 128.673022 197.872041 
L 130.866634 202.919992 
L 135.253857 206.87431 
L 137.447469 209.185843 
L 139.641081 209.994812 
L 141.834693 212.786692 
L 144.028305 214.654477 
L 146.221916 216.794811 
L 148.415528 219.39687 
L 150.60914 221.415531 
L 152.802752 222.928826 
L 154.996364 224.676801 
L 157.189975 227.189951 
L 159.383587 228.569893 
L 161.577199 230.214819 
L 163.770811 231.107976 
L 165.964423 231.476735 
L 168.158034 232.92733 
L 170.351646 233.905613 
L 172.545258 236.526331 
L 174.73887 238.437802 
L 176.932482 239.205151 
L 183.513317 241.961341 
L 185.706929 242.611299 
L 187.900541 244.178203 
L 190.094152 244.831053 
L 194.481376 247.391988 
L 196.674988 247.669408 
L 198.8686 248.520076 
L 201.062211 249.016317 
L 203.255823 249.859207 
L 205.449435 249.719181 
L 207.643047 250.960959 
L 209.836658 251.816073 
L 212.03027 252.06845 
L 216.417494 253.718669 
L 218.611106 254.868239 
L 220.804717 255.726637 
L 222.998329 256.419014 
L 225.191941 257.759918 
L 227.385553 258.328054 
L 229.579165 258.661392 
L 231.772776 259.711518 
L 233.966388 260.292341 
L 236.16 260.721972 
L 238.353612 262.304739 
L 242.740835 263.232037 
L 244.934447 264.116732 
L 247.128059 264.376736 
L 249.321671 264.850295 
L 251.515283 265.751781 
L 253.708894 266.231752 
L 255.902506 266.570001 
L 260.28973 267.881053 
L 264.676953 269.054149 
L 266.870565 270.149824 
L 269.064177 270.139802 
L 271.257789 270.556632 
L 273.4514 270.858796 
L 277.838624 271.849601 
L 280.032236 272.101144 
L 282.225848 272.236598 
L 284.419459 272.495237 
L 286.613071 272.431677 
L 293.193907 273.577074 
L 295.387518 273.820389 
L 299.774742 274.975349 
L 301.968354 275.487196 
L 304.161966 275.594855 
L 306.355577 275.951404 
L 310.742801 276.306129 
L 315.130025 277.00489 
L 319.517248 277.177669 
L 321.71086 277.730171 
L 323.904472 277.967501 
L 330.485307 278.132889 
L 332.678919 278.420525 
L 334.872531 278.277006 
L 337.066143 278.644906 
L 341.453366 278.818465 
L 350.227813 280.07683 
L 352.421425 279.900729 
L 354.615037 280.277351 
L 356.808649 280.307891 
L 359.00226 280.565435 
L 361.195872 280.630903 
L 363.389484 280.956197 
L 365.583096 280.853048 
L 367.776708 281.256615 
L 369.970319 281.365506 
L 372.163931 281.347898 
L 376.551155 281.771745 
L 380.938378 281.999095 
L 389.712826 282.844144 
L 391.906437 282.78229 
L 394.100049 282.838581 
L 398.487273 283.14834 
L 398.487273 283.14834 
" style="fill:none;stroke:#f97306;stroke-linecap:square;stroke-width:1.5;"/>
   </g>
   <g id="line2d_17">
    <path clip-path="url(#pd34a14af8c)" d="M 78.785125 -1 
L 80.413563 27.224364 
L 82.607174 52.414513 
L 84.800786 71.947554 
L 89.18801 98.920735 
L 91.381622 109.278329 
L 93.575233 118.982792 
L 95.768845 126.535998 
L 97.962457 133.047067 
L 100.156069 139.003713 
L 106.736904 154.29025 
L 108.930516 159.439879 
L 111.124128 162.607916 
L 113.31774 167.16218 
L 115.511351 170.573296 
L 117.704963 173.443451 
L 119.898575 177.141995 
L 124.285799 183.155091 
L 130.866634 190.703134 
L 135.253857 195.453618 
L 139.641081 199.553048 
L 144.028305 202.640546 
L 150.60914 208.536056 
L 152.802752 210.479038 
L 154.996364 212.231269 
L 157.189975 213.690798 
L 159.383587 215.527952 
L 163.770811 218.619639 
L 172.545258 223.66419 
L 176.932482 226.833394 
L 179.126093 228.200217 
L 183.513317 230.600125 
L 185.706929 231.482926 
L 187.900541 232.764486 
L 192.287764 234.495737 
L 194.481376 235.787268 
L 196.674988 236.885701 
L 201.062211 238.517833 
L 205.449435 240.549055 
L 207.643047 241.359657 
L 209.836658 242.466279 
L 216.417494 245.084331 
L 218.611106 245.77619 
L 227.385553 249.024578 
L 231.772776 250.279334 
L 236.16 251.446164 
L 238.353612 252.148931 
L 242.740835 252.972184 
L 244.934447 253.489412 
L 247.128059 254.161012 
L 249.321671 254.564942 
L 251.515283 255.178147 
L 253.708894 255.581592 
L 258.096118 256.603537 
L 264.676953 258.218194 
L 266.870565 258.902358 
L 273.4514 260.330638 
L 282.225848 261.818402 
L 286.613071 262.283279 
L 288.806683 262.710222 
L 291.000295 262.916736 
L 293.193907 263.457798 
L 295.387518 263.54723 
L 297.58113 264.069413 
L 315.130025 266.826228 
L 317.323636 266.965128 
L 323.904472 267.696046 
L 326.098084 267.849421 
L 328.291695 268.261044 
L 345.84059 270.317602 
L 348.034201 270.704392 
L 352.421425 270.975003 
L 356.808649 271.598347 
L 361.195872 271.948012 
L 372.163931 273.117734 
L 374.357543 273.057682 
L 376.551155 273.403844 
L 385.325602 274.227039 
L 387.519214 274.284769 
L 398.487273 275.349907 
L 398.487273 275.349907 
" style="fill:none;stroke:#5a7d9a;stroke-linecap:square;stroke-width:1.5;"/>
   </g>
   <g id="line2d_18">
    <path clip-path="url(#pd34a14af8c)" d="M 57.6 275.349907 
L 414.72 275.349907 
" style="fill:none;stroke:#5a7d9a;stroke-dasharray:5.55,2.4;stroke-dashoffset:0;stroke-opacity:0.4;stroke-width:1.5;"/>
   </g>
   <g id="line2d_19">
    <path clip-path="url(#pd34a14af8c)" d="M 79.757242 -1 
L 80.413563 7.666224 
L 82.607174 27.400514 
L 84.800786 42.30023 
L 86.994398 63.677053 
L 89.18801 74.732798 
L 91.381622 80.608795 
L 93.575233 88.86521 
L 95.768845 97.612357 
L 97.962457 101.083945 
L 100.156069 108.474242 
L 102.349681 114.88627 
L 104.543292 119.922039 
L 106.736904 122.963138 
L 108.930516 124.731442 
L 111.124128 130.559975 
L 115.511351 136.790726 
L 117.704963 139.986799 
L 119.898575 141.353791 
L 122.092187 145.5856 
L 124.285799 148.782952 
L 126.47941 151.164292 
L 128.673022 154.300333 
L 133.060246 156.409653 
L 135.253857 158.548423 
L 137.447469 160.862704 
L 141.834693 163.141059 
L 144.028305 163.942471 
L 146.221916 166.139172 
L 148.415528 166.176887 
L 150.60914 167.315293 
L 154.996364 171.796633 
L 157.189975 173.381341 
L 159.383587 174.169381 
L 161.577199 176.316765 
L 163.770811 177.081257 
L 165.964423 178.164099 
L 168.158034 178.781533 
L 172.545258 181.599041 
L 174.73887 182.977356 
L 179.126093 186.16074 
L 181.319705 187.097461 
L 183.513317 188.272774 
L 185.706929 188.861301 
L 187.900541 190.653757 
L 190.094152 191.36273 
L 192.287764 192.318707 
L 194.481376 193.870929 
L 196.674988 195.063369 
L 203.255823 196.541567 
L 205.449435 196.474762 
L 207.643047 197.358338 
L 209.836658 197.970235 
L 214.223882 199.599493 
L 220.804717 201.804556 
L 225.191941 202.625844 
L 227.385553 203.261502 
L 229.579165 203.341697 
L 231.772776 204.234197 
L 233.966388 204.552344 
L 236.16 205.085463 
L 238.353612 205.92066 
L 240.547224 207.14301 
L 242.740835 207.72393 
L 244.934447 207.730173 
L 247.128059 208.590304 
L 249.321671 209.160605 
L 251.515283 209.470979 
L 255.902506 210.579246 
L 258.096118 210.833038 
L 260.28973 211.531152 
L 262.483342 212.535025 
L 264.676953 212.361171 
L 266.870565 212.861278 
L 269.064177 212.913432 
L 271.257789 213.237785 
L 273.4514 214.169787 
L 275.645012 214.198873 
L 277.838624 214.510489 
L 280.032236 214.629849 
L 282.225848 215.567181 
L 284.419459 216.355516 
L 286.613071 216.702599 
L 288.806683 216.794848 
L 291.000295 217.172294 
L 293.193907 217.83238 
L 297.58113 218.291373 
L 299.774742 218.290731 
L 301.968354 218.424123 
L 304.161966 218.372524 
L 306.355577 219.13564 
L 308.549189 219.224821 
L 312.936413 220.174416 
L 315.130025 220.936102 
L 319.517248 222.018267 
L 321.71086 222.381499 
L 326.098084 223.456968 
L 328.291695 223.437156 
L 332.678919 224.073331 
L 334.872531 224.425642 
L 337.066143 224.934432 
L 339.259754 225.058475 
L 341.453366 225.470162 
L 345.84059 225.657731 
L 348.034201 226.303446 
L 350.227813 226.294434 
L 356.808649 227.396251 
L 359.00226 227.464744 
L 363.389484 228.048959 
L 365.583096 228.155351 
L 369.970319 229.066819 
L 376.551155 229.498093 
L 378.744767 229.864624 
L 380.938378 229.913177 
L 383.13199 230.186562 
L 385.325602 230.600368 
L 387.519214 230.738535 
L 389.712826 231.035765 
L 391.906437 231.586712 
L 394.100049 231.924801 
L 396.293661 231.999039 
L 398.487273 232.235168 
L 398.487273 232.235168 
" style="fill:none;stroke:#40a368;stroke-linecap:square;stroke-width:1.5;"/>
   </g>
   <g id="line2d_20">
    <path clip-path="url(#pd34a14af8c)" d="M 57.6 232.235168 
L 414.72 232.235168 
" style="fill:none;stroke:#40a368;stroke-dasharray:5.55,2.4;stroke-dashoffset:0;stroke-opacity:0.4;stroke-width:1.5;"/>
   </g>
   <g id="line2d_21">
    <path clip-path="url(#pd34a14af8c)" d="M 79.287171 -1 
L 80.413563 14.835585 
L 82.607174 33.343802 
L 84.800786 53.553007 
L 86.994398 67.22382 
L 89.18801 78.172658 
L 95.768845 103.02772 
L 97.962457 110.208226 
L 100.156069 112.37754 
L 102.349681 118.002457 
L 104.543292 119.687573 
L 108.930516 125.954784 
L 113.31774 135.029693 
L 115.511351 139.135961 
L 117.704963 140.754648 
L 122.092187 150.302313 
L 124.285799 153.038634 
L 126.47941 153.509118 
L 128.673022 155.015593 
L 133.060246 157.582511 
L 135.253857 160.886529 
L 137.447469 162.36425 
L 139.641081 163.410218 
L 141.834693 165.359865 
L 144.028305 166.460692 
L 146.221916 167.948729 
L 148.415528 170.607874 
L 152.802752 174.930129 
L 154.996364 177.927851 
L 157.189975 179.914304 
L 161.577199 183.285341 
L 163.770811 183.547141 
L 165.964423 184.294771 
L 168.158034 184.458069 
L 170.351646 185.927722 
L 172.545258 186.847353 
L 174.73887 186.991787 
L 176.932482 187.36147 
L 179.126093 188.34305 
L 181.319705 189.516492 
L 183.513317 190.487235 
L 185.706929 191.58145 
L 187.900541 191.930776 
L 190.094152 192.976792 
L 192.287764 193.336943 
L 194.481376 194.868516 
L 196.674988 195.271746 
L 203.255823 197.608819 
L 205.449435 198.668797 
L 207.643047 199.391762 
L 209.836658 200.447045 
L 212.03027 201.120036 
L 214.223882 202.245869 
L 216.417494 202.788389 
L 218.611106 202.332239 
L 220.804717 202.344929 
L 225.191941 203.678968 
L 227.385553 203.960169 
L 229.579165 203.796162 
L 233.966388 204.435326 
L 236.16 204.359852 
L 238.353612 205.015316 
L 240.547224 205.186557 
L 242.740835 205.802637 
L 244.934447 206.245709 
L 247.128059 206.924749 
L 249.321671 206.961318 
L 251.515283 207.712111 
L 253.708894 209.072863 
L 255.902506 210.15955 
L 258.096118 210.381806 
L 260.28973 210.889312 
L 262.483342 211.521578 
L 266.870565 211.839252 
L 269.064177 211.960033 
L 271.257789 212.265406 
L 273.4514 212.835869 
L 275.645012 212.518256 
L 280.032236 213.585626 
L 282.225848 214.107677 
L 284.419459 214.333648 
L 286.613071 215.143391 
L 288.806683 215.374991 
L 291.000295 216.010495 
L 293.193907 215.852358 
L 295.387518 215.845497 
L 299.774742 216.385359 
L 301.968354 216.862812 
L 304.161966 216.838109 
L 306.355577 217.325648 
L 308.549189 217.176402 
L 310.742801 217.270282 
L 312.936413 217.127557 
L 315.130025 217.644339 
L 317.323636 217.865249 
L 319.517248 217.765507 
L 323.904472 218.953572 
L 326.098084 218.738485 
L 328.291695 219.267858 
L 330.485307 219.113543 
L 332.678919 219.159361 
L 334.872531 219.685337 
L 337.066143 220.623676 
L 339.259754 220.916807 
L 341.453366 220.883063 
L 345.84059 220.306228 
L 348.034201 220.117467 
L 350.227813 220.758852 
L 352.421425 220.318892 
L 354.615037 220.50337 
L 356.808649 220.106491 
L 363.389484 219.990238 
L 365.583096 219.843227 
L 367.776708 219.57276 
L 372.163931 219.35783 
L 378.744767 219.531549 
L 380.938378 219.787038 
L 383.13199 220.185649 
L 385.325602 220.339551 
L 387.519214 220.09649 
L 391.906437 220.256396 
L 394.100049 220.561531 
L 396.293661 220.577463 
L 398.487273 221.491932 
L 398.487273 221.491932 
" style="fill:none;stroke:#653700;stroke-linecap:square;stroke-width:1.5;"/>
   </g>
   <g id="line2d_22">
    <path clip-path="url(#pd34a14af8c)" d="M 57.6 221.491932 
L 414.72 221.491932 
" style="fill:none;stroke:#653700;stroke-dasharray:5.55,2.4;stroke-dashoffset:0;stroke-opacity:0.4;stroke-width:1.5;"/>
   </g>
   <g id="patch_3">
    <path d="M 57.6 307.584 
L 57.6 41.472 
" style="fill:none;stroke:#000000;stroke-linecap:square;stroke-linejoin:miter;stroke-width:0.8;"/>
   </g>
   <g id="patch_4">
    <path d="M 414.72 307.584 
L 414.72 41.472 
" style="fill:none;stroke:#000000;stroke-linecap:square;stroke-linejoin:miter;stroke-width:0.8;"/>
   </g>
   <g id="patch_5">
    <path d="M 57.6 307.584 
L 414.72 307.584 
" style="fill:none;stroke:#000000;stroke-linecap:square;stroke-linejoin:miter;stroke-width:0.8;"/>
   </g>
   <g id="patch_6">
    <path d="M 57.6 41.472 
L 414.72 41.472 
" style="fill:none;stroke:#000000;stroke-linecap:square;stroke-linejoin:miter;stroke-width:0.8;"/>
   </g>
   <g id="legend_1">
    <g id="line2d_23">
     <path d="M 182.2425 62.4295 
L 214.2425 62.4295 
" style="fill:none;stroke:#f97306;stroke-linecap:square;stroke-width:10;"/>
    </g>
    <g id="line2d_24"/>
    <g id="text_18">
     <!-- Riemannian Herding -->
     <g transform="translate(227.0425 68.0295)scale(0.16 -0.16)">
      <defs>
       <path d="M 2841 2188 
Q 3044 2119 3236 1894 
Q 3428 1669 3622 1275 
L 4263 0 
L 3584 0 
L 2988 1197 
Q 2756 1666 2539 1819 
Q 2322 1972 1947 1972 
L 1259 1972 
L 1259 0 
L 628 0 
L 628 4666 
L 2053 4666 
Q 2853 4666 3247 4331 
Q 3641 3997 3641 3322 
Q 3641 2881 3436 2590 
Q 3231 2300 2841 2188 
z
M 1259 4147 
L 1259 2491 
L 2053 2491 
Q 2509 2491 2742 2702 
Q 2975 2913 2975 3322 
Q 2975 3731 2742 3939 
Q 2509 4147 2053 4147 
L 1259 4147 
z
" id="DejaVuSans-52" transform="scale(0.015625)"/>
       <path d="M 628 4666 
L 1259 4666 
L 1259 2753 
L 3553 2753 
L 3553 4666 
L 4184 4666 
L 4184 0 
L 3553 0 
L 3553 2222 
L 1259 2222 
L 1259 0 
L 628 0 
L 628 4666 
z
" id="DejaVuSans-48" transform="scale(0.015625)"/>
       <path d="M 2906 2969 
L 2906 4863 
L 3481 4863 
L 3481 0 
L 2906 0 
L 2906 525 
Q 2725 213 2448 61 
Q 2172 -91 1784 -91 
Q 1150 -91 751 415 
Q 353 922 353 1747 
Q 353 2572 751 3078 
Q 1150 3584 1784 3584 
Q 2172 3584 2448 3432 
Q 2725 3281 2906 2969 
z
M 947 1747 
Q 947 1113 1208 752 
Q 1469 391 1925 391 
Q 2381 391 2643 752 
Q 2906 1113 2906 1747 
Q 2906 2381 2643 2742 
Q 2381 3103 1925 3103 
Q 1469 3103 1208 2742 
Q 947 2381 947 1747 
z
" id="DejaVuSans-64" transform="scale(0.015625)"/>
      </defs>
      <use xlink:href="#DejaVuSans-52"/>
      <use x="69.482422" xlink:href="#DejaVuSans-69"/>
      <use x="97.265625" xlink:href="#DejaVuSans-65"/>
      <use x="158.789062" xlink:href="#DejaVuSans-6d"/>
      <use x="256.201172" xlink:href="#DejaVuSans-61"/>
      <use x="317.480469" xlink:href="#DejaVuSans-6e"/>
      <use x="380.859375" xlink:href="#DejaVuSans-6e"/>
      <use x="444.238281" xlink:href="#DejaVuSans-69"/>
      <use x="472.021484" xlink:href="#DejaVuSans-61"/>
      <use x="533.300781" xlink:href="#DejaVuSans-6e"/>
      <use x="596.679688" xlink:href="#DejaVuSans-20"/>
      <use x="628.466797" xlink:href="#DejaVuSans-48"/>
      <use x="703.662109" xlink:href="#DejaVuSans-65"/>
      <use x="765.185547" xlink:href="#DejaVuSans-72"/>
      <use x="804.548828" xlink:href="#DejaVuSans-64"/>
      <use x="868.025391" xlink:href="#DejaVuSans-69"/>
      <use x="895.808594" xlink:href="#DejaVuSans-6e"/>
      <use x="959.1875" xlink:href="#DejaVuSans-67"/>
     </g>
    </g>
    <g id="line2d_25">
     <path d="M 182.2425 85.9145 
L 214.2425 85.9145 
" style="fill:none;stroke:#5a7d9a;stroke-linecap:square;stroke-width:10;"/>
    </g>
    <g id="line2d_26"/>
    <g id="text_19">
     <!-- Euclidean Herding -->
     <g transform="translate(227.0425 91.5145)scale(0.16 -0.16)">
      <defs>
       <path d="M 3122 3366 
L 3122 2828 
Q 2878 2963 2633 3030 
Q 2388 3097 2138 3097 
Q 1578 3097 1268 2742 
Q 959 2388 959 1747 
Q 959 1106 1268 751 
Q 1578 397 2138 397 
Q 2388 397 2633 464 
Q 2878 531 3122 666 
L 3122 134 
Q 2881 22 2623 -34 
Q 2366 -91 2075 -91 
Q 1284 -91 818 406 
Q 353 903 353 1747 
Q 353 2603 823 3093 
Q 1294 3584 2113 3584 
Q 2378 3584 2631 3529 
Q 2884 3475 3122 3366 
z
" id="DejaVuSans-63" transform="scale(0.015625)"/>
      </defs>
      <use xlink:href="#DejaVuSans-45"/>
      <use x="63.183594" xlink:href="#DejaVuSans-75"/>
      <use x="126.5625" xlink:href="#DejaVuSans-63"/>
      <use x="181.542969" xlink:href="#DejaVuSans-6c"/>
      <use x="209.326172" xlink:href="#DejaVuSans-69"/>
      <use x="237.109375" xlink:href="#DejaVuSans-64"/>
      <use x="300.585938" xlink:href="#DejaVuSans-65"/>
      <use x="362.109375" xlink:href="#DejaVuSans-61"/>
      <use x="423.388672" xlink:href="#DejaVuSans-6e"/>
      <use x="486.767578" xlink:href="#DejaVuSans-20"/>
      <use x="518.554688" xlink:href="#DejaVuSans-48"/>
      <use x="593.75" xlink:href="#DejaVuSans-65"/>
      <use x="655.273438" xlink:href="#DejaVuSans-72"/>
      <use x="694.636719" xlink:href="#DejaVuSans-64"/>
      <use x="758.113281" xlink:href="#DejaVuSans-69"/>
      <use x="785.896484" xlink:href="#DejaVuSans-6e"/>
      <use x="849.275391" xlink:href="#DejaVuSans-67"/>
     </g>
    </g>
    <g id="line2d_27">
     <path d="M 182.2425 109.3995 
L 214.2425 109.3995 
" style="fill:none;stroke:#40a368;stroke-linecap:square;stroke-width:10;"/>
    </g>
    <g id="line2d_28"/>
    <g id="text_20">
     <!-- OT -->
     <g transform="translate(227.0425 114.9995)scale(0.16 -0.16)">
      <defs>
       <path d="M 2522 4238 
Q 1834 4238 1429 3725 
Q 1025 3213 1025 2328 
Q 1025 1447 1429 934 
Q 1834 422 2522 422 
Q 3209 422 3611 934 
Q 4013 1447 4013 2328 
Q 4013 3213 3611 3725 
Q 3209 4238 2522 4238 
z
M 2522 4750 
Q 3503 4750 4090 4092 
Q 4678 3434 4678 2328 
Q 4678 1225 4090 567 
Q 3503 -91 2522 -91 
Q 1538 -91 948 565 
Q 359 1222 359 2328 
Q 359 3434 948 4092 
Q 1538 4750 2522 4750 
z
" id="DejaVuSans-4f" transform="scale(0.015625)"/>
       <path d="M -19 4666 
L 3928 4666 
L 3928 4134 
L 2272 4134 
L 2272 0 
L 1638 0 
L 1638 4134 
L -19 4134 
L -19 4666 
z
" id="DejaVuSans-54" transform="scale(0.015625)"/>
      </defs>
      <use xlink:href="#DejaVuSans-4f"/>
      <use x="78.710938" xlink:href="#DejaVuSans-54"/>
     </g>
    </g>
    <g id="line2d_29">
     <path d="M 182.2425 132.8845 
L 214.2425 132.8845 
" style="fill:none;stroke:#653700;stroke-linecap:square;stroke-width:10;"/>
    </g>
    <g id="line2d_30"/>
    <g id="text_21">
     <!-- OT + Cayley Centroid -->
     <g transform="translate(227.0425 138.4845)scale(0.16 -0.16)">
      <defs>
       <path d="M 2944 4013 
L 2944 2272 
L 4684 2272 
L 4684 1741 
L 2944 1741 
L 2944 0 
L 2419 0 
L 2419 1741 
L 678 1741 
L 678 2272 
L 2419 2272 
L 2419 4013 
L 2944 4013 
z
" id="DejaVuSans-2b" transform="scale(0.015625)"/>
       <path d="M 4122 4306 
L 4122 3641 
Q 3803 3938 3442 4084 
Q 3081 4231 2675 4231 
Q 1875 4231 1450 3742 
Q 1025 3253 1025 2328 
Q 1025 1406 1450 917 
Q 1875 428 2675 428 
Q 3081 428 3442 575 
Q 3803 722 4122 1019 
L 4122 359 
Q 3791 134 3420 21 
Q 3050 -91 2638 -91 
Q 1578 -91 968 557 
Q 359 1206 359 2328 
Q 359 3453 968 4101 
Q 1578 4750 2638 4750 
Q 3056 4750 3426 4639 
Q 3797 4528 4122 4306 
z
" id="DejaVuSans-43" transform="scale(0.015625)"/>
       <path d="M 2059 -325 
Q 1816 -950 1584 -1140 
Q 1353 -1331 966 -1331 
L 506 -1331 
L 506 -850 
L 844 -850 
Q 1081 -850 1212 -737 
Q 1344 -625 1503 -206 
L 1606 56 
L 191 3500 
L 800 3500 
L 1894 763 
L 2988 3500 
L 3597 3500 
L 2059 -325 
z
" id="DejaVuSans-79" transform="scale(0.015625)"/>
       <path d="M 1172 4494 
L 1172 3500 
L 2356 3500 
L 2356 3053 
L 1172 3053 
L 1172 1153 
Q 1172 725 1289 603 
Q 1406 481 1766 481 
L 2356 481 
L 2356 0 
L 1766 0 
Q 1100 0 847 248 
Q 594 497 594 1153 
L 594 3053 
L 172 3053 
L 172 3500 
L 594 3500 
L 594 4494 
L 1172 4494 
z
" id="DejaVuSans-74" transform="scale(0.015625)"/>
      </defs>
      <use xlink:href="#DejaVuSans-4f"/>
      <use x="78.710938" xlink:href="#DejaVuSans-54"/>
      <use x="139.794922" xlink:href="#DejaVuSans-20"/>
      <use x="171.582031" xlink:href="#DejaVuSans-2b"/>
      <use x="255.371094" xlink:href="#DejaVuSans-20"/>
      <use x="287.158203" xlink:href="#DejaVuSans-43"/>
      <use x="356.982422" xlink:href="#DejaVuSans-61"/>
      <use x="418.261719" xlink:href="#DejaVuSans-79"/>
      <use x="477.441406" xlink:href="#DejaVuSans-6c"/>
      <use x="505.224609" xlink:href="#DejaVuSans-65"/>
      <use x="566.748047" xlink:href="#DejaVuSans-79"/>
      <use x="625.927734" xlink:href="#DejaVuSans-20"/>
      <use x="657.714844" xlink:href="#DejaVuSans-43"/>
      <use x="727.539062" xlink:href="#DejaVuSans-65"/>
      <use x="789.0625" xlink:href="#DejaVuSans-6e"/>
      <use x="852.441406" xlink:href="#DejaVuSans-74"/>
      <use x="891.650391" xlink:href="#DejaVuSans-72"/>
      <use x="930.513672" xlink:href="#DejaVuSans-6f"/>
      <use x="991.695312" xlink:href="#DejaVuSans-69"/>
      <use x="1019.478516" xlink:href="#DejaVuSans-64"/>
     </g>
    </g>
   </g>
  </g>
 </g>
 <defs>
  <clipPath id="pd34a14af8c">
   <rect height="266.112" width="357.12" x="57.6" y="41.472"/>
  </clipPath>
 </defs>
</svg>
